# Blender v2.76 (sub 0) OBJ File: 'Rock1.blend'
# www.blender.org
mtllib Rock1.mtl
o Rock_Icosphere.004
v 0.059462 -0.035526 -0.255500
v -0.029755 0.131436 -0.428009
v -0.257378 -0.021056 -0.405687
v 0.227025 -0.025636 -0.350037
v 0.205612 0.127464 -0.398346
v 0.000685 -0.013903 -0.648395
v 0.300120 -0.027070 0.400600
v -0.518960 -0.004506 -0.010935
v 0.032882 0.381353 -0.132690
v 0.341627 -0.011526 -0.002968
v 0.232512 0.277790 -0.020116
v -0.028321 -0.027766 -0.245363
v -0.275048 -0.026995 0.510737
v -0.201251 0.193484 0.375596
v 0.165476 0.276854 0.361873
v -0.166675 0.321238 -0.001176
vn -0.078200 0.695800 0.713900
vn 0.450000 0.325400 0.831600
vn -0.323400 0.590900 0.739100
vn 0.002100 -0.995000 -0.100300
vn 0.082300 0.837200 -0.540700
vn -0.509600 0.684300 -0.521600
vn -0.005400 -0.999400 -0.035200
vn 0.792600 -0.079900 -0.604400
vn 0.007600 0.129700 0.991500
vn -0.007800 -0.999200 -0.039300
vn 0.542500 0.146600 -0.827100
vn -0.586200 0.295500 -0.754400
vn -0.373000 0.428100 -0.823200
vn -0.008900 -0.996700 0.080300
vn 0.536900 0.153300 -0.829600
vn -0.777900 0.496500 0.385100
vn -0.201000 0.933200 0.298000
vn -0.007700 -0.999200 -0.039500
vn -0.132400 0.962000 0.238800
vn 0.424700 0.902100 0.076700
vn -0.670200 0.719400 0.182400
vn 0.165600 0.474500 0.864500
vn 0.903600 0.414200 0.108900
vn 0.920000 0.356600 0.162300
usemtl Rock
s off
f 1//1 5//1 2//1
f 5//2 1//2 4//2
f 1//3 2//3 3//3
f 1//4 3//4 4//4
f 2//5 5//5 6//5
f 3//6 2//6 6//6
f 4//7 3//7 6//7
f 5//8 4//8 6//8
f 7//9 15//9 14//9
f 7//10 8//10 10//10
f 9//11 11//11 12//11
f 16//12 9//12 12//12
f 8//13 16//13 12//13
f 10//14 8//14 12//14
f 11//15 10//15 12//15
f 13//16 14//16 8//16
f 15//17 16//17 14//17
f 7//18 13//18 8//18
f 16//19 15//19 9//19
f 15//20 11//20 9//20
f 14//21 16//21 8//21
f 13//22 7//22 14//22
f 7//23 10//23 15//23
f 10//24 11//24 15//24
