# Blender v2.76 (sub 0) OBJ File: 'Rock2.blend'
# www.blender.org
mtllib Rock2.mtl
o Rock2_Icosphere.003
v 0.381297 -0.016421 0.370617
v -0.518960 -0.009676 -0.041481
v 0.071776 0.401672 -0.269787
v 0.341627 -0.016385 -0.033250
v 0.348443 0.277310 -0.219598
v -0.018121 -0.023634 -0.497581
v -0.038782 -0.008745 0.568433
v 0.035015 0.206382 0.424925
v 0.246654 0.285791 0.320249
v -0.209692 0.316202 -0.044237
v 0.533281 -0.019018 -0.000422
v 0.565671 0.273168 -0.033805
vn 0.028000 0.999600 -0.010400
vn 0.331500 0.296900 0.895500
vn -0.007800 -1.000000 0.000700
vn 0.331200 0.390100 -0.859100
vn -0.635400 0.464600 -0.616800
vn -0.563200 0.529100 -0.634700
vn -0.008000 -0.999700 0.021800
vn 0.735600 -0.375000 -0.564100
vn -0.649600 0.563400 0.510500
vn -0.191500 0.928800 0.317300
vn -0.012800 -0.999900 0.011600
vn -0.114400 0.967900 0.224000
vn 0.400000 0.914500 0.061100
vn 0.923600 -0.059100 0.378700
vn -0.014000 -0.999900 0.001300
vn 0.576400 -0.447300 -0.683900
vn -0.636500 0.608100 0.474400
vn 0.394200 0.412600 0.821200
vn 0.686000 0.406200 0.603600
vn 0.165700 -0.130100 -0.977600
usemtl Rock.001
s off
f 5//1 9//1 12//1
f 1//2 9//2 8//2
f 1//3 2//3 4//3
f 3//4 5//4 6//4
f 10//5 3//5 6//5
f 2//6 10//6 6//6
f 4//7 2//7 6//7
f 5//8 4//8 6//8
f 7//9 8//9 2//9
f 9//10 10//10 8//10
f 1//11 7//11 2//11
f 10//12 9//12 3//12
f 9//13 5//13 3//13
f 12//14 1//14 11//14
f 4//15 11//15 1//15
f 4//16 5//16 12//16
f 8//17 10//17 2//17
f 7//18 1//18 8//18
f 12//19 9//19 1//19
f 11//20 4//20 12//20
