# WaveFront *.obj file (generated by Cheetah3D)

mtllib obelisk.mtl

g STL file
v 0.877461 3.707130 0.758492
v -0.941244 3.707130 0.885492
v -0.814244 3.707130 0.758492
v 1.004461 3.707130 0.885492
v 0.877461 3.707130 -0.933212
v 1.004461 3.707130 -1.060212
v -0.814244 3.707130 -0.933212
v -0.941244 3.707130 -1.060212
v -0.814244 2.907030 0.758492
v 0.877461 3.467100 0.758492
v 0.877461 2.907030 0.758492
v -0.814244 3.467100 0.758492
v 0.877461 3.467100 -0.933212
v 0.877461 2.907030 -0.933212
v -0.814244 3.467100 -0.933212
v -0.814244 2.907030 -0.933212
v -0.941244 3.467100 -1.060212
v 1.004461 3.467100 -1.060212
v 1.004461 3.467100 0.885492
v -0.941244 3.467100 0.885492
v 1.004461 2.907030 0.885492
v 1.004461 2.907030 -1.060212
v -0.941244 2.907030 -1.060212
v -0.941244 2.907030 0.885492
v 0.877461 2.552700 0.758492
v 0.877461 0.952500 -0.933212
v 0.877461 0.952500 0.758492
v 0.877461 2.552700 -0.933212
v -0.814244 0.952500 -0.933212
v -0.814244 2.552700 -0.933212
v -0.814244 0.952500 0.758492
v -0.814244 2.552700 0.758492
v -0.984391 0.000000 -1.103360
v 1.047609 0.000000 -1.103360
v -0.984391 0.000000 0.928640
v 1.047609 -0.000000 0.928640
v 1.047609 0.000000 0.928640
v 0.730109 0.000000 0.611140
v 0.730109 0.000000 -0.785860
v -0.666891 0.000000 0.611140
v -0.666891 0.000000 -0.785860
v -0.941244 2.552700 -1.060212
v 1.004461 2.552700 -1.060212
v 1.004461 2.552700 0.885492
v -0.941244 2.552700 0.885492
v -0.521833 4.383539 0.726959
v -0.794381 4.133204 0.738630
v -0.254238 10.123734 0.459364
v 0.602045 9.615078 0.483076
v 0.845928 4.383539 -0.640802
v 0.602045 9.615078 -0.396919
v 0.857598 4.133204 -0.913350
v 0.585051 4.383539 -0.901680
v -0.382187 10.199739 -0.630541
v 0.333737 9.774461 -0.650366
v -0.429257 10.374630 -0.622388
v -0.503419 10.374630 -0.622388
v -0.782711 4.383539 0.466082
v -0.503419 10.374630 0.186790
v -0.429257 10.374630 0.260952
v -0.382187 10.199739 0.324328
v -0.107561 9.589770 0.051809
v -0.107561 9.589770 -0.226529
v 0.170778 9.589770 0.051809
v 0.170778 9.589770 -0.226529

vt 0.315315 0.648891
vt -0.139361 0.617141
vt -0.107611 0.648891
vt 0.347065 0.617141
vt 0.315315 1.071817
vt 0.347065 1.103567
vt -0.107611 1.071817
vt -0.139361 1.103567
vt -0.107611 1.601758
vt 0.315315 1.741775
vt 0.315315 1.601758
vt -0.107611 1.741775
vt -0.101109 1.601758
vt 0.321817 1.741775
vt 0.321817 1.601758
vt -0.101109 1.741775
vt -0.065315 1.601758
vt 0.357611 1.741775
vt 0.357611 1.601758
vt -0.065315 1.741775
vt -0.071817 1.601758
vt 0.351109 1.741775
vt 0.351109 1.601758
vt -0.071817 1.741775
vt -0.065315 1.071817
vt 0.389361 1.103567
vt 0.357611 1.071817
vt -0.097065 1.103567
vt -0.065315 0.648891
vt -0.097065 0.617141
vt 0.357611 0.648891
vt 0.389361 0.617141
vt 0.382859 1.741775
vt -0.103567 1.801782
vt 0.382859 1.801782
vt -0.103567 1.741775
vt 0.347065 1.741775
vt -0.139361 1.801782
vt 0.347065 1.801782
vt -0.139361 1.741775
vt 0.353567 1.741775
vt -0.132859 1.801782
vt 0.353567 1.801782
vt -0.132859 1.741775
vt 0.389361 1.741775
vt -0.097065 1.801782
vt 0.389361 1.801782
vt -0.097065 1.741775
vt -0.101109 1.513175
vt 0.321817 1.113125
vt -0.101109 1.113125
vt 0.321817 1.513175
vt -0.065315 1.513175
vt 0.357611 1.113125
vt -0.065315 1.113125
vt 0.357611 1.513175
vt -0.071817 1.513175
vt 0.351109 1.113125
vt -0.071817 1.113125
vt 0.351109 1.513175
vt -0.107611 1.513175
vt 0.315315 1.113125
vt -0.107611 1.113125
vt 0.315315 1.513175
vt 0.400148 0.875000
vt -0.107852 0.875000
vt 0.393646 0.875000
vt -0.114354 0.875000
vt 0.357852 0.875000
vt -0.150148 0.875000
vt 0.364354 0.875000
vt -0.143646 0.875000
vt -0.028477 0.685729
vt -0.107852 1.114354
vt -0.028477 1.034979
vt -0.107852 0.606354
vt 0.320773 0.685729
vt 0.400148 0.606354
vt 0.320773 1.034979
vt 0.400148 1.114354
vt 0.389361 1.601758
vt -0.097065 1.513175
vt -0.097065 1.601758
vt 0.389361 1.513175
vt 0.353567 1.601758
vt -0.132859 1.513175
vt -0.132859 1.601758
vt 0.353567 1.513175
vt 0.347065 1.601758
vt -0.139361 1.513175
vt -0.139361 1.601758
vt 0.347065 1.513175
vt 0.382859 1.601758
vt -0.103567 1.513175
vt -0.103567 1.601758
vt 0.382859 1.513175
vt -0.034508 1.970885
vt -0.107611 1.801782
vt -0.102645 1.908301
vt 0.315315 1.801782
vt 0.032391 3.405933
vt 0.246461 3.278769
vt 0.248714 1.970885
vt -0.032255 3.278769
vt 0.187744 3.278769
vt -0.101109 1.801782
vt 0.316851 1.908301
vt 0.321817 1.801782
vt 0.007787 1.970885
vt -0.065315 1.801782
vt -0.060350 1.908301
vt 0.357611 1.801782
vt 0.249597 3.424935
vt 0.070616 3.318615
vt 0.261364 3.468657
vt 0.279905 3.468657
vt 0.278007 1.970885
vt 0.005889 3.468657
vt 0.208184 3.468657
vt -0.071817 1.801782
vt 0.346143 1.908301
vt 0.351109 1.801782
vt -0.011364 0.994111
vt -0.029905 0.791816
vt -0.029905 0.994111
vt -0.011364 0.773276
vt -0.034508 0.656774
vt -0.102645 0.653857
vt -0.099728 0.721993
vt 0.000403 3.424935
vt -0.029905 3.468657
vt -0.011364 3.468657
vt -0.099728 1.970885
vt 0.276327 3.405933
vt 0.242568 3.424935
vt 0.343226 1.970885
vt 0.310350 1.066851
vt 0.307432 0.998714
vt 0.242213 1.063934
vt 0.251105 3.318615
vt 0.313934 1.970885
vt 0.023276 3.468657
vt 0.246149 3.424935
vt 0.007432 3.424935
vt 0.244111 3.468657
vt 0.179384 1.001105
vt 0.000403 0.757432
vt 0.000403 0.996149
vt 0.032391 0.723673
vt 0.246461 0.937744
vt 0.246461 0.717745
vt 0.284979 0.875000
vt 0.075562 3.272443
vt 0.145146 3.272443
vt -0.064271 0.875000
vt 0.320773 0.875000
vt 0.111356 3.272443
vt 0.180940 3.272443
vt -0.028477 0.875000
vt 0.314271 0.875000
vt 0.104854 3.272443
vt 0.174438 3.272443
vt -0.034979 0.875000
vt 0.278477 0.875000
vt 0.069060 3.272443
vt 0.138644 3.272443
vt -0.070773 0.875000
vt 0.180940 0.895146
vt 0.111356 0.825562
vt 0.111356 0.895146
vt 0.180940 0.825562

vn 0.000000 1.000000 0.000000
vn 0.000000 0.000000 1.000000
vn 1.000000 0.000000 0.000000
vn 0.000000 0.000000 -1.000000
vn -1.000000 0.000000 0.000000
vn 0.000000 -1.000000 0.000000
vn 0.998312 0.058078 0.000000
vn 0.993144 0.116897 0.000000
vn 0.000000 0.058078 -0.998312
vn 0.000000 0.116897 -0.993144
vn -0.998312 0.058078 0.000000
vn -0.993144 0.116897 0.000000
vn 0.000000 0.058078 0.998312
vn 0.000000 0.116897 0.993144
vn 0.000000 0.175849 -0.984417
vn -0.984417 0.175849 0.000000
vn 0.000000 0.175849 0.984417
vn 0.984417 0.175849 0.000000
vn -0.000000 0.046567 0.998915
vn 0.998915 0.046567 -0.000000
vn 0.000000 0.046567 -0.998915
vn -0.000000 0.046567 -0.998915
vn -0.998915 0.046567 0.000000
vn -0.551400 0.626033 0.551400
vn -0.705575 0.065785 0.705575
vn 0.551400 0.626033 -0.551400
vn 0.705575 0.065785 -0.705575
vn 0.965639 0.259888 0.000000
vn 0.510716 0.859750 0.000001
vn 0.998303 -0.058227 0.000000
vn 0.000000 -0.058227 -0.998303
vn -0.998303 -0.058227 0.000000
vn 0.000000 -0.058227 0.998303

usemtl default
f 3/3/1 2/2/1 1/1/1
f 1/1/1 2/2/1 4/4/1
f 1/1/1 4/4/1 5/5/1
f 5/5/1 4/4/1 6/6/1
f 5/5/1 6/6/1 7/7/1
f 7/7/1 6/6/1 8/8/1
f 7/7/1 8/8/1 3/3/1
f 3/3/1 8/8/1 2/2/1
f 11/11/2 10/10/2 9/9/2
f 9/9/2 10/10/2 12/12/2
f 14/15/3 13/14/3 11/13/3
f 11/13/3 13/14/3 10/16/3
f 16/19/4 15/18/4 14/17/4
f 14/17/4 15/18/4 13/20/4
f 9/23/5 12/22/5 16/21/5
f 16/21/5 12/22/5 15/24/5
f 15/27/6 17/26/6 13/25/6
f 13/25/6 17/26/6 18/28/6
f 13/25/6 18/28/6 10/29/6
f 10/29/6 18/28/6 19/30/6
f 10/29/6 19/30/6 12/31/6
f 12/31/6 19/30/6 20/32/6
f 12/31/6 20/32/6 15/27/6
f 15/27/6 20/32/6 17/26/6
f 2/35/5 8/34/5 20/33/5
f 20/33/5 8/34/5 17/36/5
f 4/39/2 2/38/2 19/37/2
f 19/37/2 2/38/2 20/40/2
f 6/43/3 4/42/3 18/41/3
f 18/41/3 4/42/3 19/44/3
f 8/47/4 6/46/4 17/45/4
f 17/45/4 6/46/4 18/48/4
f 11/1/1 21/4/1 14/5/1
f 14/5/1 21/4/1 22/6/1
f 14/5/1 22/6/1 16/7/1
f 16/7/1 22/6/1 23/8/1
f 16/7/1 23/8/1 9/3/1
f 9/3/1 23/8/1 24/2/1
f 9/3/1 24/2/1 11/1/1
f 11/1/1 24/2/1 21/4/1
f 27/51/8 26/50/7 25/49/3
f 25/49/3 26/50/7 28/52/3
f 26/55/10 29/54/9 28/53/4
f 28/53/4 29/54/9 30/56/4
f 29/59/12 31/58/11 30/57/5
f 30/57/5 31/58/11 32/60/5
f 31/63/14 27/62/13 32/61/2
f 32/61/2 27/62/13 25/64/2
f 29/54/9 26/55/10 33/65/15
f 33/65/15 26/55/10 34/66/15
f 31/58/11 29/59/12 35/67/16
f 35/67/16 29/59/12 33/68/16
f 27/62/13 31/63/14 36/69/17
f 36/69/17 31/63/14 35/70/17
f 26/50/7 27/51/8 34/71/18
f 34/71/18 27/51/8 37/72/18
f 39/75/6 34/74/6 38/73/6
f 38/73/6 34/74/6 37/76/6
f 38/73/6 37/76/6 40/77/6
f 40/77/6 37/76/6 35/78/6
f 40/77/6 35/78/6 41/79/6
f 41/79/6 35/78/6 33/80/6
f 41/79/6 33/80/6 39/75/6
f 39/75/6 33/80/6 34/74/6
f 30/27/6 42/26/6 28/25/6
f 28/25/6 42/26/6 43/28/6
f 28/25/6 43/28/6 25/29/6
f 25/29/6 43/28/6 44/30/6
f 25/29/6 44/30/6 32/31/6
f 32/31/6 44/30/6 45/32/6
f 32/31/6 45/32/6 30/27/6
f 30/27/6 45/32/6 42/26/6
f 22/83/4 43/82/4 23/81/4
f 23/81/4 43/82/4 42/84/4
f 21/87/3 44/86/3 22/85/3
f 22/85/3 44/86/3 43/88/3
f 24/91/2 45/90/2 21/89/2
f 21/89/2 45/90/2 44/92/2
f 23/95/5 42/94/5 24/93/5
f 24/93/5 42/94/5 45/96/5
f 47/99/19 3/98/19 46/97/19
f 46/97/19 3/98/19 1/100/19
f 46/97/19 1/100/19 48/101/19
f 48/101/19 1/100/19 49/102/19
f 51/105/20 49/104/20 50/103/20
f 50/103/20 49/104/20 1/106/20
f 50/103/20 1/106/20 52/107/20
f 52/107/20 1/106/20 5/108/20
f 52/111/21 5/110/21 53/109/21
f 53/109/21 5/110/21 7/112/21
f 55/114/22 53/109/21 54/113/21
f 54/113/21 53/109/21 7/112/21
f 54/113/21 7/112/21 56/115/21
f 56/115/21 7/112/21 57/116/21
f 59/119/23 57/118/23 58/117/23
f 58/117/23 57/118/23 7/120/23
f 58/117/23 7/120/23 47/121/23
f 47/121/23 7/120/23 3/122/23
f 57/125/1 59/124/1 56/123/1
f 56/123/1 59/124/1 60/126/1
f 58/129/24 47/128/24 46/127/24
f 60/132/25 59/131/25 61/130/25
f 61/130/25 59/131/25 58/133/25
f 61/135/25 58/117/25 48/134/25
f 48/134/25 58/117/25 46/136/25
f 53/139/26 50/138/26 52/137/26
f 51/105/27 50/103/27 55/140/27
f 55/140/27 50/103/27 53/141/27
f 61/144/28 54/143/28 60/142/28
f 60/142/28 54/143/28 56/145/28
f 54/148/29 61/147/29 55/146/29
f 55/146/29 61/147/29 48/149/29
f 55/146/29 48/149/29 51/150/29
f 51/150/29 48/149/29 49/151/29
f 63/154/30 62/153/30 41/152/30
f 41/152/30 62/153/30 40/155/30
f 62/158/31 64/157/31 40/156/31
f 40/156/31 64/157/31 38/159/31
f 64/162/32 65/161/32 38/160/32
f 38/160/32 65/161/32 39/163/32
f 65/166/33 63/165/33 39/164/33
f 39/164/33 63/165/33 41/167/33
f 65/170/6 64/169/6 63/168/6
f 63/168/6 64/169/6 62/171/6
