# Blender v2.79 (sub 0) OBJ File: 'Floor_Hole_Corner.blend'
# www.blender.org
mtllib Floor_Hole_Corner.mtl
o Floor_Hole_Corner_Cube.032
v 0.740181 0.019741 -0.469145
v 0.488629 -0.081898 -0.505303
v 0.480862 -0.081898 -0.027151
v 0.988275 -0.081898 -0.026163
v 0.774832 -0.081898 -0.027151
v 0.503919 -0.081898 -0.508284
v 0.990580 -0.081898 -0.508284
v 0.767963 -0.081898 -0.508284
v 0.527093 0.033989 -0.067072
v -0.950478 0.019741 -0.261945
v -0.986637 -0.081898 -0.510233
v -0.508485 -0.081898 -0.517899
v -0.507496 -0.081898 -0.020475
v -0.508485 -0.081898 -0.227743
v -0.989617 -0.081898 -0.495141
v -0.989617 -0.081898 -0.018200
v -0.989617 -0.081898 -0.234523
v -0.548405 0.033989 -0.472268
v -0.522506 -0.026034 -0.498708
v -0.551165 0.033989 -0.062354
v -0.529247 0.005964 -0.039480
v -0.533731 0.033989 -0.261945
v -0.523902 0.011635 -0.239342
v -0.974343 0.018512 -0.477975
v -0.981085 -0.042436 -0.498708
v -0.974343 0.018512 -0.052023
v -0.981227 -0.038617 -0.031289
v -0.706279 -0.033757 -0.516203
v -0.726099 0.002488 -0.520552
v -0.492411 -0.038617 -0.519332
v -0.513417 0.018512 -0.526216
v -0.979779 -0.042436 -0.519511
v -0.958708 0.018512 -0.526049
v -0.703198 0.011635 -0.976657
v -0.726099 0.033989 -0.966828
v -0.500710 0.005964 -0.971313
v -0.523884 0.033989 -0.949395
v -0.975323 -0.026034 -0.978069
v -0.948788 0.033989 -0.951911
v -0.698317 -0.081898 -0.510942
v -0.479150 -0.081898 -0.510942
v -0.991509 -0.081898 -0.514074
v -0.691448 -0.081898 -0.992075
v -0.481455 -0.081898 -0.993063
v -0.994628 -0.081898 -0.992279
v -0.982154 -0.013599 -0.245673
v -0.969191 0.002488 -0.261945
v 0.500305 -0.026034 -0.041173
v 0.945846 0.033989 -0.069831
v 0.969020 0.005964 -0.047913
v 0.740181 0.033989 -0.052398
v 0.763081 0.011635 -0.042569
v 0.521311 0.018512 -0.493010
v 0.500305 -0.042436 -0.499752
v 0.956313 0.018512 -0.493010
v 0.977319 -0.038617 -0.499893
v 0.740181 0.002488 -0.487857
v 0.756666 -0.013599 -0.500821
v 0.030548 0.018512 -0.477956
v 0.455412 0.018512 -0.490634
v 0.010929 -0.081898 -0.349843
v 0.484210 -0.081898 -0.022534
v 0.003305 -0.081898 -0.027915
v 0.025941 -0.081898 -0.510373
v 0.480214 -0.081898 -0.510373
v 0.036330 0.033989 -0.064541
v 0.009542 -0.026034 -0.038642
v 0.453244 0.033989 -0.061746
v 0.484069 0.005964 -0.039828
v 0.009542 -0.042436 -0.504758
v 0.484069 -0.038617 -0.504900
v -0.240267 0.019741 -0.469145
v -0.505676 -0.081898 -0.505152
v -0.508796 -0.081898 -0.026947
v 0.004377 -0.081898 -0.026163
v -0.205615 -0.081898 -0.027151
v -0.476529 -0.081898 -0.508284
v 0.006682 -0.081898 -0.508284
v -0.212485 -0.081898 -0.508284
v -0.462956 0.033989 -0.067315
v -0.489491 -0.026034 -0.041157
v -0.038052 0.033989 -0.069831
v -0.014878 0.005964 -0.047913
v -0.240267 0.033989 -0.052398
v -0.217366 0.011635 -0.042569
v -0.472876 0.018512 -0.493177
v -0.493947 -0.042436 -0.499714
v -0.027585 0.018512 -0.493010
v -0.006579 -0.038617 -0.499893
v -0.240267 0.002488 -0.487857
v -0.223781 -0.013599 -0.500821
v -0.001763 -0.038617 -0.514326
v -0.476290 -0.042436 -0.514468
v -0.001763 0.005964 -0.979398
v -0.032588 0.033989 -0.957480
v -0.476290 -0.026034 -0.980583
v -0.449502 0.033989 -0.954685
v -0.005618 -0.081898 -0.508852
v -0.459891 -0.081898 -0.508852
v -0.482528 -0.081898 -0.991311
v -0.001622 -0.081898 -0.996691
v -0.474903 -0.081898 -0.669383
v -0.030420 0.018512 -0.528592
v -0.455284 0.018512 -0.541270
v 0.488036 -0.038617 -0.519332
v 0.467031 0.018512 -0.526216
v 0.014473 -0.042436 -0.519474
v 0.035479 0.018512 -0.526216
v 0.277249 0.011635 -0.976657
v 0.254349 0.033989 -0.966828
v 0.479738 0.005964 -0.971313
v 0.456564 0.033989 -0.949395
v 0.014473 -0.026034 -0.978053
v 0.041261 0.033989 -0.952154
v 0.501297 -0.081898 -0.510942
v 0.002796 -0.081898 -0.513923
v 0.289000 -0.081898 -0.992075
v 0.498993 -0.081898 -0.993063
v -0.004970 -0.081898 -0.992075
v 0.992762 -0.038617 -0.514326
v 0.504158 -0.042436 -0.514468
v 0.992762 0.005964 -0.979398
v 0.961937 0.033989 -0.957480
v 0.504158 -0.026034 -0.980583
v 0.530945 0.033989 -0.954685
v 0.988907 -0.081898 -0.508852
v 0.520556 -0.081898 -0.508852
v 0.497920 -0.081898 -0.991311
v 0.992903 -0.081898 -0.996691
v 0.505545 -0.081898 -0.669383
v 0.964106 0.018512 -0.528592
v 0.525164 0.018512 -0.541270
v -0.740181 0.019741 0.442038
v -0.501858 -0.081898 0.478727
v -0.494092 -0.081898 -0.019678
v -0.988275 -0.081898 -0.020681
v -0.774832 -0.081898 -0.019678
v -0.503919 -0.081898 0.481751
v -0.990580 -0.081898 0.481751
v -0.767963 -0.081898 0.481751
v -0.540322 0.033989 0.020829
v -0.709613 -0.013599 0.492022
v -0.726099 0.002488 0.505175
v -0.492411 -0.038617 0.492962
v -0.513417 0.018512 0.499947
v -0.979779 -0.042436 0.493144
v -0.958708 0.018512 0.499778
v -0.703198 0.011635 0.979793
v -0.726099 0.033989 0.969820
v -0.500710 0.005964 0.974370
v -0.523884 0.033989 0.952130
v -0.975323 -0.026034 0.981226
v -0.948788 0.033989 0.954684
v -0.698317 -0.081898 0.484449
v -0.479150 -0.081898 0.484449
v -0.962361 -0.081898 0.484449
v -0.691448 -0.081898 0.995437
v -0.481455 -0.081898 0.996440
v -0.994628 -0.081898 0.995645
v -0.991509 -0.081898 0.487627
v -0.726099 0.019741 0.524162
v -0.513534 -0.026034 -0.005451
v -0.945846 0.033989 0.023629
v -0.969020 0.005964 0.001389
v -0.740181 0.033989 0.005939
v -0.763081 0.011635 -0.004034
v -0.534540 0.018512 0.466253
v -0.513534 -0.042436 0.473094
v -0.956313 0.018512 0.466253
v -0.977319 -0.038617 0.473238
v -0.740181 0.002488 0.461025
v -0.756666 -0.013599 0.474179
v -0.030548 0.018512 0.450978
v -0.478035 0.018512 0.463842
v -0.010929 -0.081898 0.320983
v -0.497439 -0.081898 -0.027803
v -0.003305 -0.081898 -0.022343
v -0.025941 -0.081898 0.483872
v -0.493443 -0.081898 0.483872
v -0.036330 0.033989 0.014821
v -0.009542 -0.026034 -0.011458
v -0.475867 0.033989 0.011985
v -0.497299 0.005964 -0.010255
v -0.009542 -0.042436 0.478174
v -0.497299 -0.038617 0.478318
v -0.001763 -0.038617 0.487883
v -0.476290 -0.042436 0.488026
v -0.001763 0.005964 0.978776
v -0.032588 0.033989 0.956536
v -0.476290 -0.026034 0.985734
v -0.449502 0.033989 0.959455
v -0.005618 -0.081898 0.482328
v -0.459891 -0.081898 0.482328
v -0.482528 -0.081898 0.996619
v -0.001622 -0.081898 0.996324
v -0.474903 -0.081898 0.645217
v -0.030420 0.018512 0.502358
v -0.455284 0.018512 0.515222
v -0.107117 -0.076547 0.107117
v -0.107117 0.060812 0.107117
v -0.107117 -0.076547 -0.107117
v -0.107117 0.060812 -0.107117
v 0.107117 -0.076547 0.107117
v 0.107117 0.060812 0.107117
v 0.107117 -0.076547 -0.107117
v 0.107117 0.060812 -0.107117
v -0.072114 -0.078871 1.000000
v -0.072114 0.046403 1.000000
v 0.072114 -0.078871 1.000000
v 0.072114 0.046403 1.000000
v 0.072114 -0.078871 0.000000
v 0.072114 0.046403 0.000000
v -0.072114 -0.078871 -0.000000
v -0.072114 0.046403 -0.000000
v 1.000000 -0.078871 0.072114
v 1.000000 0.046403 0.072114
v 1.000000 -0.078871 -0.072114
v 1.000000 0.046403 -0.072114
v 0.000000 -0.078871 -0.072114
v 0.000000 0.046403 -0.072114
v 0.000000 -0.078871 0.072114
v 0.000000 0.046403 0.072114
vn 0.0129 0.2028 0.9791
vn 0.0533 0.5668 0.8221
vn 0.9706 0.2406 -0.0005
vn -0.0572 0.3995 0.9149
vn 0.8885 0.4588 -0.0124
vn -0.0081 0.9946 -0.1039
vn -0.9304 0.3665 -0.0071
vn 0.8217 0.5673 0.0549
vn 0.0016 0.2477 -0.9688
vn -0.0070 0.3623 -0.9320
vn 0.9791 0.2029 0.0133
vn -0.1039 0.9946 -0.0084
vn -0.0005 0.2377 0.9713
vn 0.9149 0.3995 -0.0579
vn -0.9893 0.1454 -0.0102
vn -0.0123 0.4540 0.8909
vn -0.7340 0.6742 0.0819
vn -0.9688 0.2477 0.0017
vn -0.9897 0.1429 0.0104
vn -0.0353 0.9994 0.0003
vn 0.9810 0.1939 -0.0108
vn -0.0131 0.3056 -0.9521
vn -0.0131 0.1218 0.9925
vn 0.0171 0.1268 0.9918
vn 0.0088 0.1497 0.9887
vn -0.0100 0.1950 -0.9808
vn 0.0362 0.9979 0.0542
vn -0.0401 0.9977 0.0544
vn -0.9510 0.3092 0.0041
vn 0.9706 0.2406 0.0005
vn -0.0157 0.1115 0.9936
vn 0.0542 0.5674 -0.8217
vn -0.0555 0.4018 -0.9141
vn 0.8885 0.4588 0.0124
vn -0.9304 0.3665 -0.0019
vn 0.0131 0.2029 -0.9791
vn -0.0032 0.9993 0.0366
vn 0.0003 0.9994 -0.0353
vn -0.9509 0.3092 -0.0133
vn -0.0187 0.4765 0.8790
vn -0.0107 0.1918 0.9814
vn 0.0795 0.6736 -0.7349
vn 0.9996 -0.0286 -0.0029
vn -0.0149 0.3276 -0.9447
vn -0.0004 0.9993 -0.0367
vn -0.0107 0.1939 0.9810
vn -0.0007 0.1327 -0.9912
vn -0.9994 0.0329 -0.0104
vn -0.0101 0.1454 -0.9893
vn 0.8208 0.5701 -0.0363
vn 0.0542 0.5674 0.8217
vn -0.0083 0.9946 -0.1039
vn -0.0555 0.4018 0.9141
vn -0.0099 0.1446 -0.9894
vn 0.0808 0.6743 -0.7340
vn 0.0019 0.2453 -0.9694
vn 0.0103 0.1429 -0.9897
vn 0.0131 0.2029 0.9791
vn -0.0100 0.1950 0.9808
vn -0.9510 0.3092 -0.0041
vn -0.9304 0.3665 0.0019
vn -0.9300 0.3675 -0.0072
vn 0.0101 0.1428 -0.9897
vn -0.9994 0.0329 0.0104
vn -0.0007 0.1327 0.9912
vn -0.0187 0.4765 -0.8790
vn -0.0107 0.1918 -0.9814
vn -0.0149 0.3276 0.9447
vn 0.9996 -0.0286 0.0029
vn 0.8208 0.5701 0.0363
vn -0.9300 0.3675 0.0072
vn -0.0004 0.9993 0.0367
vn -0.0038 0.1661 0.9861
vn -0.0107 0.1939 -0.9810
vn 0.0008 0.9994 0.0355
vn -0.9509 0.3092 0.0133
vn -0.0572 0.3995 -0.9149
vn -0.9304 0.3665 0.0071
vn -0.0181 0.4765 -0.8790
vn -0.0104 0.1918 -0.9814
vn -0.0144 0.3276 0.9447
vn -0.0131 0.2057 -0.9785
vn -0.0538 0.5724 -0.8182
vn -0.9706 0.2406 0.0004
vn 0.0613 0.4045 -0.9125
vn -0.8885 0.4588 0.0119
vn 0.0078 0.9950 0.0994
vn 0.9304 0.3665 0.0068
vn -0.0018 0.2511 0.9680
vn -0.0100 0.1467 -0.9891
vn 0.0814 0.6796 -0.7291
vn 0.0104 0.1449 -0.9894
vn -0.0102 0.1978 0.9802
vn 0.0002 0.9995 -0.0330
vn -0.9510 0.3092 -0.0038
vn 0.9706 0.2406 -0.0004
vn 0.0019 0.2487 -0.9686
vn 0.0547 0.5729 0.8178
vn -0.0562 0.4067 0.9118
vn 0.8884 0.4589 -0.0117
vn -0.9304 0.3664 0.0018
vn 0.0133 0.2057 0.9785
vn -0.0077 0.9952 -0.0973
vn -0.0002 0.9994 0.0337
vn 0.9509 0.3093 0.0128
vn 0.0182 0.4834 -0.8752
vn 0.0106 0.1945 -0.9808
vn -0.0801 0.6788 0.7299
vn -0.9996 -0.0286 0.0027
vn 0.0145 0.3330 0.9428
vn 0.0004 0.9994 0.0348
vn 0.0113 0.1966 -0.9804
vn 0.0007 0.1346 0.9909
vn 0.9994 0.0336 0.0098
vn 0.0106 0.1488 0.9888
vn -0.9029 0.4292 0.0253
vn 0.9300 0.3675 0.0068
vn -0.0103 0.1449 0.9894
vn -0.9994 0.0339 -0.0096
vn -0.0007 0.1346 -0.9909
vn -0.0076 0.4823 0.8760
vn 0.0009 0.1940 0.9810
vn -0.0151 0.3319 -0.9432
vn 0.9996 -0.0286 -0.0027
vn 0.8208 0.5702 -0.0344
vn -0.9300 0.3675 -0.0067
vn -0.0006 0.9994 -0.0344
vn -0.1878 0.1911 -0.9634
vn 0.0696 0.7334 -0.6762
vn -0.6762 0.7334 0.0705
vn -0.9630 0.1910 -0.1902
vn -0.6748 0.7319 0.0952
vn 0.0926 0.7320 -0.6749
vn -0.9243 -0.3718 -0.0864
vn -0.1053 0.1664 -0.9804
vn 0.0660 0.7336 -0.6764
vn 0.0940 0.7319 -0.6749
vn -0.9243 -0.3718 0.0864
vn -0.0006 0.1146 0.9934
vn 0.7859 0.3090 0.5356
vn -0.0746 0.7380 0.6706
vn 0.0946 0.7368 -0.6695
vn -0.1068 0.1688 -0.9799
vn 0.0664 0.7385 -0.6710
vn -0.0932 0.7369 0.6696
vn 0.9244 -0.3718 0.0852
vn -0.9244 -0.3718 -0.0852
vn -1.0000 -0.0000 0.0000
vn 0.0000 0.0000 -1.0000
vn 1.0000 -0.0000 0.0000
vn 0.0000 0.0000 1.0000
vn 0.0000 1.0000 0.0000
usemtl Main
s off
f 4//1 50//1 52//1 5//1
f 50//2 49//2 51//2 52//2
f 56//3 50//3 4//3 7//3
f 9//4 48//4 52//4 51//4
f 55//5 49//5 50//5 56//5
f 56//6 1//6 51//6 49//6 55//6
f 54//7 48//7 9//7 53//7
f 21//8 23//8 22//8 20//8
f 58//9 54//9 53//9 57//9
f 25//10 24//10 18//10 19//10
f 13//11 14//11 23//11 21//11
f 27//12 26//12 20//12 22//12 10//12
f 27//13 16//13 13//13 21//13
f 18//14 22//14 23//14 19//14
f 25//15 15//15 17//15 46//15
f 26//16 27//16 21//16 20//16
f 46//17 27//17 47//17
f 46//18 47//18 24//18 25//18
f 16//19 27//19 46//19 17//19
f 24//20 10//20 22//20 18//20
f 23//21 14//21 12//21 19//21
f 25//22 19//22 12//22 11//22
f 32//23 42//23 40//23 28//23
f 28//24 30//24 31//24 29//24
f 41//25 30//25 28//25 40//25
f 34//26 43//26 45//26 38//26
f 33//27 29//27 35//27 39//27
f 31//28 37//28 35//28 29//28
f 32//29 38//29 45//29 42//29
f 30//30 41//30 44//30 36//30
f 28//31 29//31 33//31 32//31
f 36//32 34//32 35//32 37//32
f 39//33 35//33 34//33 38//33
f 31//34 30//34 36//34 37//34
f 32//35 33//35 39//35 38//35
f 44//36 43//36 34//36 36//36
f 106//37 112//37 110//37
f 53//38 9//38 51//38 1//38
f 54//39 2//39 3//39 48//39
f 66//40 67//40 69//40 68//40
f 63//41 62//41 69//41 67//41
f 58//42 57//42 56//42
f 71//43 69//43 62//43 65//43
f 60//44 71//44 70//44 59//44
f 59//45 66//45 68//45 60//45
f 52//46 48//46 3//46 5//46
f 65//47 64//47 70//47 71//47
f 70//48 61//48 63//48 67//48
f 54//49 58//49 8//49 6//49
f 60//50 68//50 69//50 71//50
f 83//51 82//51 84//51 85//51
f 89//3 83//3 75//3 78//3
f 89//52 72//52 84//52 82//52 88//52
f 80//53 81//53 85//53 84//53
f 87//54 91//54 79//54 77//54
f 88//5 82//5 83//5 89//5
f 91//55 90//55 89//55
f 91//56 87//56 86//56 90//56
f 78//57 79//57 91//57 89//57
f 86//38 80//38 84//38 72//38
f 75//58 83//58 85//58 76//58
f 85//59 81//59 74//59 76//59
f 87//60 73//60 74//60 81//60
f 87//61 81//61 80//61 86//61
f 70//62 67//62 66//62 59//62
f 7//63 8//63 58//63 56//63
f 93//64 96//64 100//64 102//64
f 98//65 92//65 93//65 99//65
f 97//66 95//66 94//66 96//66
f 100//67 96//67 94//67 101//67
f 103//68 104//68 93//68 92//68
f 92//69 98//69 101//69 94//69
f 103//70 92//70 94//70 95//70
f 93//71 104//71 97//71 96//71
f 104//72 103//72 95//72 97//72
f 107//73 116//73 115//73 105//73
f 109//74 117//74 119//74 113//74
f 108//75 106//75 110//75 114//75
f 107//76 113//76 119//76 116//76
f 105//30 115//30 118//30 111//30
f 111//32 109//32 110//32 112//32
f 114//77 110//77 109//77 113//77
f 106//34 105//34 111//34 112//34
f 107//78 108//78 114//78 113//78
f 118//36 117//36 109//36 111//36
f 121//64 124//64 128//64 130//64
f 126//65 120//65 121//65 127//65
f 125//79 123//79 122//79 124//79
f 128//80 124//80 122//80 129//80
f 131//81 132//81 121//81 120//81
f 120//69 126//69 129//69 122//69
f 131//70 120//70 122//70 123//70
f 121//71 132//71 125//71 124//71
f 132//72 131//72 123//72 125//72
f 136//82 164//82 166//82 137//82
f 164//83 163//83 165//83 166//83
f 170//84 164//84 136//84 139//84
f 141//85 162//85 166//85 165//85
f 169//86 163//86 164//86 170//86
f 170//87 133//87 165//87 163//87 169//87
f 168//88 162//88 141//88 167//88
f 172//89 168//89 167//89 171//89
f 146//90 142//90 154//90 156//90
f 142//91 143//91 144//91
f 155//92 154//92 142//92 144//92
f 148//93 152//93 159//93 157//93
f 147//94 153//94 149//94 161//94
f 146//95 160//95 159//95 152//95
f 144//96 150//96 158//96 155//96
f 142//97 146//97 147//97 143//97
f 150//98 151//98 149//98 148//98
f 153//99 152//99 148//99 149//99
f 145//100 151//100 150//100 144//100
f 146//101 152//101 153//101 147//101
f 158//102 150//102 148//102 157//102
f 144//103 161//103 149//103 151//103 145//103
f 167//104 141//104 165//104 133//104
f 168//105 134//105 135//105 162//105
f 180//106 181//106 183//106 182//106
f 177//107 176//107 183//107 181//107
f 172//108 171//108 170//108
f 185//109 183//109 176//109 179//109
f 174//110 185//110 184//110 173//110
f 173//111 180//111 182//111 174//111
f 166//112 162//112 135//112 137//112
f 179//113 178//113 184//113 185//113
f 184//114 175//114 177//114 181//114
f 168//115 172//115 140//115 138//115
f 174//116 182//116 183//116 185//116
f 184//117 181//117 180//117 173//117
f 139//118 140//118 172//118 170//118
f 187//119 196//119 194//119 190//119
f 192//120 193//120 187//120 186//120
f 191//121 190//121 188//121 189//121
f 194//122 195//122 188//122 190//122
f 197//123 186//123 187//123 198//123
f 186//124 188//124 195//124 192//124
f 197//125 189//125 188//125 186//125
f 187//126 190//126 191//126 198//126
f 198//127 191//127 189//127 197//127
usemtl Highlights
f 6//128 2//128 54//128
f 53//129 1//129 57//129
f 24//130 47//130 10//130
f 15//131 25//131 11//131
f 47//132 27//132 10//132
f 57//133 1//133 56//133
f 64//134 61//134 70//134
f 77//135 73//135 87//135
f 86//136 72//136 90//136
f 90//137 72//137 89//137
f 99//138 93//138 102//138
f 105//139 106//139 108//139 107//139
f 127//138 121//138 130//138
f 138//140 134//140 168//140
f 167//141 133//141 171//141
f 143//142 161//142 144//142
f 156//143 160//143 146//143
f 147//144 161//144 143//144
f 171//145 133//145 170//145
f 178//146 175//146 184//146
f 193//147 196//147 187//147
f 199//148 200//148 202//148 201//148
f 201//149 202//149 206//149 205//149
f 205//150 206//150 204//150 203//150
f 203//151 204//151 200//151 199//151
f 206//152 202//152 200//152 204//152
f 211//150 212//150 210//150 209//150
f 209//151 210//151 208//151 207//151
f 210//152 212//152 214//152 208//152
f 207//148 208//148 214//148 213//148
f 219//149 220//149 218//149 217//149
f 217//150 218//150 216//150 215//150
f 218//152 220//152 222//152 216//152
f 215//151 216//151 222//151 221//151
