# Blender v2.79 (sub 0) OBJ File: 'Torch.blend'
# www.blender.org
mtllib Torch.mtl
o Torch_Cylinder.042
v 0.012359 -0.160661 0.021406
v -0.038064 0.270785 0.000000
v 0.024718 -0.160661 0.000000
v -0.019032 0.270785 -0.032965
v 0.012359 -0.160661 -0.021406
v 0.019032 0.270785 -0.032965
v -0.012359 -0.160661 0.021406
v 0.038064 0.270785 0.000000
v -0.012359 -0.160661 -0.021406
v 0.019032 0.270785 0.032965
v -0.024718 -0.160661 0.000000
v -0.019032 0.270785 0.032965
v -0.031604 -0.270785 0.000000
v -0.038064 -0.230985 0.000000
v -0.015802 -0.270785 -0.027370
v -0.019032 -0.230985 -0.032965
v 0.015802 -0.270785 -0.027370
v 0.019032 -0.230985 -0.032965
v 0.031604 -0.270785 0.000000
v 0.038064 -0.230985 0.000000
v 0.015802 -0.270785 0.027370
v 0.019032 -0.230985 0.032965
v -0.015802 -0.270785 0.027370
v -0.019032 -0.230985 0.032965
v 0.009865 -0.118742 0.017086
v 0.019729 -0.118742 0.000000
v 0.009865 -0.118742 -0.017086
v -0.009865 -0.118742 -0.017086
v -0.019729 -0.118742 0.000000
v -0.009865 -0.118742 0.017086
v -0.039810 0.292543 -0.068954
v -0.079621 0.292543 -0.000000
v 0.039810 0.292543 -0.068954
v 0.079621 0.292543 -0.000000
v 0.039810 0.292543 0.068954
v -0.039810 0.292543 0.068954
v -0.039810 0.319740 -0.068954
v -0.079621 0.319740 -0.000000
v 0.039810 0.319740 -0.068954
v 0.079621 0.319740 -0.000000
v 0.039810 0.319740 0.068954
v -0.039810 0.319740 0.068954
v -0.051990 0.319740 -0.090050
v -0.103981 0.319740 -0.000000
v 0.051990 0.319740 -0.090050
v 0.103981 0.319740 -0.000000
v 0.051990 0.319740 0.090050
v -0.051990 0.319740 0.090050
v -0.069569 0.393172 -0.120496
v -0.139137 0.393172 -0.000000
v 0.069569 0.393172 -0.120496
v 0.139137 0.393172 -0.000000
v 0.069569 0.393172 0.120496
v -0.069569 0.393172 0.120496
v -0.052548 0.393172 -0.091015
v -0.105095 0.393172 -0.000000
v 0.052548 0.393172 -0.091015
v 0.105095 0.393172 -0.000000
v 0.052547 0.393172 0.091015
v -0.052547 0.393172 0.091015
v -0.044692 0.364456 -0.077409
v -0.089384 0.364456 0.000000
v 0.044692 0.364456 -0.077409
v 0.089384 0.364456 0.000000
v 0.044692 0.364456 0.077409
v -0.044692 0.364456 0.077409
v -0.013625 0.384689 0.114820
v 0.020990 0.384689 0.114548
v -0.015007 0.384689 0.097985
v 0.019608 0.384689 0.097712
v -0.013625 0.572671 0.114820
v 0.020990 0.572671 0.114548
v -0.015007 0.572671 0.097985
v 0.019608 0.572671 0.097712
v 0.092625 0.384689 0.069209
v 0.109696 0.384689 0.039096
v 0.077354 0.384689 0.061989
v 0.094425 0.384689 0.031875
v 0.092625 0.572671 0.069209
v 0.109696 0.572671 0.039096
v 0.077354 0.572671 0.061989
v 0.094425 0.572671 0.031875
v 0.106249 0.384689 -0.045611
v 0.088706 0.384689 -0.075452
v 0.092361 0.384689 -0.035996
v 0.074818 0.384689 -0.065837
v 0.106249 0.572671 -0.045611
v 0.088706 0.572671 -0.075452
v 0.092361 0.572671 -0.035996
v 0.074818 0.572671 -0.065837
v 0.013624 0.384689 -0.114820
v -0.020990 0.384689 -0.114548
v 0.015007 0.384689 -0.097985
v -0.019608 0.384689 -0.097712
v 0.013624 0.572671 -0.114820
v -0.020990 0.572671 -0.114548
v 0.015007 0.572671 -0.097985
v -0.019608 0.572671 -0.097712
v -0.092625 0.384689 -0.069209
v -0.109696 0.384689 -0.039096
v -0.077354 0.384689 -0.061989
v -0.094425 0.384689 -0.031875
v -0.092625 0.572671 -0.069209
v -0.109696 0.572671 -0.039096
v -0.077354 0.572671 -0.061989
v -0.094425 0.572671 -0.031875
v -0.106249 0.384689 0.045611
v -0.088706 0.384689 0.075452
v -0.092361 0.384689 0.035996
v -0.074818 0.384689 0.065837
v -0.106249 0.572671 0.045611
v -0.088706 0.572671 0.075452
v -0.092361 0.572671 0.035996
v -0.074818 0.572671 0.065837
v -0.018835 0.438250 0.122975
v -0.017099 0.438250 0.144104
v 0.024608 0.438250 0.122633
v 0.026344 0.438250 0.143762
v -0.115917 0.438250 0.045176
v -0.133347 0.438250 0.057244
v -0.093899 0.438250 0.082628
v -0.111330 0.438250 0.094696
v -0.097082 0.438250 -0.077799
v -0.116248 0.438250 -0.086860
v -0.118508 0.438250 -0.040005
v -0.137674 0.438250 -0.049067
v 0.018835 0.438250 -0.122975
v 0.017099 0.438250 -0.144104
v -0.024609 0.438250 -0.122633
v -0.026344 0.438250 -0.143762
v 0.097082 0.438250 0.077799
v 0.116248 0.438250 0.086861
v 0.118508 0.438250 0.040005
v 0.137674 0.438250 0.049067
v 0.115917 0.438250 -0.045176
v 0.133347 0.438250 -0.057244
v 0.093899 0.438250 -0.082628
v 0.111330 0.438250 -0.094696
v -0.033150 0.166374 0.000000
v -0.016575 0.166374 0.028709
v 0.016575 0.166374 0.028709
v 0.033150 0.166374 0.000000
v 0.016575 0.166374 -0.028709
v -0.016575 0.166374 -0.028709
v 0.015894 0.137456 0.027530
v 0.031789 0.137456 0.000000
v 0.015894 0.137456 -0.027530
v -0.015894 0.137456 -0.027530
v -0.031789 0.137456 0.000000
v -0.015894 0.137456 0.027530
v -0.017183 -0.158816 -0.029761
v 0.017183 -0.158816 0.029761
v 0.034365 -0.158816 0.000000
v 0.017183 -0.158816 -0.029761
v -0.034365 -0.158816 0.000000
v -0.017183 -0.158816 0.029761
v -0.038902 0.140314 0.000000
v -0.040567 0.163516 0.000000
v -0.019451 0.140314 0.033690
v -0.020284 0.163516 0.035132
v -0.020284 0.163516 -0.035132
v 0.020284 0.163516 -0.035132
v 0.020284 0.163516 0.035132
v 0.040567 0.163516 0.000000
v 0.019451 0.140314 0.033690
v 0.038902 0.140314 0.000000
v 0.019451 0.140314 -0.033690
v -0.019451 0.140314 -0.033690
v 0.013715 -0.120587 0.023755
v 0.027430 -0.120587 0.000000
v 0.013715 -0.120587 -0.023755
v -0.013715 -0.120587 -0.023755
v -0.027430 -0.120587 0.000000
v -0.013715 -0.120588 0.023755
v -0.017183 -0.158816 -0.288172
v 0.017183 -0.158816 -0.288172
v -0.013715 -0.120587 -0.282166
v 0.013715 -0.120587 -0.282166
v -0.020284 0.163516 -0.293543
v 0.020284 0.163516 -0.293543
v 0.019451 0.140314 -0.292101
v -0.019451 0.140314 -0.292101
v -0.032834 0.364456 -0.056870
v -0.065667 0.364456 0.000000
v 0.032834 0.364456 -0.056870
v 0.065667 0.364456 0.000000
v 0.032834 0.364456 0.056870
v -0.032834 0.364456 0.056870
v -0.048510 0.500193 -0.051287
v -0.091702 0.516750 0.028834
v 0.037876 0.467078 -0.051287
v 0.081069 0.450521 0.028834
v 0.037876 0.467078 0.108954
v -0.048510 0.500193 0.108954
v -0.020834 0.573472 -0.049285
v -0.058075 0.593739 0.000386
v 0.041993 0.558821 -0.039135
v 0.067580 0.564439 0.020687
v 0.030339 0.584706 0.070359
v -0.032488 0.599356 0.060208
v -0.044059 0.731260 -0.027701
v -0.070371 0.714411 0.008489
v 0.002999 0.722903 -0.028959
v 0.023745 0.697697 0.005973
v -0.002568 0.680848 0.042162
v -0.049626 0.689205 0.043420
v -0.003585 0.899651 0.088556
vn -0.4994 -0.0470 0.8651
vn -0.3903 -0.6250 0.6761
vn -0.7806 -0.6250 0.0000
vn -0.9989 -0.0470 0.0000
vn 0.4994 -0.0470 -0.8651
vn 0.3903 -0.6250 -0.6761
vn 0.7806 -0.6250 0.0000
vn 0.9989 -0.0470 0.0000
vn 0.3903 -0.6250 0.6761
vn 0.4994 -0.0470 0.8651
vn -0.4451 -0.4557 0.7709
vn -0.8901 -0.4557 0.0000
vn -0.9999 0.0126 0.0000
vn -0.9825 0.1865 0.0000
vn -0.4912 0.1865 -0.8508
vn -0.5000 0.0126 -0.8660
vn -0.4994 -0.0470 -0.8651
vn -0.3903 -0.6250 -0.6761
vn -0.4935 -0.1602 -0.8548
vn -0.9871 -0.1602 -0.0000
vn 0.5000 0.0126 -0.8660
vn 0.4935 -0.1602 -0.8548
vn 0.9999 0.0126 -0.0000
vn 0.9871 -0.1602 0.0000
vn 0.5000 0.0126 0.8660
vn 0.4935 -0.1602 0.8548
vn -0.5000 0.0126 0.8660
vn -0.4935 -0.1602 0.8548
vn 0.0000 -1.0000 0.0000
vn 0.4912 0.1865 -0.8508
vn 0.4912 0.1865 0.8508
vn -0.4912 0.1865 0.8508
vn 0.9825 0.1865 0.0000
vn -0.0939 -0.9822 0.1627
vn 0.0939 -0.9822 0.1627
vn -0.0939 -0.9822 -0.1627
vn -0.1878 -0.9822 0.0000
vn -0.0540 -0.9942 -0.0935
vn 0.1165 0.9725 0.2018
vn -0.1165 0.9725 0.2018
vn -0.3962 0.6100 0.6863
vn 0.3962 0.6100 0.6863
vn 0.1878 -0.9822 0.0000
vn 0.0939 -0.9822 -0.1627
vn 0.0540 -0.9942 -0.0935
vn -0.2330 0.9725 0.0000
vn -0.7924 0.6100 0.0000
vn -0.5000 -0.0000 0.8660
vn -1.0000 0.0000 -0.0000
vn 0.8901 -0.4557 0.0000
vn 0.4451 -0.4557 0.7709
vn -0.4451 -0.4557 -0.7709
vn 0.4451 -0.4557 -0.7709
vn 1.0000 0.0000 -0.0000
vn 0.5000 -0.0000 0.8660
vn -0.5000 0.0000 -0.8660
vn 0.5000 0.0000 -0.8660
vn -0.9020 -0.4318 0.0000
vn -0.4510 -0.4318 0.7811
vn 0.0000 1.0000 0.0000
vn -0.1818 0.9315 -0.3149
vn 0.1818 0.9315 -0.3149
vn 0.4510 -0.4318 0.7811
vn 0.9020 -0.4318 0.0000
vn 0.4510 -0.4318 -0.7811
vn -0.4510 -0.4318 -0.7811
vn 0.3637 0.9315 0.0000
vn 0.3071 0.7892 -0.5319
vn 0.6141 0.7892 -0.0000
vn -0.1818 0.9315 0.3149
vn -0.3637 0.9315 -0.0000
vn 0.1818 0.9315 0.3149
vn -0.3071 0.7892 -0.5319
vn -0.6141 0.7892 -0.0000
vn 0.3071 0.7892 0.5319
vn -0.3071 0.7892 0.5319
vn 0.0042 -0.8445 0.5355
vn 0.0040 -0.8613 0.5081
vn -0.9964 -0.0239 0.0818
vn -0.9957 0.0436 0.0818
vn -0.9959 -0.0377 0.0818
vn -0.0078 0.1219 -0.9925
vn -0.0077 -0.1826 -0.9832
vn -0.0078 0.1211 -0.9926
vn 0.9965 -0.0191 -0.0818
vn 0.9964 0.0219 -0.0818
vn 0.9966 -0.0119 -0.0818
vn 0.0078 -0.1366 0.9906
vn 0.0077 0.2127 0.9771
vn 0.0078 -0.1383 0.9904
vn 0.4659 -0.8445 0.2641
vn 0.4420 -0.8613 0.2506
vn -0.4273 -0.0239 0.9038
vn -0.4270 0.0436 0.9032
vn -0.4271 -0.0377 0.9034
vn -0.8634 0.1219 -0.4895
vn -0.8553 -0.1826 -0.4849
vn -0.8635 0.1211 -0.4895
vn 0.4274 -0.0191 -0.9039
vn 0.4273 0.0219 -0.9038
vn 0.4274 -0.0119 -0.9040
vn 0.8618 -0.1366 0.4885
vn 0.8500 0.2127 0.4819
vn 0.8616 -0.1383 0.4884
vn 0.4617 -0.8445 -0.2714
vn 0.4380 -0.8613 -0.2575
vn 0.5690 -0.0239 0.8220
vn 0.5687 0.0436 0.8214
vn 0.5688 -0.0377 0.8216
vn -0.8556 0.1219 0.5030
vn -0.8476 -0.1826 0.4983
vn -0.8557 0.1211 0.5031
vn -0.5691 -0.0191 -0.8220
vn -0.5691 0.0219 -0.8220
vn -0.5692 -0.0119 -0.8221
vn 0.8540 -0.1366 -0.5020
vn 0.8423 0.2127 -0.4952
vn 0.8538 -0.1383 -0.5019
vn -0.0042 -0.8445 -0.5355
vn -0.0040 -0.8613 -0.5081
vn 0.9964 -0.0239 -0.0818
vn 0.9957 0.0436 -0.0818
vn 0.9959 -0.0377 -0.0818
vn 0.0078 0.1219 0.9925
vn 0.0077 -0.1826 0.9832
vn 0.0078 0.1211 0.9926
vn -0.9965 -0.0191 0.0818
vn -0.9964 0.0219 0.0818
vn -0.9966 -0.0119 0.0818
vn -0.0078 -0.1366 -0.9906
vn -0.0077 0.2127 -0.9771
vn -0.0078 -0.1383 -0.9904
vn -0.4659 -0.8445 -0.2641
vn -0.4420 -0.8613 -0.2506
vn 0.4273 -0.0239 -0.9038
vn 0.4270 0.0436 -0.9032
vn 0.4271 -0.0377 -0.9034
vn 0.8634 0.1219 0.4895
vn 0.8553 -0.1826 0.4849
vn 0.8635 0.1211 0.4895
vn -0.4274 -0.0191 0.9039
vn -0.4273 0.0219 0.9038
vn -0.4274 -0.0119 0.9040
vn -0.8618 -0.1366 -0.4885
vn -0.8500 0.2127 -0.4819
vn -0.8616 -0.1383 -0.4884
vn -0.4617 -0.8445 0.2714
vn -0.4380 -0.8613 0.2575
vn -0.5690 -0.0239 -0.8220
vn -0.5687 0.0436 -0.8214
vn -0.5688 -0.0377 -0.8216
vn 0.8556 0.1219 -0.5030
vn 0.8476 -0.1826 -0.4983
vn 0.8557 0.1211 -0.5031
vn 0.5691 -0.0191 0.8220
vn 0.5691 0.0219 0.8220
vn 0.5692 -0.0119 0.8221
vn -0.8540 -0.1366 0.5020
vn -0.8423 0.2127 0.4952
vn -0.8538 -0.1383 0.5019
vn 0.9951 -0.0549 -0.0817
vn -0.0071 0.4224 -0.9064
vn -0.9907 -0.1088 0.0814
vn 0.5684 -0.0549 0.8210
vn 0.7814 0.4224 -0.4594
vn -0.5658 -0.1088 -0.8173
vn -0.4268 -0.0549 0.9027
vn 0.7885 0.4224 0.4470
vn 0.4249 -0.1088 -0.8987
vn -0.9951 -0.0549 0.0817
vn 0.0071 0.4224 0.9064
vn 0.9907 -0.1088 -0.0814
vn 0.4268 -0.0549 -0.9027
vn -0.7885 0.4224 -0.4470
vn -0.4249 -0.1088 0.8987
vn -0.5684 -0.0549 -0.8210
vn -0.7814 0.4224 0.4594
vn 0.5658 -0.1088 0.8173
vn 0.3595 0.9331 -0.0000
vn 0.1798 0.9331 0.3113
vn 0.1797 0.9331 0.3113
vn 0.7350 -0.6781 -0.0000
vn 0.3675 -0.6781 -0.6365
vn 0.6368 -0.7153 -0.2879
vn 0.8541 -0.5200 -0.0000
vn -0.3675 -0.6781 -0.6365
vn -0.6368 -0.7153 -0.2879
vn -0.1797 0.9331 0.3113
vn -0.7350 -0.6781 0.0000
vn -0.3675 -0.6781 0.6365
vn -0.4271 -0.5200 0.7397
vn -0.8541 -0.5200 0.0000
vn -0.3595 0.9331 0.0000
vn -0.9839 0.1785 0.0000
vn -0.5913 0.7701 -0.2394
vn -0.9637 0.1245 -0.2361
vn 0.3675 -0.6781 0.6365
vn 0.2330 0.9725 0.0000
vn 0.7924 0.6100 0.0000
vn -0.4920 0.1785 0.8521
vn 0.9637 0.1245 -0.2361
vn 0.5913 0.7701 -0.2394
vn 0.9839 0.1785 0.0000
vn 0.4920 0.1785 0.8521
vn -0.1051 0.9777 -0.1820
vn 0.1051 0.9777 -0.1820
vn -0.9974 -0.0716 0.0000
vn -0.9669 -0.0503 -0.2503
vn 0.4271 -0.5200 0.7397
vn 0.4987 -0.0716 0.8638
vn -0.4987 -0.0716 0.8638
vn 0.9974 -0.0716 0.0000
vn 0.9669 -0.0503 -0.2503
vn -0.1798 0.9331 -0.3113
vn 0.1797 0.9331 -0.3113
vn -0.1165 0.9725 -0.2018
vn 0.1165 0.9725 -0.2018
vn 0.0000 0.1552 -0.9879
vn 0.0000 -0.0621 -0.9981
vn 0.9994 -0.0359 -0.0000
vn -0.9959 0.0903 0.0000
vn -0.9994 -0.0359 0.0000
vn 0.9959 0.0903 -0.0000
vn -0.5506 -0.3627 0.7519
vn 0.4712 -0.3992 0.7865
vn 0.4502 -0.0787 0.8894
vn -0.4922 0.0639 0.8681
vn -0.9915 0.1240 0.0388
vn -0.4853 0.2833 0.8272
vn -0.9771 0.1381 -0.1620
vn 0.9847 -0.1483 -0.0913
vn 0.4922 0.0250 -0.8701
vn 0.5317 0.0456 -0.8457
vn 0.9956 -0.0542 0.0764
vn -0.4713 -0.0087 -0.8819
vn -0.9829 -0.1711 -0.0682
vn -0.5208 0.0738 -0.8505
vn 0.4943 0.3329 0.8030
vn 0.4364 0.1221 0.8914
vn -0.5987 -0.0391 0.8000
vn 0.9741 0.2190 0.0565
vn -0.3335 0.1235 -0.9346
vn 0.6052 0.1322 -0.7851
vn 0.9763 0.2131 0.0376
vn 0.0964 0.9154 0.3909
vn 0.5169 0.3255 -0.7918
vn -0.9920 0.1121 -0.0583
vn -0.4476 0.3455 -0.8248
usemtl DarkMetal
s 1
f 140//1 12//2 2//3 139//4
f 143//5 6//6 8//7 142//8
f 142//8 8//7 10//9 141//10
f 141//10 10//9 12//2 140//1
f 2//3 12//2 36//11 32//12
f 14//13 11//14 9//15 16//16
f 144//17 4//18 6//6 143//5
f 139//4 2//3 4//18 144//17
f 14//13 16//16 15//19 13//20
f 16//16 18//21 17//22 15//19
f 18//21 20//23 19//24 17//22
f 20//23 22//25 21//26 19//24
f 22//25 24//27 23//28 21//26
f 24//27 14//13 13//20 23//28
f 13//29 15//29 17//29 19//29 21//29 23//29
f 16//16 9//15 5//30 18//21
f 22//25 1//31 7//32 24//27
f 20//23 3//33 1//31 22//25
f 18//21 5//30 3//33 20//23
f 24//27 7//32 11//14 14//13
f 7//34 1//35 152//35 156//34
f 9//36 11//37 155//37 151//38
f 25//39 30//40 174//41 169//42
f 1//35 3//43 153//43 152//35
f 3//43 5//44 154//45 153//43
f 30//40 29//46 173//47 174//41
f 32//12 36//11 42//48 38//49
f 10//9 8//7 34//50 35//51
f 6//6 4//18 31//52 33//53
f 12//2 10//9 35//51 36//11
f 4//18 2//3 32//12 31//52
f 8//7 6//6 33//53 34//50
f 42//29 41//29 47//29 48//29
f 35//51 34//50 40//54 41//55
f 33//53 31//52 37//56 39//57
f 36//11 35//51 41//55 42//48
f 34//50 33//53 39//57 40//54
f 31//52 32//12 38//49 37//56
f 44//58 48//59 54//59 50//58
f 40//29 39//29 45//29 46//29
f 37//29 38//29 44//29 43//29
f 38//29 42//29 48//29 44//29
f 41//29 40//29 46//29 47//29
f 39//29 37//29 43//29 45//29
f 54//60 53//60 59//61 60//62
f 47//63 46//64 52//64 53//63
f 45//65 43//66 49//66 51//65
f 48//59 47//63 53//63 54//59
f 46//64 45//65 51//65 52//64
f 43//66 44//58 50//58 49//66
f 56//67 60//62 66//68 62//69
f 52//60 51//60 57//70 58//71
f 49//60 50//60 56//67 55//72
f 50//60 54//60 60//62 56//67
f 53//60 52//60 58//71 59//61
f 51//60 49//60 55//72 57//70
f 66//68 65//73 187//60 188//60
f 59//61 58//71 64//74 65//73
f 57//70 55//72 61//75 63//76
f 60//62 59//61 65//73 66//68
f 58//71 57//70 63//76 64//74
f 55//72 56//67 62//69 61//75
f 68//77 67//78 69//29 70//29
f 72//60 74//60 73//60 71//60
f 116//79 71//80 73//80 115//81
f 115//82 73//83 74//83 117//84
f 117//85 74//86 72//86 118//87
f 118//88 72//89 71//89 116//90
f 76//91 75//92 77//29 78//29
f 80//60 82//60 81//60 79//60
f 132//93 79//94 81//94 131//95
f 131//96 81//97 82//97 133//98
f 133//99 82//100 80//100 134//101
f 134//102 80//103 79//103 132//104
f 84//105 83//106 85//29 86//29
f 88//60 90//60 89//60 87//60
f 136//107 87//108 89//108 135//109
f 135//110 89//111 90//111 137//112
f 137//113 90//114 88//114 138//115
f 138//116 88//117 87//117 136//118
f 92//119 91//120 93//29 94//29
f 96//60 98//60 97//60 95//60
f 128//121 95//122 97//122 127//123
f 127//124 97//125 98//125 129//126
f 129//127 98//128 96//128 130//129
f 130//130 96//131 95//131 128//132
f 100//133 99//134 101//29 102//29
f 104//60 106//60 105//60 103//60
f 124//135 103//136 105//136 123//137
f 123//138 105//139 106//139 125//140
f 125//141 106//142 104//142 126//143
f 126//144 104//145 103//145 124//146
f 108//147 107//148 109//29 110//29
f 112//60 114//60 113//60 111//60
f 120//149 111//150 113//150 119//151
f 119//152 113//153 114//153 121//154
f 121//155 114//156 112//156 122//157
f 122//158 112//159 111//159 120//160
f 68//77 118//88 116//90 67//78
f 70//161 117//85 118//87 68//161
f 69//162 115//82 117//84 70//162
f 67//163 116//79 115//81 69//163
f 108//147 122//158 120//160 107//148
f 110//164 121//155 122//157 108//164
f 109//165 119//152 121//154 110//165
f 107//166 120//149 119//151 109//166
f 100//133 126//144 124//146 99//134
f 102//167 125//141 126//143 100//167
f 101//168 123//138 125//140 102//168
f 99//169 124//135 123//137 101//169
f 92//119 130//130 128//132 91//120
f 94//170 129//127 130//129 92//170
f 93//171 127//124 129//126 94//171
f 91//172 128//121 127//123 93//172
f 76//91 134//102 132//104 75//92
f 78//173 133//99 134//101 76//173
f 77//174 131//96 133//98 78//174
f 75//175 132//93 131//95 77//175
f 84//105 138//116 136//118 83//106
f 86//176 137//113 138//115 84//176
f 85//177 135//110 137//112 86//177
f 83//178 136//107 135//109 85//178
f 142//179 141//180 163//181 164//179
f 146//182 147//183 167//184 166//185
f 147//183 148//186 168//187 167//184
f 141//180 140//188 160//188 163//181
f 149//189 150//190 159//191 157//192
f 140//188 139//193 158//193 160//188
f 155//194 173//47 172//195 151//196
f 30//1 150//190 149//189 29//4
f 27//5 147//183 146//182 26//8
f 26//8 146//182 145//197 25//10
f 25//10 145//197 150//190 30//1
f 28//17 148//186 147//183 27//5
f 26//198 25//39 169//42 170//199
f 156//200 174//41 173//47 155//194
f 154//201 171//202 170//199 153//203
f 153//203 170//199 169//42 152//204
f 152//204 169//42 174//41 156//200
f 161//205 162//206 180//60 179//60
f 157//192 158//207 161//208 168//187
f 172//195 171//202 178//60 177//60
f 165//209 163//210 160//211 159//191
f 166//185 164//212 163//210 165//209
f 167//184 162//213 164//212 166//185
f 159//191 160//211 158//207 157//192
f 148//186 149//189 157//192 168//187
f 139//193 144//214 161//205 158//193
f 145//197 146//182 166//185 165//209
f 143//215 142//179 164//179 162//206
f 144//214 143//215 162//206 161//205
f 150//190 145//197 165//209 159//191
f 29//4 149//189 148//186 28//17
f 11//37 7//34 156//34 155//37
f 29//46 28//216 172//195 173//47
f 5//44 9//36 151//38 154//45
f 27//217 26//198 170//199 171//202
f 28//216 27//217 171//202 172//195
f 175//218 177//218 178//218 176//218
f 182//219 179//219 180//219 181//219
f 162//213 167//184 181//220 180//220
f 151//196 172//195 177//221 175//221
f 154//45 151//38 175//29 176//29
f 168//187 161//208 179//222 182//222
f 171//202 154//201 176//223 178//223
f 167//184 168//187 182//29 181//29
f 64//74 63//76 185//60 186//60
f 61//75 62//69 184//60 183//60
f 62//69 66//68 188//60 184//60
f 65//73 64//74 186//60 187//60
f 63//76 61//75 183//60 185//60
usemtl Fire
f 188//224 187//225 193//226 194//227
f 190//228 194//227 200//229 196//230
f 186//231 185//232 191//233 192//234
f 183//235 184//236 190//228 189//237
f 184//236 188//224 194//227 190//228
f 187//225 186//231 192//234 193//226
f 185//232 183//235 189//237 191//233
f 200//229 199//238 205//239 206//240
f 193//226 192//234 198//241 199//238
f 191//233 189//237 195//242 197//243
f 194//227 193//226 199//238 200//229
f 192//234 191//233 197//243 198//241
f 189//237 190//228 196//230 195//242
f 205//239 204//244 207//245
f 198//241 197//243 203//246 204//244
f 195//242 196//230 202//247 201//248
f 196//230 200//229 206//240 202//247
f 199//238 198//241 204//244 205//239
f 197//243 195//242 201//248 203//246
f 203//246 201//248 207//245
f 206//240 205//239 207//245
f 204//244 203//246 207//245
f 201//248 202//247 207//245
f 202//247 206//240 207//245
