# Blender v2.76 (sub 0) OBJ File: 'Bars.blend'
# www.blender.org
mtllib Bars.mtl
o Bars_Cube.025
v -0.064734 -0.013713 0.614665
v -0.064734 0.400336 0.614665
v -0.064734 -0.013713 0.504755
v -0.064734 0.400336 0.504755
v 0.064734 -0.013713 0.614665
v 0.064734 0.400336 0.614665
v 0.064734 -0.013713 0.504755
v 0.064734 0.400336 0.504755
v -0.064734 0.484095 0.614665
v -0.064734 0.484095 0.504755
v 0.064734 0.484095 0.504755
v 0.064734 0.484095 0.614665
v -0.064734 0.902891 0.614665
v -0.064734 0.902891 0.504755
v 0.064734 0.902891 0.504755
v 0.064734 0.902891 0.614665
v -0.064734 0.986650 0.614665
v -0.064734 0.986650 0.504755
v 0.064734 0.986650 0.504755
v 0.064734 0.986650 0.614665
v -0.064734 1.405445 0.614665
v -0.064734 1.405445 0.504755
v 0.064734 1.405445 0.504755
v 0.064734 1.405445 0.614665
v -0.064734 1.489204 0.614665
v -0.064734 1.489204 0.504755
v 0.064734 1.489204 0.504755
v 0.064734 1.489204 0.614665
v -0.064734 1.908000 0.614665
v -0.064734 1.908000 0.504755
v 0.064734 1.908000 0.504755
v 0.064734 1.908000 0.614665
v -0.064734 1.991759 0.614665
v -0.064734 1.991759 0.504755
v 0.064734 1.991759 0.504755
v 0.064734 1.991759 0.614665
v -0.064734 2.410554 0.614665
v -0.064734 2.410554 0.504755
v 0.064734 2.410554 0.504755
v 0.064734 2.410554 0.614665
v 0.064734 0.400336 0.775377
v -0.064734 0.400336 0.775377
v 0.064734 0.484095 0.775377
v -0.064734 0.484095 0.775377
v 0.064734 0.902891 0.775377
v -0.064734 0.902891 0.775377
v 0.064734 0.986650 0.775377
v -0.064734 0.986650 0.775377
v 0.064734 1.405445 0.775377
v -0.064734 1.405445 0.775377
v 0.064734 1.489204 0.775377
v -0.064734 1.489204 0.775377
v 0.064734 1.908000 0.775377
v -0.064734 1.908000 0.775377
v 0.064734 1.991759 0.775377
v -0.064734 1.991759 0.775377
v -0.064734 -0.013713 0.122919
v -0.064734 0.400336 0.122919
v -0.064734 -0.013713 0.232829
v -0.064734 0.400336 0.232829
v 0.064734 -0.013713 0.122919
v 0.064734 0.400336 0.122919
v 0.064734 -0.013713 0.232829
v 0.064734 0.400336 0.232829
v -0.064734 0.484095 0.122919
v -0.064734 0.484095 0.232829
v 0.064734 0.484095 0.232829
v 0.064734 0.484095 0.122919
v -0.064734 0.902891 0.122919
v -0.064734 0.902891 0.232829
v 0.064734 0.902891 0.232829
v 0.064734 0.902891 0.122919
v -0.064734 0.986650 0.122919
v -0.064734 0.986650 0.232829
v 0.064734 0.986650 0.232829
v 0.064734 0.986650 0.122919
v -0.064734 1.405445 0.122919
v -0.064734 1.405445 0.232829
v 0.064734 1.405445 0.232829
v 0.064734 1.405445 0.122919
v -0.064734 1.489204 0.122919
v -0.064734 1.489204 0.232829
v 0.064734 1.489204 0.232829
v 0.064734 1.489204 0.122919
v -0.064734 1.908000 0.122919
v -0.064734 1.908000 0.232829
v 0.064734 1.908000 0.232829
v 0.064734 1.908000 0.122919
v -0.064734 1.991759 0.122919
v -0.064734 1.991759 0.232829
v 0.064734 1.991759 0.232829
v 0.064734 1.991759 0.122919
v -0.064734 2.410554 0.122919
v -0.064734 2.410554 0.232829
v 0.064734 2.410554 0.232829
v 0.064734 2.410554 0.122919
v -0.064734 0.400336 0.368792
v 0.064734 0.400336 0.368792
v -0.064734 0.484095 0.368792
v 0.064734 0.484095 0.368792
v -0.064734 0.902891 0.368792
v 0.064734 0.902891 0.368792
v -0.064734 0.986650 0.368792
v 0.064734 0.986650 0.368792
v -0.064734 1.405445 0.368792
v 0.064734 1.405445 0.368792
v -0.064734 1.489204 0.368792
v 0.064734 1.489204 0.368792
v -0.064734 1.908000 0.368792
v 0.064734 1.908000 0.368792
v -0.064734 1.991759 0.368792
v 0.064734 1.991759 0.368792
v -0.064734 -0.013713 -0.614662
v -0.064734 0.400336 -0.614662
v -0.064734 -0.013713 -0.504752
v -0.064734 0.400336 -0.504752
v 0.064734 -0.013713 -0.614662
v 0.064734 0.400336 -0.614662
v 0.064734 -0.013713 -0.504752
v 0.064734 0.400336 -0.504752
v -0.064734 0.484095 -0.614662
v -0.064734 0.484095 -0.504752
v 0.064734 0.484095 -0.504752
v 0.064734 0.484095 -0.614662
v -0.064734 0.902891 -0.614662
v -0.064734 0.902891 -0.504752
v 0.064734 0.902891 -0.504752
v 0.064734 0.902891 -0.614662
v -0.064734 0.986650 -0.614662
v -0.064734 0.986650 -0.504752
v 0.064734 0.986650 -0.504752
v 0.064734 0.986650 -0.614662
v -0.064734 1.405445 -0.614662
v -0.064734 1.405445 -0.504752
v 0.064734 1.405445 -0.504752
v 0.064734 1.405445 -0.614662
v -0.064734 1.489204 -0.614662
v -0.064734 1.489204 -0.504752
v 0.064734 1.489204 -0.504752
v 0.064734 1.489204 -0.614662
v -0.064734 1.908000 -0.614662
v -0.064734 1.908000 -0.504752
v 0.064734 1.908000 -0.504752
v 0.064734 1.908000 -0.614662
v -0.064734 1.991759 -0.614662
v -0.064734 1.991759 -0.504752
v 0.064734 1.991759 -0.504752
v 0.064734 1.991759 -0.614662
v -0.064734 2.410554 -0.614662
v -0.064734 2.410554 -0.504752
v 0.064734 2.410554 -0.504752
v 0.064734 2.410554 -0.614662
v 0.064734 0.400336 -0.775374
v -0.064734 0.400336 -0.775374
v 0.064734 0.484095 -0.775374
v -0.064734 0.484095 -0.775374
v 0.064734 0.902891 -0.775374
v -0.064734 0.902891 -0.775374
v 0.064734 0.986650 -0.775374
v -0.064734 0.986650 -0.775374
v 0.064734 1.405445 -0.775374
v -0.064734 1.405445 -0.775374
v 0.064734 1.489204 -0.775374
v -0.064734 1.489204 -0.775374
v 0.064734 1.908000 -0.775374
v -0.064734 1.908000 -0.775374
v 0.064734 1.991759 -0.775374
v -0.064734 1.991759 -0.775374
v -0.064734 -0.013713 -0.122916
v -0.064734 0.400336 -0.122916
v -0.064734 -0.013713 -0.232826
v -0.064734 0.400336 -0.232826
v 0.064734 -0.013713 -0.122916
v 0.064734 0.400336 -0.122916
v 0.064734 -0.013713 -0.232826
v 0.064734 0.400336 -0.232826
v -0.064734 0.484095 -0.122916
v -0.064734 0.484095 -0.232826
v 0.064734 0.484095 -0.232826
v 0.064734 0.484095 -0.122916
v -0.064734 0.902891 -0.122916
v -0.064734 0.902891 -0.232826
v 0.064734 0.902891 -0.232826
v 0.064734 0.902891 -0.122916
v -0.064734 0.986650 -0.122916
v -0.064734 0.986650 -0.232826
v 0.064734 0.986650 -0.232826
v 0.064734 0.986650 -0.122916
v -0.064734 1.405445 -0.122916
v -0.064734 1.405445 -0.232826
v 0.064734 1.405445 -0.232826
v 0.064734 1.405445 -0.122916
v -0.064734 1.489204 -0.122916
v -0.064734 1.489204 -0.232826
v 0.064734 1.489204 -0.232826
v 0.064734 1.489204 -0.122916
v -0.064734 1.908000 -0.122916
v -0.064734 1.908000 -0.232826
v 0.064734 1.908000 -0.232826
v 0.064734 1.908000 -0.122916
v -0.064734 1.991759 -0.122916
v -0.064734 1.991759 -0.232826
v 0.064734 1.991759 -0.232826
v 0.064734 1.991759 -0.122916
v -0.064734 2.410554 -0.122916
v -0.064734 2.410554 -0.232826
v 0.064734 2.410554 -0.232826
v 0.064734 2.410554 -0.122916
v -0.064734 0.400336 -0.368789
v 0.064734 0.400336 -0.368789
v -0.064734 0.484095 -0.368789
v 0.064734 0.484095 -0.368789
v -0.064734 0.902891 -0.368789
v 0.064734 0.902891 -0.368789
v -0.064734 0.986650 -0.368789
v 0.064734 0.986650 -0.368789
v -0.064734 1.405445 -0.368789
v 0.064734 1.405445 -0.368789
v -0.064734 1.489204 -0.368789
v 0.064734 1.489204 -0.368789
v -0.064734 1.908000 -0.368789
v 0.064734 1.908000 -0.368789
v -0.064734 1.991759 -0.368789
v 0.064734 1.991759 -0.368789
v 0.064734 0.400336 0.000001
v -0.064734 0.400336 0.000001
v 0.064734 0.484095 0.000001
v -0.064734 0.484095 0.000001
v 0.064734 0.902891 0.000001
v -0.064734 0.902891 0.000001
v 0.064734 0.986650 0.000001
v -0.064734 0.986650 0.000001
v 0.064734 1.405445 0.000001
v -0.064734 1.405445 0.000001
v 0.064734 1.489204 0.000001
v -0.064734 1.489204 0.000001
v 0.064734 1.908000 0.000001
v -0.064734 1.908000 0.000001
v 0.064734 1.991759 0.000001
v -0.064734 1.991759 0.000001
vn -1.000000 0.000000 0.000000
vn 0.000000 0.000000 -1.000000
vn 1.000000 0.000000 0.000000
vn 0.000000 0.000000 1.000000
vn 0.000000 -1.000000 0.000000
vn 0.000000 1.000000 0.000000
usemtl Steel
s off
f 2//1 4//1 3//1 1//1
f 4//2 8//2 7//2 3//2
f 8//3 6//3 5//3 7//3
f 6//4 2//4 1//4 5//4
f 1//5 3//5 7//5 5//5
f 4//1 2//1 9//1 10//1
f 10//1 9//1 13//1 14//1
f 24//3 28//3 51//3 49//3
f 35//3 31//3 110//3 112//3
f 6//3 8//3 11//3 12//3
f 17//1 13//1 46//1 48//1
f 9//4 12//4 16//4 13//4
f 11//2 10//2 14//2 15//2
f 12//3 11//3 15//3 16//3
f 20//3 19//3 23//3 24//3
f 14//1 18//1 103//1 101//1
f 16//3 15//3 19//3 20//3
f 14//1 13//1 17//1 18//1
f 29//5 32//5 53//5 54//5
f 18//1 17//1 21//1 22//1
f 17//4 20//4 24//4 21//4
f 19//2 18//2 22//2 23//2
f 27//2 26//2 30//2 31//2
f 11//3 8//3 98//3 100//3
f 24//3 23//3 27//3 28//3
f 22//1 21//1 25//1 26//1
f 32//3 31//3 35//3 36//3
f 28//3 27//3 31//3 32//3
f 26//1 25//1 29//1 30//1
f 25//4 28//4 32//4 29//4
f 33//4 36//4 40//4 37//4
f 30//1 29//1 33//1 34//1
f 6//3 12//3 43//3 41//3
f 8//5 4//5 97//5 98//5
f 40//6 39//6 38//6 37//6
f 35//2 34//2 38//2 39//2
f 36//3 35//3 39//3 40//3
f 34//1 33//1 37//1 38//1
f 19//3 15//3 102//3 104//3
f 22//1 26//1 107//1 105//1
f 10//6 11//6 100//6 99//6
f 15//5 14//5 101//5 102//5
f 27//3 23//3 106//3 108//3
f 18//6 19//6 104//6 103//6
f 23//5 22//5 105//5 106//5
f 30//1 34//1 111//1 109//1
f 26//6 27//6 108//6 107//6
f 31//5 30//5 109//5 110//5
f 34//6 35//6 112//6 111//6
f 4//1 10//1 99//1 97//1
f 42//4 41//4 43//4 44//4
f 46//4 45//4 47//4 48//4
f 50//4 49//4 51//4 52//4
f 54//4 53//4 55//4 56//4
f 36//6 33//6 56//6 55//6
f 25//1 21//1 50//1 52//1
f 32//3 36//3 55//3 53//3
f 33//1 29//1 54//1 56//1
f 12//6 9//6 44//6 43//6
f 13//5 16//5 45//5 46//5
f 9//1 2//1 42//1 44//1
f 20//6 17//6 48//6 47//6
f 21//5 24//5 49//5 50//5
f 16//3 20//3 47//3 45//3
f 2//5 6//5 41//5 42//5
f 28//6 25//6 52//6 51//6
f 58//1 57//1 59//1 60//1
f 60//4 59//4 63//4 64//4
f 64//3 63//3 61//3 62//3
f 62//2 61//2 57//2 58//2
f 57//5 61//5 63//5 59//5
f 60//1 66//1 65//1 58//1
f 66//1 70//1 69//1 65//1
f 80//3 233//3 235//3 84//3
f 91//3 112//3 110//3 87//3
f 62//3 68//3 67//3 64//3
f 73//1 232//1 230//1 69//1
f 65//2 69//2 72//2 68//2
f 67//4 71//4 70//4 66//4
f 68//3 72//3 71//3 67//3
f 76//3 80//3 79//3 75//3
f 70//1 101//1 103//1 74//1
f 72//3 76//3 75//3 71//3
f 70//1 74//1 73//1 69//1
f 85//5 238//5 237//5 88//5
f 74//1 78//1 77//1 73//1
f 73//2 77//2 80//2 76//2
f 75//4 79//4 78//4 74//4
f 83//4 87//4 86//4 82//4
f 67//3 100//3 98//3 64//3
f 80//3 84//3 83//3 79//3
f 78//1 82//1 81//1 77//1
f 88//3 92//3 91//3 87//3
f 84//3 88//3 87//3 83//3
f 82//1 86//1 85//1 81//1
f 81//2 85//2 88//2 84//2
f 89//2 93//2 96//2 92//2
f 86//1 90//1 89//1 85//1
f 62//3 225//3 227//3 68//3
f 64//5 98//5 97//5 60//5
f 96//6 93//6 94//6 95//6
f 91//4 95//4 94//4 90//4
f 92//3 96//3 95//3 91//3
f 90//1 94//1 93//1 89//1
f 75//3 104//3 102//3 71//3
f 78//1 105//1 107//1 82//1
f 66//6 99//6 100//6 67//6
f 71//5 102//5 101//5 70//5
f 83//3 108//3 106//3 79//3
f 74//6 103//6 104//6 75//6
f 79//5 106//5 105//5 78//5
f 86//1 109//1 111//1 90//1
f 82//6 107//6 108//6 83//6
f 87//5 110//5 109//5 86//5
f 90//6 111//6 112//6 91//6
f 60//1 97//1 99//1 66//1
f 92//6 239//6 240//6 89//6
f 81//1 236//1 234//1 77//1
f 88//3 237//3 239//3 92//3
f 89//1 240//1 238//1 85//1
f 68//6 227//6 228//6 65//6
f 69//5 230//5 229//5 72//5
f 65//1 228//1 226//1 58//1
f 76//6 231//6 232//6 73//6
f 77//5 234//5 233//5 80//5
f 72//3 229//3 231//3 76//3
f 58//5 226//5 225//5 62//5
f 84//6 235//6 236//6 81//6
f 114//1 113//1 115//1 116//1
f 116//4 115//4 119//4 120//4
f 120//3 119//3 117//3 118//3
f 118//2 117//2 113//2 114//2
f 113//5 117//5 119//5 115//5
f 116//1 122//1 121//1 114//1
f 122//1 126//1 125//1 121//1
f 136//3 161//3 163//3 140//3
f 147//3 224//3 222//3 143//3
f 118//3 124//3 123//3 120//3
f 129//1 160//1 158//1 125//1
f 121//2 125//2 128//2 124//2
f 123//4 127//4 126//4 122//4
f 124//3 128//3 127//3 123//3
f 132//3 136//3 135//3 131//3
f 126//1 213//1 215//1 130//1
f 128//3 132//3 131//3 127//3
f 126//1 130//1 129//1 125//1
f 141//5 166//5 165//5 144//5
f 130//1 134//1 133//1 129//1
f 129//2 133//2 136//2 132//2
f 131//4 135//4 134//4 130//4
f 139//4 143//4 142//4 138//4
f 123//3 212//3 210//3 120//3
f 136//3 140//3 139//3 135//3
f 134//1 138//1 137//1 133//1
f 144//3 148//3 147//3 143//3
f 140//3 144//3 143//3 139//3
f 138//1 142//1 141//1 137//1
f 137//2 141//2 144//2 140//2
f 145//2 149//2 152//2 148//2
f 142//1 146//1 145//1 141//1
f 118//3 153//3 155//3 124//3
f 120//5 210//5 209//5 116//5
f 152//6 149//6 150//6 151//6
f 147//4 151//4 150//4 146//4
f 148//3 152//3 151//3 147//3
f 146//1 150//1 149//1 145//1
f 131//3 216//3 214//3 127//3
f 134//1 217//1 219//1 138//1
f 122//6 211//6 212//6 123//6
f 127//5 214//5 213//5 126//5
f 139//3 220//3 218//3 135//3
f 130//6 215//6 216//6 131//6
f 135//5 218//5 217//5 134//5
f 142//1 221//1 223//1 146//1
f 138//6 219//6 220//6 139//6
f 143//5 222//5 221//5 142//5
f 146//6 223//6 224//6 147//6
f 116//1 209//1 211//1 122//1
f 154//2 156//2 155//2 153//2
f 158//2 160//2 159//2 157//2
f 162//2 164//2 163//2 161//2
f 166//2 168//2 167//2 165//2
f 148//6 167//6 168//6 145//6
f 137//1 164//1 162//1 133//1
f 144//3 165//3 167//3 148//3
f 145//1 168//1 166//1 141//1
f 124//6 155//6 156//6 121//6
f 125//5 158//5 157//5 128//5
f 121//1 156//1 154//1 114//1
f 132//6 159//6 160//6 129//6
f 133//5 162//5 161//5 136//5
f 128//3 157//3 159//3 132//3
f 114//5 154//5 153//5 118//5
f 140//6 163//6 164//6 137//6
f 170//1 172//1 171//1 169//1
f 172//2 176//2 175//2 171//2
f 176//3 174//3 173//3 175//3
f 174//4 170//4 169//4 173//4
f 169//5 171//5 175//5 173//5
f 172//1 170//1 177//1 178//1
f 178//1 177//1 181//1 182//1
f 192//3 196//3 235//3 233//3
f 203//3 199//3 222//3 224//3
f 174//3 176//3 179//3 180//3
f 185//1 181//1 230//1 232//1
f 177//4 180//4 184//4 181//4
f 179//2 178//2 182//2 183//2
f 180//3 179//3 183//3 184//3
f 188//3 187//3 191//3 192//3
f 182//1 186//1 215//1 213//1
f 184//3 183//3 187//3 188//3
f 182//1 181//1 185//1 186//1
f 197//5 200//5 237//5 238//5
f 186//1 185//1 189//1 190//1
f 185//4 188//4 192//4 189//4
f 187//2 186//2 190//2 191//2
f 195//2 194//2 198//2 199//2
f 179//3 176//3 210//3 212//3
f 192//3 191//3 195//3 196//3
f 190//1 189//1 193//1 194//1
f 200//3 199//3 203//3 204//3
f 196//3 195//3 199//3 200//3
f 194//1 193//1 197//1 198//1
f 193//4 196//4 200//4 197//4
f 201//4 204//4 208//4 205//4
f 198//1 197//1 201//1 202//1
f 174//3 180//3 227//3 225//3
f 176//5 172//5 209//5 210//5
f 208//6 207//6 206//6 205//6
f 203//2 202//2 206//2 207//2
f 204//3 203//3 207//3 208//3
f 202//1 201//1 205//1 206//1
f 187//3 183//3 214//3 216//3
f 190//1 194//1 219//1 217//1
f 178//6 179//6 212//6 211//6
f 183//5 182//5 213//5 214//5
f 195//3 191//3 218//3 220//3
f 186//6 187//6 216//6 215//6
f 191//5 190//5 217//5 218//5
f 198//1 202//1 223//1 221//1
f 194//6 195//6 220//6 219//6
f 199//5 198//5 221//5 222//5
f 202//6 203//6 224//6 223//6
f 172//1 178//1 211//1 209//1
f 204//6 201//6 240//6 239//6
f 193//1 189//1 234//1 236//1
f 200//3 204//3 239//3 237//3
f 201//1 197//1 238//1 240//1
f 180//6 177//6 228//6 227//6
f 181//5 184//5 229//5 230//5
f 177//1 170//1 226//1 228//1
f 188//6 185//6 232//6 231//6
f 189//5 192//5 233//5 234//5
f 184//3 188//3 231//3 229//3
f 170//5 174//5 225//5 226//5
f 196//6 193//6 236//6 235//6
