# Blender v2.76 (sub 0) OBJ File: 'Candle.blend'
# www.blender.org
mtllib Candle.mtl
o Candle_Cylinder.001
v 0.000000 0.022538 -0.124158
v -0.000000 0.043328 -0.102414
v 0.107524 0.022538 -0.062079
v 0.088693 0.043328 -0.051207
v 0.107524 0.022538 0.062079
v 0.088693 0.043328 0.051207
v -0.000000 0.022538 0.124158
v -0.000000 0.043328 0.102414
v -0.107524 0.022538 0.062079
v -0.088693 0.043328 0.051207
v -0.107524 0.022538 -0.062079
v -0.088693 0.043328 -0.051207
v 0.026299 0.053600 -0.015184
v -0.000000 0.053600 -0.030367
v 0.026299 0.053600 0.015184
v -0.000000 0.053600 0.030367
v -0.026299 0.053600 0.015184
v -0.026299 0.053600 -0.015184
v 0.027899 0.078425 -0.016107
v -0.000000 0.078425 -0.032215
v 0.027899 0.078425 0.016107
v -0.000000 0.078425 0.032215
v -0.027899 0.078425 0.016107
v -0.027899 0.078425 -0.016107
v 0.043229 0.124651 -0.024958
v -0.000000 0.124651 -0.049916
v 0.043229 0.124651 0.024958
v -0.000000 0.124651 0.049916
v -0.043229 0.124651 0.024958
v -0.043229 0.124651 -0.024958
v 0.070428 0.139203 -0.040662
v 0.000000 0.139203 -0.081323
v 0.070428 0.139203 0.040662
v -0.000000 0.139203 0.081323
v -0.070428 0.139203 0.040662
v -0.070428 0.139203 -0.040662
v 0.081267 0.163172 -0.046919
v 0.000000 0.163172 -0.093839
v 0.081267 0.163172 0.046919
v -0.000000 0.163172 0.093839
v -0.081267 0.163172 0.046919
v -0.081267 0.163172 -0.046919
v 0.074393 0.182005 -0.042951
v 0.000000 0.182005 -0.085901
v 0.074393 0.182005 0.042951
v -0.000000 0.182005 0.085901
v -0.074393 0.182005 0.042951
v -0.074393 0.182005 -0.042951
v 0.006351 0.717779 -0.003507
v -0.000000 0.718850 -0.007014
v -0.006351 0.717779 -0.003507
v 0.006351 0.715637 0.003507
v -0.000000 0.714566 0.007014
v -0.006351 0.715637 0.003507
v -0.071043 0.728689 -0.039228
v -0.071043 0.704727 0.039228
v -0.000000 0.692745 0.078456
v 0.071043 0.704727 0.039228
v 0.000000 0.740671 -0.078456
v 0.071043 0.728689 -0.039228
v 0.090198 0.195171 -0.052076
v 0.000000 0.195171 -0.104152
v 0.090198 0.195171 0.052076
v -0.000000 0.195171 0.104152
v -0.090198 0.195171 0.052076
v -0.090198 0.195171 -0.052076
v 0.085145 0.225988 -0.049159
v 0.000000 0.225988 -0.098317
v 0.085145 0.225988 0.049159
v -0.000000 0.225988 0.098317
v -0.085145 0.225988 0.049159
v -0.085145 0.225988 -0.049159
v 0.064422 0.248245 -0.037194
v 0.000000 0.248245 -0.074388
v 0.064422 0.248245 0.037194
v -0.000000 0.248245 0.074388
v -0.064422 0.248245 0.037194
v -0.064422 0.248245 -0.037194
v 0.073992 0.302175 -0.042719
v 0.000000 0.302175 -0.085439
v 0.073992 0.302175 0.042719
v -0.000000 0.302175 0.085439
v -0.073992 0.302175 0.042719
v -0.073992 0.302175 -0.042719
v 0.098648 0.327856 -0.056954
v 0.000000 0.327856 -0.113909
v 0.098648 0.327856 0.056954
v -0.000000 0.327856 0.113909
v -0.098648 0.327856 0.056954
v -0.098648 0.327856 -0.056954
v 0.132530 0.336416 -0.076516
v 0.000000 0.336416 -0.153033
v 0.132530 0.336416 0.076516
v -0.000000 0.336416 0.153033
v -0.132530 0.336416 0.076516
v -0.132530 0.336416 -0.076516
v 0.132530 0.366378 -0.076516
v 0.000000 0.366378 -0.153033
v 0.132530 0.366378 0.076516
v -0.000000 0.366378 0.153033
v -0.132530 0.366378 0.076516
v -0.132530 0.366378 -0.076516
v 0.083579 0.366378 -0.062730
v 0.012536 0.366378 -0.103747
v 0.082489 0.366378 0.060842
v 0.011446 0.366378 0.101859
v -0.071043 0.366378 0.041017
v -0.071043 0.366378 -0.041017
v 0.000000 -0.001240 -0.124158
v 0.107524 -0.001240 -0.062079
v 0.107524 -0.001240 0.062079
v -0.000000 -0.001240 0.124158
v -0.107524 -0.001240 0.062079
v -0.107524 -0.001240 -0.062079
v 0.003873 0.769612 0.002073
v 0.000541 0.734881 0.003507
v 0.000541 0.737023 -0.003507
v 0.003873 0.770879 -0.002073
v -0.005810 0.738094 -0.007014
v -0.000000 0.771532 -0.004211
v -0.012161 0.737023 -0.003507
v -0.003873 0.770879 -0.002073
v -0.012161 0.734881 0.003507
v -0.003873 0.769612 0.002073
v -0.000000 0.768959 0.004211
v -0.005810 0.733810 0.007014
v 0.071043 0.424452 0.040710
v -0.071043 0.428565 -0.040710
v 0.071043 0.428565 -0.040710
v -0.000000 0.422396 0.081419
v -0.071043 0.424452 0.040710
v 0.000000 0.430622 -0.081419
v 0.073090 0.564590 0.032618
v -0.068996 0.564590 0.032618
v 0.002047 0.585646 -0.087289
v -0.068996 0.578627 -0.047320
v 0.073090 0.578627 -0.047320
v 0.002047 0.557571 0.072587
vn 0.370600 0.671300 -0.641900
vn 0.741200 0.671300 0.000000
vn 0.370600 0.671300 0.641900
vn -0.370600 0.671300 0.641900
vn -0.081200 0.986700 0.140700
vn -0.370600 0.671300 -0.641900
vn -0.741200 0.671300 0.000000
vn 1.000000 0.000000 0.000000
vn -0.997900 -0.064300 0.000000
vn 0.162400 0.986700 0.000000
vn -0.162400 0.986700 0.000000
vn 0.081200 0.986700 -0.140700
vn 0.081200 0.986700 0.140700
vn -0.081200 0.986700 -0.140700
vn -0.474600 -0.314800 -0.822000
vn 0.499000 -0.064300 0.864200
vn 0.499000 -0.064300 -0.864200
vn -0.499000 -0.064300 -0.864200
vn -0.499000 -0.064300 0.864200
vn 0.997900 -0.064300 0.000000
vn -0.471800 -0.881700 0.000000
vn -0.474600 -0.314800 0.822000
vn 0.949200 -0.314800 0.000000
vn -0.949200 -0.314800 0.000000
vn 0.474600 -0.314800 0.822000
vn 0.474600 -0.314800 -0.822000
vn -0.455600 -0.412000 -0.789100
vn 0.235900 -0.881700 0.408600
vn 0.235900 -0.881700 -0.408600
vn -0.235900 -0.881700 -0.408600
vn -0.235900 -0.881700 0.408600
vn 0.471800 -0.881700 0.000000
vn -0.939400 0.342900 0.000000
vn -0.455600 -0.412000 0.789100
vn 0.911200 -0.412000 0.000000
vn -0.911200 -0.412000 0.000000
vn 0.455600 -0.412000 0.789100
vn 0.455600 -0.412000 -0.789100
vn 0.469700 0.342900 0.813500
vn 0.469700 0.342900 -0.813500
vn -0.469700 0.342900 -0.813500
vn -0.469700 0.342900 0.813500
vn 0.939400 0.342900 0.000000
vn 0.320000 -0.768300 -0.554300
vn 0.320000 -0.768300 0.554300
vn 0.493400 0.161800 -0.854600
vn -0.320000 -0.768300 -0.554300
vn -0.320000 -0.768300 0.554300
vn 0.640000 -0.768300 0.000000
vn -0.640000 -0.768300 0.000000
vn -0.731900 0.681400 0.000000
vn -0.493400 0.161800 -0.854600
vn -0.493400 0.161800 0.854600
vn 0.986800 0.161800 0.000000
vn -0.986800 0.161800 0.000000
vn 0.493400 0.161800 0.854600
vn -0.492300 -0.174700 -0.852700
vn 0.365900 0.681400 0.633800
vn 0.365900 0.681400 -0.633800
vn -0.365900 0.681400 -0.633800
vn -0.365900 0.681400 0.633800
vn 0.731900 0.681400 0.000000
vn -0.721400 -0.692600 0.000000
vn -0.492300 -0.174700 0.852700
vn 0.984600 -0.174700 0.000000
vn -0.984600 -0.174700 0.000000
vn 0.492300 -0.174700 0.852700
vn 0.492300 -0.174700 -0.852700
vn -0.122500 -0.969500 -0.212100
vn 0.360700 -0.692600 0.624700
vn 0.360700 -0.692600 -0.624700
vn -0.360700 -0.692600 -0.624700
vn -0.360700 -0.692600 0.624700
vn 0.721400 -0.692600 0.000000
vn -1.000000 0.000000 0.000000
vn -0.122500 -0.969500 0.212100
vn 0.244900 -0.969500 0.000000
vn -0.244900 -0.969500 0.000000
vn 0.122500 -0.969500 0.212100
vn 0.122500 -0.969500 -0.212100
vn 0.000000 1.000000 0.000000
vn 0.500000 0.000000 0.866000
vn 0.500000 0.000000 -0.866000
vn -0.500000 0.000000 -0.866000
vn -0.500000 0.000000 0.866000
vn 0.000000 -1.000000 0.000000
vn 0.491700 0.054800 -0.869000
vn -0.000000 0.956400 0.292100
vn -0.491100 -0.046700 0.869900
vn 0.489900 -0.032200 0.871200
vn -0.490700 0.041700 -0.870300
vn 0.999900 0.013900 0.003300
vn -0.999900 -0.013900 -0.003300
vn 0.980700 0.195400 0.009100
vn -0.554500 0.093100 -0.827000
vn 0.457500 0.378000 0.804900
vn -0.548200 0.096100 0.830800
vn 0.466500 0.373700 -0.801700
vn -0.999900 0.014200 0.001600
vn 0.999900 -0.014200 -0.001600
vn -0.492200 -0.029000 -0.870000
vn 0.491000 0.046200 0.869900
vn -0.489900 0.060700 0.869600
vn 0.491300 -0.042200 -0.870000
vn -0.460600 -0.139100 -0.876600
vn 0.460600 0.139100 0.876600
vn 0.953600 0.287900 0.087900
vn -0.953600 -0.287900 -0.087900
vn 0.497200 0.150100 -0.854600
vn -0.497200 -0.150100 0.854600
vn 0.994900 -0.096700 -0.029500
vn 0.482000 -0.010300 -0.876100
vn -0.497600 0.157900 -0.852900
vn -0.969500 0.234300 0.071600
vn 0.484700 -0.010400 0.874600
vn -0.459300 0.145800 0.876300
usemtl Gold.001
s off
f 1//1 2//1 4//1 3//1
f 3//2 4//2 6//2 5//2
f 5//3 6//3 8//3 7//3
f 7//4 8//4 10//4 9//4
f 10//5 8//5 16//5 17//5
f 11//6 12//6 2//6 1//6
f 9//7 10//7 12//7 11//7
f 3//8 5//8 111//8 110//8
f 18//9 17//9 23//9 24//9
f 6//10 4//10 13//10 15//10
f 12//11 10//11 17//11 18//11
f 4//12 2//12 14//12 13//12
f 8//13 6//13 15//13 16//13
f 2//14 12//14 18//14 14//14
f 20//15 24//15 30//15 26//15
f 16//16 15//16 21//16 22//16
f 13//17 14//17 20//17 19//17
f 14//18 18//18 24//18 20//18
f 17//19 16//19 22//19 23//19
f 15//20 13//20 19//20 21//20
f 30//21 29//21 35//21 36//21
f 23//22 22//22 28//22 29//22
f 21//23 19//23 25//23 27//23
f 24//24 23//24 29//24 30//24
f 22//25 21//25 27//25 28//25
f 19//26 20//26 26//26 25//26
f 32//27 36//27 42//27 38//27
f 28//28 27//28 33//28 34//28
f 25//29 26//29 32//29 31//29
f 26//30 30//30 36//30 32//30
f 29//31 28//31 34//31 35//31
f 27//32 25//32 31//32 33//32
f 42//33 41//33 47//33 48//33
f 35//34 34//34 40//34 41//34
f 33//35 31//35 37//35 39//35
f 36//36 35//36 41//36 42//36
f 34//37 33//37 39//37 40//37
f 31//38 32//38 38//38 37//38
f 40//39 39//39 45//39 46//39
f 37//40 38//40 44//40 43//40
f 38//41 42//41 48//41 44//41
f 41//42 40//42 46//42 47//42
f 39//43 37//43 43//43 45//43
f 44//44 62//44 61//44 43//44
f 45//45 63//45 64//45 46//45
f 61//46 62//46 68//46 67//46
f 48//47 66//47 62//47 44//47
f 46//48 64//48 65//48 47//48
f 43//49 61//49 63//49 45//49
f 47//50 65//50 66//50 48//50
f 72//51 71//51 77//51 78//51
f 62//52 66//52 72//52 68//52
f 65//53 64//53 70//53 71//53
f 63//54 61//54 67//54 69//54
f 66//55 65//55 71//55 72//55
f 64//56 63//56 69//56 70//56
f 74//57 78//57 84//57 80//57
f 70//58 69//58 75//58 76//58
f 67//59 68//59 74//59 73//59
f 68//60 72//60 78//60 74//60
f 71//61 70//61 76//61 77//61
f 69//62 67//62 73//62 75//62
f 84//63 83//63 89//63 90//63
f 77//64 76//64 82//64 83//64
f 75//65 73//65 79//65 81//65
f 78//66 77//66 83//66 84//66
f 76//67 75//67 81//67 82//67
f 73//68 74//68 80//68 79//68
f 86//69 90//69 96//69 92//69
f 82//70 81//70 87//70 88//70
f 79//71 80//71 86//71 85//71
f 80//72 84//72 90//72 86//72
f 83//73 82//73 88//73 89//73
f 81//74 79//74 85//74 87//74
f 96//75 95//75 101//75 102//75
f 89//76 88//76 94//76 95//76
f 87//77 85//77 91//77 93//77
f 90//78 89//78 95//78 96//78
f 88//79 87//79 93//79 94//79
f 85//80 86//80 92//80 91//80
f 98//81 102//81 108//81 104//81
f 94//82 93//82 99//82 100//82
f 91//83 92//83 98//83 97//83
f 92//84 96//84 102//84 98//84
f 95//85 94//85 100//85 101//85
f 93//8 91//8 97//8 99//8
f 101//81 100//81 106//81 107//81
f 99//81 97//81 103//81 105//81
f 102//81 101//81 107//81 108//81
f 100//81 99//81 105//81 106//81
f 97//81 98//81 104//81 103//81
f 109//86 110//86 111//86 112//86 113//86 114//86
f 9//75 11//75 114//75 113//75
f 1//83 3//83 110//83 109//83
f 5//82 7//82 112//82 111//82
f 11//84 1//84 109//84 114//84
f 7//85 9//85 113//85 112//85
usemtl Candle.001
f 137//87 135//87 59//87 60//87
f 59//88 55//88 51//88 50//88
f 134//89 138//89 57//89 56//89
f 138//90 133//90 58//90 57//90
f 135//91 136//91 55//91 59//91
f 133//92 137//92 60//92 58//92
f 55//88 56//88 54//88 51//88
f 58//88 60//88 49//88 52//88
f 57//88 58//88 52//88 53//88
f 56//88 57//88 53//88 54//88
f 60//88 59//88 50//88 49//88
f 136//93 134//93 56//93 55//93
f 108//75 107//75 131//75 128//75
f 105//94 103//94 129//94 127//94
f 104//95 108//95 128//95 132//95
f 106//96 105//96 127//96 130//96
f 107//97 106//97 130//97 131//97
f 103//98 104//98 132//98 129//98
f 128//99 131//99 134//99 136//99
f 127//100 129//100 137//100 133//100
f 132//101 128//101 136//101 135//101
f 130//102 127//102 133//102 138//102
f 131//103 130//103 138//103 134//103
f 129//104 132//104 135//104 137//104
usemtl Black
f 50//105 51//105 121//105 119//105
f 53//106 52//106 116//106 126//106
f 52//107 49//107 117//107 116//107
f 51//108 54//108 123//108 121//108
f 49//109 50//109 119//109 117//109
f 54//110 53//110 126//110 123//110
f 116//111 117//111 118//111 115//111
f 117//112 119//112 120//112 118//112
f 119//113 121//113 122//113 120//113
f 121//114 123//114 124//114 122//114
f 126//115 116//115 115//115 125//115
f 123//116 126//116 125//116 124//116
f 118//88 120//88 122//88 124//88 125//88 115//88
