# Blender v2.76 (sub 0) OBJ File: 'Chest.blend'
# www.blender.org
mtllib Chest.mtl
o ChestBottom_Cube.024
v -0.200883 0.085717 1.919539
v -0.257510 0.085519 1.867631
v -0.190613 -0.004268 1.851026
v -0.253550 0.468286 1.997230
v -0.266152 0.606357 1.972689
v -0.310226 0.468484 1.952534
v 0.239918 0.085717 1.919539
v 0.222627 -0.004268 1.851026
v 0.298258 0.083561 1.866915
v 0.362686 0.606357 1.972689
v 0.316585 0.468286 1.997230
v 0.377042 0.475361 1.953579
v -0.196929 0.606357 1.908172
v 0.293462 0.606357 1.908172
v -0.136639 0.026568 1.792696
v 0.233172 0.026568 1.792696
v -0.310226 0.468484 1.856044
v -0.190613 -0.004268 1.763162
v 0.362686 0.606357 1.872428
v 0.298258 0.083561 1.776078
v 0.293462 0.606357 1.819982
v 0.233172 0.026568 1.726111
v -0.266152 0.606357 1.872428
v -0.257510 0.085519 1.776659
v 0.377042 0.475361 1.856893
v 0.222627 -0.004268 1.763162
v -0.196929 0.606357 1.819982
v -0.136639 0.026568 1.726111
v -0.278098 0.087979 1.867631
v -0.206445 -0.004268 1.851026
v -0.287354 0.606357 1.972689
v -0.334561 0.470944 1.952534
v 0.236167 -0.004268 1.851026
v 0.317174 0.083561 1.866915
v 0.403049 0.475361 1.953579
v 0.386180 0.606357 1.972689
v -0.334561 0.470944 1.856044
v -0.206445 -0.004268 1.763162
v 0.386180 0.606357 1.872428
v 0.317174 0.083561 1.776078
v -0.287354 0.606357 1.872428
v -0.278098 0.087979 1.776659
v 0.403049 0.475361 1.856893
v 0.236167 -0.004268 1.763162
v 0.400262 0.473272 1.500128
v 0.385523 0.604255 1.500128
v 0.397110 0.500647 1.472722
v 0.388548 0.576727 1.472722
v 0.412908 0.500647 1.472722
v 0.404346 0.576727 1.472722
v 0.411061 0.516678 1.447974
v 0.406118 0.560606 1.447974
v 0.399345 0.516678 1.447974
v 0.394402 0.560606 1.447974
v -0.200883 0.085717 0.954084
v -0.257510 0.085519 1.005992
v -0.190613 -0.004268 1.022596
v -0.253550 0.468286 0.876393
v -0.266152 0.606357 0.900934
v -0.310226 0.468484 0.921089
v 0.239918 0.085717 0.954084
v 0.222627 -0.004268 1.022596
v 0.298258 0.083561 1.006708
v 0.362686 0.606357 0.900934
v 0.316585 0.468286 0.876393
v 0.377042 0.475361 0.920044
v -0.196929 0.606357 0.965451
v 0.293462 0.606357 0.965451
v -0.136639 0.026568 1.080927
v 0.233172 0.026568 1.080927
v -0.310226 0.468484 1.017579
v -0.190613 -0.004268 1.110461
v 0.362686 0.606357 1.001195
v 0.298258 0.083561 1.097545
v 0.293462 0.606357 1.053641
v 0.233172 0.026568 1.147512
v -0.266152 0.606357 1.001195
v -0.257510 0.085519 1.096964
v 0.377042 0.475361 1.016730
v 0.222627 -0.004268 1.110461
v -0.196929 0.606357 1.053641
v -0.136639 0.026568 1.147512
v -0.278098 0.087979 1.005992
v -0.206445 -0.004268 1.022596
v -0.287354 0.606357 0.900934
v -0.334561 0.470944 0.921089
v 0.236167 -0.004268 1.022596
v 0.317174 0.083561 1.006708
v 0.403049 0.475361 0.920044
v 0.386180 0.606357 0.900934
v -0.334561 0.470944 1.017579
v -0.206445 -0.004268 1.110461
v 0.386180 0.606357 1.001195
v 0.317174 0.083561 1.097545
v -0.287354 0.606357 1.001195
v -0.278098 0.087979 1.096964
v 0.403049 0.475361 1.016730
v 0.236167 -0.004268 1.110461
v 0.400262 0.473272 1.373495
v 0.385523 0.604255 1.373495
v 0.397110 0.500647 1.400901
v 0.388548 0.576727 1.400901
v 0.412908 0.500647 1.400901
v 0.404346 0.576727 1.400901
v 0.411061 0.516678 1.425649
v 0.406118 0.560606 1.425649
v 0.399345 0.516678 1.425649
v 0.394402 0.560606 1.425649
vn 0.000000 1.000000 0.000000
vn 0.000000 -0.199000 0.980000
vn -0.568400 -0.538500 0.622100
vn -0.616900 0.082800 0.782700
vn 0.536700 -0.574000 0.618500
vn 0.588600 -0.053200 0.806700
vn -0.629300 -0.243400 0.738100
vn 0.611400 -0.279800 0.740200
vn 0.000000 0.175000 0.984600
vn 0.000000 -0.605800 0.795600
vn 0.994600 0.103400 0.000000
vn 0.000000 0.195300 -0.980700
vn 0.757800 -0.652500 0.000000
vn 0.000000 -1.000000 0.000000
vn -0.994600 0.103400 0.000000
vn -0.990700 -0.136400 0.000000
vn -0.952500 0.304500 0.000000
vn 0.980400 -0.197100 0.000000
vn -0.801900 -0.597500 0.000000
vn 0.000000 -0.199000 -0.980000
vn -0.568400 -0.538500 -0.622100
vn -0.616900 0.082800 -0.782700
vn 0.536700 -0.574000 -0.618500
vn 0.588600 -0.053200 -0.806700
vn -0.629300 -0.243400 -0.738100
vn 0.611400 -0.279800 -0.740200
vn 0.000000 0.175000 -0.984600
vn 0.000000 -0.605800 -0.795600
vn 0.000000 0.195300 0.980700
vn 0.000000 0.145500 -0.989400
vn 0.010400 0.154500 -0.987900
vn -0.049200 -0.998800 0.000000
vn 0.006300 0.117000 -0.993100
vn 0.000000 -0.216000 0.976400
vn 0.976800 -0.214100 0.000000
vn -0.789700 -0.613400 0.000000
vn 0.991800 0.127700 0.000000
vn -0.944300 0.329200 0.000000
vn 0.735100 -0.678000 0.000000
vn -0.989300 -0.145900 0.000000
vn -0.007700 -0.143400 0.989600
vn -0.024000 -0.219600 0.975300
vn 0.022600 0.206000 -0.978300
vn 0.000000 0.202000 -0.979400
vn 0.000000 -0.178000 0.984000
vn 0.000000 -0.144400 0.989500
vn -0.012700 -0.188800 0.981900
vn 0.992700 0.120100 -0.005400
vn 0.994000 0.109300 0.000000
vn 0.993400 0.114400 0.000000
vn 0.993700 0.111800 -0.002600
vn 0.052000 0.998600 0.000000
vn 0.000000 0.145500 0.989400
vn 0.010400 0.154500 0.987900
vn 0.006300 0.117000 0.993100
vn -0.000000 -0.216000 -0.976400
vn -0.007700 -0.143400 -0.989600
vn -0.024100 -0.219600 -0.975300
vn 0.022600 0.206000 0.978300
vn 0.000000 0.202000 0.979400
vn 0.000000 -0.178000 -0.984000
vn 0.000000 -0.144400 -0.989500
vn -0.012800 -0.188800 -0.981900
vn 0.992700 0.120100 0.005400
vn 0.993700 0.111800 0.002600
vn 0.993700 0.111800 0.000000
vn 0.000000 0.000000 1.000000
vn 0.994000 0.109200 0.000000
vn 0.993700 0.111800 -0.001700
vn 0.000000 0.000000 -1.000000
vn 0.993700 0.111800 0.001700
usemtl Wood
s off
f 23//1 5//1 13//1 27//1
f 11//2 4//2 1//2 7//2
f 1//3 2//3 3//3
f 4//4 5//4 6//4
f 7//5 8//5 9//5
f 10//6 11//6 12//6
f 1//7 4//7 6//7 2//7
f 5//1 23//1 41//1 31//1
f 11//8 7//8 9//8 12//8
f 10//9 5//9 4//9 11//9
f 3//10 8//10 7//10 1//10
f 27//11 13//11 15//11 28//11
f 5//1 10//1 14//1 13//1
f 13//12 14//12 16//12 15//12
f 76//1 82//1 28//1 22//1
f 73//1 75//1 21//1 19//1
f 28//11 82//11 81//11 27//11
f 80//13 74//13 20//13 26//13
f 27//1 81//1 77//1 23//1
f 3//14 18//14 26//14 8//14
f 10//1 19//1 21//1 14//1
f 16//1 22//1 28//1 15//1
f 14//15 21//15 22//15 16//15
f 71//16 78//16 24//16 17//16
f 77//17 71//17 17//17 23//17
f 20//18 74//18 79//18 25//18
f 72//14 80//14 26//14 18//14
f 8//14 26//14 44//14 33//14
f 24//19 78//19 72//19 18//19
f 77//1 81//1 67//1 59//1
f 65//20 61//20 55//20 58//20
f 55//21 57//21 56//21
f 58//22 60//22 59//22
f 61//23 63//23 62//23
f 64//24 66//24 65//24
f 55//25 56//25 60//25 58//25
f 59//1 85//1 95//1 77//1
f 65//26 66//26 63//26 61//26
f 64//27 65//27 58//27 59//27
f 57//28 55//28 61//28 62//28
f 81//11 82//11 69//11 67//11
f 59//1 67//1 68//1 64//1
f 67//29 69//29 70//29 68//29
f 57//14 62//14 80//14 72//14
f 64//1 68//1 75//1 73//1
f 70//1 69//1 82//1 76//1
f 68//15 70//15 76//15 75//15
f 62//14 87//14 98//14 80//14
f 75//15 76//15 22//15 21//15
usemtl Steel
f 26//30 20//30 40//30 44//30
f 24//31 18//31 38//31 42//31
f 79//32 97//32 99//32 45//32 43//32 25//32
f 23//33 17//33 37//33 41//33
f 12//34 9//34 34//34 35//34
f 43//35 35//35 34//35 40//35
f 38//36 30//36 29//36 42//36
f 39//37 36//37 35//37 43//37
f 31//38 41//38 37//38 32//38
f 33//39 44//39 40//39 34//39
f 32//40 37//40 42//40 29//40
f 6//41 5//41 31//41 32//41
f 2//42 6//42 32//42 29//42
f 17//43 24//43 42//43 37//43
f 20//44 25//44 43//44 40//44
f 18//14 3//14 30//14 38//14
f 9//45 8//45 33//45 34//45
f 19//1 10//1 36//1 39//1
f 10//46 12//46 35//46 36//46
f 3//47 2//47 29//47 30//47
f 46//48 39//48 43//48 45//48
f 48//49 102//49 100//49 46//49
f 99//50 101//50 47//50 45//50
f 46//51 45//51 47//51 48//51
f 46//52 100//52 93//52 73//52 19//52 39//52
f 80//53 98//53 94//53 74//53
f 78//54 96//54 92//54 72//54
f 77//55 95//55 91//55 71//55
f 66//56 89//56 88//56 63//56
f 97//35 94//35 88//35 89//35
f 92//36 96//36 83//36 84//36
f 93//37 97//37 89//37 90//37
f 85//38 86//38 91//38 95//38
f 87//39 88//39 94//39 98//39
f 86//40 83//40 96//40 91//40
f 60//57 86//57 85//57 59//57
f 56//58 83//58 86//58 60//58
f 71//59 91//59 96//59 78//59
f 74//60 94//60 97//60 79//60
f 72//14 92//14 84//14 57//14
f 63//61 88//61 87//61 62//61
f 73//1 93//1 90//1 64//1
f 64//62 90//62 89//62 66//62
f 57//63 84//63 83//63 56//63
f 100//64 99//64 97//64 93//64
f 100//65 102//65 101//65 99//65
usemtl DarkSteel
f 53//66 107//66 108//66 54//66
f 101//14 103//14 49//14 47//14
f 50//1 104//1 102//1 48//1
f 103//50 105//50 51//50 49//50
f 48//67 47//67 49//67 50//67
f 52//68 106//68 104//68 50//68
f 105//1 107//1 53//1 51//1
f 50//69 49//69 51//69 52//69
f 54//14 108//14 106//14 52//14
f 52//70 51//70 53//70 54//70
f 102//70 104//70 103//70 101//70
f 104//71 106//71 105//71 103//71
f 106//67 108//67 107//67 105//67
o ChestTop_Cylinder.018
v 0.351841 0.603292 1.969579
v -0.193528 0.603292 1.904007
v 0.284607 0.603292 1.904007
v -0.260762 0.603292 1.969579
v -0.171048 0.820247 1.969579
v 0.045540 0.910113 1.969579
v 0.262128 0.820247 1.969579
v -0.146628 0.717051 1.904007
v 0.237707 0.717051 1.904007
v -0.048065 0.826491 1.904007
v 0.139144 0.826491 1.904007
v 0.351841 0.603292 1.886822
v 0.284607 0.603292 1.831460
v 0.237707 0.717051 1.831460
v 0.139144 0.826491 1.831460
v -0.193528 0.603292 1.831461
v -0.260762 0.603292 1.886822
v -0.171048 0.820247 1.886822
v 0.045540 0.910113 1.886822
v 0.262128 0.820247 1.886822
v -0.146628 0.717051 1.831460
v -0.048065 0.826491 1.831461
v 0.381717 0.603303 1.882786
v 0.381717 0.603303 1.973615
v -0.192173 0.841420 1.973615
v -0.290637 0.603303 1.973615
v 0.045540 0.940051 1.973615
v 0.283253 0.841420 1.973615
v -0.290637 0.603303 1.882786
v -0.192173 0.841420 1.882786
v 0.045540 0.940051 1.882786
v 0.283253 0.841420 1.882786
v 0.351841 0.603292 0.906693
v -0.193528 0.603292 0.972265
v 0.284607 0.603292 0.972265
v -0.260762 0.603292 0.906693
v -0.171049 0.820247 0.906693
v 0.045539 0.910113 0.906693
v 0.262127 0.820247 0.906693
v -0.146628 0.717051 0.972265
v 0.237707 0.717051 0.972265
v -0.048065 0.826491 0.972265
v 0.139143 0.826491 0.972265
v 0.351841 0.603292 0.989450
v 0.284607 0.603292 1.044811
v 0.237707 0.717051 1.044811
v 0.139143 0.826491 1.044812
v -0.193528 0.603292 1.044812
v -0.260762 0.603292 0.989450
v -0.171049 0.820247 0.989450
v 0.045539 0.910113 0.989450
v 0.262127 0.820247 0.989450
v -0.146628 0.717051 1.044812
v -0.048065 0.826491 1.044812
v 0.381717 0.603303 0.993486
v 0.381716 0.603303 0.902657
v -0.192174 0.841420 0.902657
v -0.290638 0.603303 0.902657
v 0.045539 0.940051 0.902657
v 0.283252 0.841420 0.902657
v -0.290638 0.603303 0.993486
v -0.192174 0.841420 0.993486
v 0.045539 0.940051 0.993486
v 0.283252 0.841420 0.993486
vn 0.000000 0.000000 1.000000
vn 0.000000 -1.000000 -0.000000
vn -0.924500 -0.381200 0.000000
vn -0.000000 -0.000000 -1.000000
vn -0.743100 -0.669200 0.000000
vn 0.924500 -0.381200 -0.000000
vn 0.743100 -0.669200 0.000000
vn 0.383200 0.923700 -0.000000
vn 0.924100 0.382100 -0.000000
vn -0.383200 0.923600 0.000000
vn -0.924100 0.382100 0.000000
vn 0.133700 -0.055300 0.989500
vn 0.055300 -0.133400 -0.989500
vn -0.133700 -0.055300 0.989500
vn -0.133700 -0.055300 -0.989500
vn 0.383200 0.923600 0.000000
vn 0.133700 -0.055300 -0.989500
vn 0.055300 -0.133400 0.989500
vn -0.055300 -0.133400 -0.989500
vn 0.000400 -1.000000 -0.000000
vn -0.055300 -0.133400 0.989500
vn -0.000400 -1.000000 -0.000000
usemtl Wood
s off
f 109//72 115//72 114//72 113//72 112//72
f 109//73 112//73 110//73 111//73
f 120//73 109//73 111//73 121//73
f 121//74 111//74 117//74 122//74
f 111//75 110//75 116//75 117//75
f 122//76 117//76 119//76 123//76
f 117//75 116//75 118//75 119//75
f 130//73 123//73 119//73 118//73
f 123//76 155//76 154//76 122//76
f 122//74 154//74 153//74 121//74
f 112//73 125//73 124//73 110//73
f 110//77 124//77 129//77 116//77
f 116//78 129//78 130//78 118//78
f 161//78 162//78 130//78 129//78
f 156//77 161//77 129//77 124//77
f 121//73 153//73 152//73 120//73
f 128//79 160//79 159//79 127//79
f 120//80 152//80 160//80 128//80
f 127//81 159//81 158//81 126//81
f 126//82 158//82 157//82 125//82
f 157//73 156//73 124//73 125//73
f 141//75 144//75 145//75 146//75 147//75
f 141//73 143//73 142//73 144//73
f 152//73 153//73 143//73 141//73
f 153//74 154//74 149//74 143//74
f 143//72 149//72 148//72 142//72
f 154//76 155//76 151//76 149//76
f 149//72 151//72 150//72 148//72
f 162//73 150//73 151//73 155//73
f 144//73 142//73 156//73 157//73
f 142//77 148//77 161//77 156//77
f 148//78 150//78 162//78 161//78
f 130//73 162//73 155//73 123//73
usemtl Steel
f 112//83 113//83 133//83 134//83
f 127//84 126//84 138//84 139//84
f 115//85 109//85 132//85 136//85
f 120//86 128//86 140//86 131//86
f 137//82 134//82 133//82 138//82
f 138//81 133//81 135//81 139//81
f 140//80 136//80 132//80 131//80
f 139//87 135//87 136//87 140//87
f 126//88 125//88 137//88 138//88
f 113//89 114//89 135//89 133//89
f 128//90 127//90 139//90 140//90
f 109//91 120//91 131//91 132//91
f 114//92 115//92 136//92 135//92
f 125//93 112//93 134//93 137//93
f 144//88 166//88 165//88 145//88
f 159//89 171//89 170//89 158//89
f 147//86 168//86 164//86 141//86
f 152//85 163//85 172//85 160//85
f 169//82 170//82 165//82 166//82
f 170//81 171//81 167//81 165//81
f 172//80 163//80 164//80 168//80
f 171//87 172//87 168//87 167//87
f 158//83 170//83 169//83 157//83
f 145//84 165//84 167//84 146//84
f 160//92 172//92 171//92 159//92
f 141//91 164//91 163//91 152//91
f 146//90 167//90 168//90 147//90
f 157//93 169//93 166//93 144//93
