# Blender v2.76 (sub 0) OBJ File: 'Column_Broken2.blend'
# www.blender.org
mtllib Column_Broken2.mtl
o ColumnBroken2_Cylinder.007
v 0.000000 0.007211 -1.000000
v 0.707107 0.007211 -0.707107
v 1.000000 0.007211 0.000000
v 0.707107 0.007211 0.707107
v -0.000000 0.007211 1.000000
v -0.707107 0.007211 0.707107
v -1.000000 0.007211 -0.000000
v -0.707107 0.007211 -0.707107
v -0.000000 0.207211 -1.000000
v 0.707107 0.207211 -0.707107
v 1.000000 0.207211 0.000000
v 0.707107 0.207211 0.707107
v -0.000000 0.207211 1.000000
v -0.707107 0.207211 0.707107
v -1.000000 0.207211 -0.000000
v -0.707107 0.207211 -0.707107
v -0.000000 0.207211 -0.800000
v 0.565685 0.207211 -0.565685
v 0.800000 0.207211 0.000000
v 0.565685 0.207211 0.565685
v -0.000000 0.207211 0.800000
v -0.565686 0.207211 0.565685
v -0.800000 0.207211 -0.000000
v -0.565686 0.207211 -0.565685
v -0.000000 0.407211 -0.800000
v 0.565685 0.407211 -0.565685
v 0.800000 0.407211 0.000000
v 0.565685 0.407211 0.565685
v -0.000000 0.407211 0.800000
v -0.565686 0.407211 0.565685
v -0.800000 0.407211 -0.000000
v -0.565686 0.407211 -0.565685
v -0.000000 0.407211 -0.640000
v 0.452548 0.407211 -0.452548
v 0.640000 0.407211 0.000000
v 0.452548 0.407211 0.452548
v -0.000000 0.407211 0.640000
v -0.452548 0.407211 0.452548
v -0.640000 0.407211 -0.000000
v -0.452548 0.407211 -0.452548
v -0.000000 0.607211 -0.640000
v 0.452548 0.607211 -0.452548
v 0.640000 0.607211 0.000000
v 0.452548 0.607211 0.452548
v -0.000000 0.607211 0.640000
v -0.452548 0.607211 0.452548
v -0.640000 0.607211 -0.000000
v -0.452548 0.607211 -0.452548
v -0.000000 0.607211 -0.512000
v 0.362039 0.607211 -0.362039
v 0.512000 0.607211 0.000000
v 0.362039 0.607211 0.362039
v -0.000000 0.607211 0.512000
v -0.362039 0.607211 0.362039
v -0.512000 0.607211 -0.000000
v -0.362039 0.607211 -0.362039
v 0.512000 1.586580 0.000000
v 0.362039 1.586580 0.362039
v -0.000000 1.586580 -0.512000
v 0.362039 1.586580 -0.362039
v -0.362039 1.597250 -0.362039
v -0.362039 1.597250 0.362039
v -0.512000 1.615408 -0.000000
v -0.000000 1.586580 0.512000
v 0.333523 1.586580 0.333523
v 0.333523 1.586580 -0.333523
v -0.471673 1.615408 -0.000000
v -0.000000 1.586580 0.471673
v 0.471673 1.586580 0.000000
v -0.000000 1.586580 -0.471673
v -0.333523 1.598346 -0.333523
v -0.333523 1.598346 0.333523
v 0.350700 1.510759 0.350700
v 0.350700 1.510759 -0.350700
v -0.495965 1.521833 -0.000000
v -0.000000 1.510759 0.495965
v 0.495965 1.510759 0.000000
v -0.000000 1.510759 -0.495965
v -0.350700 1.512549 -0.350700
v -0.350700 1.512549 0.350700
v 0.347785 2.524128 0.347785
v 0.347785 2.524128 -0.347785
v -0.491842 2.855404 -0.000000
v -0.000000 2.605518 0.491842
v 0.491842 2.506499 0.000000
v -0.000000 2.605519 -0.491842
v -0.347785 2.757742 -0.347785
v -0.347785 2.757742 0.347785
vn 0.000000 -1.000000 0.000000
vn 0.000000 1.000000 -0.000000
vn 0.923900 0.000000 0.382700
vn 0.382700 0.000000 -0.923900
vn -0.382700 0.000000 -0.923900
vn -0.923900 0.000000 0.382700
vn 0.382700 0.000000 0.923900
vn 0.923900 0.000000 -0.382700
vn -0.923900 0.000000 -0.382700
vn -0.382700 -0.000000 0.923900
vn -0.021900 -0.999400 -0.025000
vn -0.004300 -0.998800 0.048800
vn -0.004300 -0.998800 -0.048800
vn -0.021900 -0.999400 0.025000
vn 0.885900 0.283800 0.366900
vn 0.366900 0.283800 -0.885900
vn -0.364200 0.267600 -0.892000
vn -0.892900 0.242700 0.379200
vn 0.366900 0.283800 0.885900
vn 0.885900 0.283800 -0.366900
vn -0.892900 0.242700 -0.379200
vn -0.364200 0.267600 0.892000
vn -0.382600 0.016400 0.923800
vn -0.923700 0.016300 -0.382800
vn 0.923800 0.016400 -0.382600
vn 0.382600 0.016400 0.923800
vn -0.923700 0.016300 0.382800
vn -0.382600 0.016400 -0.923800
vn 0.382600 0.016400 -0.923800
vn 0.923800 0.016400 0.382600
vn -0.379300 0.017100 0.925100
vn -0.922900 0.015500 -0.384800
vn 0.923900 0.020000 -0.382200
vn 0.384500 0.019000 0.922900
vn -0.922900 0.015500 0.384800
vn -0.379300 0.017100 -0.925100
vn 0.384500 0.019000 -0.922900
vn 0.923900 0.020000 0.382200
vn 0.326400 0.945200 0.000000
usemtl Rock
s off
f 1//1 2//1 3//1 4//1 5//1 6//1 7//1 8//1
f 15//2 14//2 22//2 23//2
f 3//3 11//3 12//3 4//3
f 1//4 9//4 10//4 2//4
f 8//5 16//5 9//5 1//5
f 6//6 14//6 15//6 7//6
f 4//7 12//7 13//7 5//7
f 2//8 10//8 11//8 3//8
f 7//9 15//9 16//9 8//9
f 5//10 13//10 14//10 6//10
f 18//4 17//4 25//4 26//4
f 13//2 12//2 20//2 21//2
f 11//2 10//2 18//2 19//2
f 16//2 15//2 23//2 24//2
f 14//2 13//2 21//2 22//2
f 12//2 11//2 19//2 20//2
f 10//2 9//2 17//2 18//2
f 9//2 16//2 24//2 17//2
f 32//2 31//2 39//2 40//2
f 17//5 24//5 32//5 25//5
f 23//6 22//6 30//6 31//6
f 21//7 20//7 28//7 29//7
f 19//8 18//8 26//8 27//8
f 24//9 23//9 31//9 32//9
f 22//10 21//10 29//10 30//10
f 20//3 19//3 27//3 28//3
f 35//8 34//8 42//8 43//8
f 30//2 29//2 37//2 38//2
f 28//2 27//2 35//2 36//2
f 26//2 25//2 33//2 34//2
f 25//2 32//2 40//2 33//2
f 31//2 30//2 38//2 39//2
f 29//2 28//2 36//2 37//2
f 27//2 26//2 34//2 35//2
f 41//2 48//2 56//2 49//2
f 40//9 39//9 47//9 48//9
f 38//10 37//10 45//10 46//10
f 36//3 35//3 43//3 44//3
f 34//4 33//4 41//4 42//4
f 33//5 40//5 48//5 41//5
f 39//6 38//6 46//6 47//6
f 37//7 36//7 44//7 45//7
f 47//2 46//2 54//2 55//2
f 45//2 44//2 52//2 53//2
f 43//2 42//2 50//2 51//2
f 48//2 47//2 55//2 56//2
f 46//2 45//2 53//2 54//2
f 44//2 43//2 51//2 52//2
f 42//2 41//2 49//2 50//2
f 72//11 68//11 64//11 62//11
f 71//12 67//12 63//12 61//12
f 69//1 66//1 60//1 57//1
f 68//1 65//1 58//1 64//1
f 67//13 72//13 62//13 63//13
f 70//14 71//14 61//14 59//14
f 66//1 70//1 59//1 60//1
f 65//1 69//1 57//1 58//1
f 73//15 77//15 69//15 65//15
f 74//16 78//16 70//16 66//16
f 78//17 79//17 71//17 70//17
f 75//18 80//18 72//18 67//18
f 76//19 73//19 65//19 68//19
f 77//20 74//20 66//20 69//20
f 79//21 75//21 67//21 71//21
f 80//22 76//22 68//22 72//22
f 54//23 53//23 76//23 80//23
f 56//24 55//24 75//24 79//24
f 51//25 50//25 74//25 77//25
f 53//26 52//26 73//26 76//26
f 55//27 54//27 80//27 75//27
f 49//28 56//28 79//28 78//28
f 50//29 49//29 78//29 74//29
f 52//30 51//30 77//30 73//30
f 62//31 64//31 84//31 88//31
f 61//32 63//32 83//32 87//32
f 57//33 60//33 82//33 85//33
f 64//34 58//34 81//34 84//34
f 63//35 62//35 88//35 83//35
f 59//36 61//36 87//36 86//36
f 60//37 59//37 86//37 82//37
f 58//38 57//38 85//38 81//38
f 84//39 81//39 85//39 82//39 86//39 87//39 83//39 88//39
