# Blender v2.76 (sub 0) OBJ File: 'Column.blend'
# www.blender.org
mtllib Column.mtl
o Column_Cylinder.006
v 0.000000 -0.007730 -1.000000
v 0.707107 -0.007730 -0.707107
v 1.000000 -0.007730 0.000000
v 0.707107 -0.007730 0.707107
v -0.000000 -0.007730 1.000000
v -0.707107 -0.007730 0.707107
v -1.000000 -0.007730 -0.000000
v -0.707107 -0.007730 -0.707107
v -0.000000 0.192270 -1.000000
v 0.707107 0.192270 -0.707107
v 1.000000 0.192270 0.000000
v 0.707107 0.192270 0.707107
v -0.000000 0.192270 1.000000
v -0.707107 0.192270 0.707107
v -1.000000 0.192270 -0.000000
v -0.707107 0.192270 -0.707107
v -0.000000 0.192270 -0.800000
v 0.565685 0.192270 -0.565685
v 0.800000 0.192270 0.000000
v 0.565685 0.192270 0.565685
v -0.000000 0.192270 0.800000
v -0.565686 0.192270 0.565685
v -0.800000 0.192270 -0.000000
v -0.565686 0.192270 -0.565685
v -0.000000 0.392270 -0.800000
v 0.565685 0.392270 -0.565685
v 0.800000 0.392270 0.000000
v 0.565685 0.392270 0.565685
v -0.000000 0.392270 0.800000
v -0.565686 0.392270 0.565685
v -0.800000 0.392270 -0.000000
v -0.565686 0.392270 -0.565685
v -0.000000 0.392270 -0.640000
v 0.452548 0.392270 -0.452548
v 0.640000 0.392270 0.000000
v 0.452548 0.392270 0.452548
v -0.000000 0.392270 0.640000
v -0.452548 0.392270 0.452548
v -0.640000 0.392270 -0.000000
v -0.452548 0.392270 -0.452548
v -0.000000 0.592270 -0.640000
v 0.452548 0.592270 -0.452548
v 0.640000 0.592270 0.000000
v 0.452548 0.592270 0.452548
v -0.000000 0.592270 0.640000
v -0.452548 0.592270 0.452548
v -0.640000 0.592270 -0.000000
v -0.452548 0.592270 -0.452548
v -0.000000 0.592270 -0.512000
v 0.362039 0.592270 -0.362039
v 0.512000 0.592270 0.000000
v 0.362039 0.592270 0.362039
v -0.000000 0.592270 0.512000
v -0.362039 0.592270 0.362039
v -0.512000 0.592270 -0.000000
v -0.362039 0.592270 -0.362039
v -0.000000 4.509748 -0.512000
v 0.362039 4.509748 -0.362039
v 0.512000 4.509748 0.000000
v 0.362039 4.509748 0.362039
v -0.000000 4.509748 0.512000
v -0.362039 4.509748 0.362039
v -0.512000 4.509748 -0.000000
v -0.362039 4.509748 -0.362039
v 0.512000 1.571640 0.000000
v 0.512000 2.551009 0.000000
v 0.512000 3.530379 0.000000
v 0.362039 3.530379 0.362039
v 0.362039 2.551009 0.362039
v 0.362039 1.571640 0.362039
v -0.000000 1.571640 -0.512000
v -0.000000 2.551009 -0.512000
v -0.000000 3.530379 -0.512000
v 0.362039 3.530379 -0.362039
v 0.362039 2.551009 -0.362039
v 0.362039 1.571640 -0.362039
v -0.362039 1.571640 -0.362039
v -0.362039 2.551009 -0.362039
v -0.362039 3.530379 -0.362039
v -0.362039 1.571640 0.362039
v -0.362039 2.551009 0.362039
v -0.362039 3.530379 0.362039
v -0.512000 3.530379 -0.000000
v -0.512000 2.551009 -0.000000
v -0.512000 1.571640 -0.000000
v -0.000000 3.530379 0.512000
v -0.000000 2.551009 0.512000
v -0.000000 1.571640 0.512000
v 0.333523 1.571640 0.333523
v 0.333523 1.571640 -0.333523
v -0.471673 1.571640 -0.000000
v -0.000000 1.571640 0.471673
v 0.471673 1.571640 0.000000
v -0.000000 1.571640 -0.471673
v -0.333523 1.571640 -0.333523
v -0.333523 1.571640 0.333523
v 0.350700 1.495818 0.350700
v 0.350700 1.495818 -0.350700
v -0.495965 1.495818 -0.000000
v -0.000000 1.495818 0.495965
v 0.495965 1.495818 0.000000
v -0.000000 1.495818 -0.495965
v -0.350700 1.495818 -0.350700
v -0.350700 1.495818 0.350700
v 0.464268 2.551009 0.000000
v 0.328287 2.551009 0.328287
v -0.000000 2.551009 -0.464268
v 0.328287 2.551009 -0.328287
v -0.328287 2.551009 -0.328287
v -0.328287 2.551009 0.328287
v -0.464268 2.551009 -0.000000
v -0.000000 2.551009 0.464268
v 0.347785 2.480330 0.347785
v 0.347785 2.480330 -0.347785
v -0.491842 2.480330 -0.000000
v -0.000000 2.480330 0.491842
v 0.491842 2.480330 0.000000
v -0.000000 2.480330 -0.491842
v -0.347785 2.480330 -0.347785
v -0.347785 2.480330 0.347785
v 0.471492 3.530379 0.000000
v 0.333395 3.530379 0.333395
v -0.000000 3.530379 -0.471492
v 0.333395 3.530379 -0.333395
v -0.333395 3.530379 -0.333395
v -0.333395 3.530379 0.333395
v -0.471492 3.530379 -0.000000
v -0.000000 3.530379 0.471492
v 0.351455 3.488983 0.351455
v 0.351455 3.488983 -0.351455
v -0.497032 3.488983 -0.000000
v -0.000000 3.488983 0.497032
v 0.497032 3.488983 0.000000
v -0.000000 3.488983 -0.497032
v -0.351455 3.488983 -0.351455
v -0.351455 3.488983 0.351455
v -0.000000 4.509748 -0.614400
v 0.434446 4.509748 -0.434446
v 0.614400 4.509748 0.000000
v 0.434446 4.509748 0.434446
v -0.000000 4.509748 0.614400
v -0.434446 4.509748 0.434446
v -0.614400 4.509748 -0.000000
v -0.434446 4.509748 -0.434446
v -0.000000 4.709749 -0.614400
v 0.434446 4.709749 -0.434446
v 0.614400 4.709749 0.000000
v 0.434446 4.709749 0.434446
v -0.000000 4.709749 0.614400
v -0.434446 4.709749 0.434446
v -0.614400 4.709749 -0.000000
v -0.434446 4.709749 -0.434446
v -0.000000 4.709749 -0.737280
v 0.521336 4.709749 -0.521336
v 0.737280 4.709749 0.000000
v 0.521336 4.709749 0.521336
v -0.000000 4.709749 0.737280
v -0.521336 4.709749 0.521336
v -0.737280 4.709749 -0.000000
v -0.521336 4.709749 -0.521336
v -0.000000 4.909749 -0.737280
v 0.521336 4.909749 -0.521336
v 0.737280 4.909749 0.000000
v 0.521336 4.909749 0.521336
v -0.000000 4.909749 0.737280
v -0.521336 4.909749 0.521336
v -0.737280 4.909749 -0.000000
v -0.521336 4.909749 -0.521336
vn 0.000000 -1.000000 0.000000
vn 0.000000 1.000000 0.000000
vn 0.923900 0.000000 0.382700
vn 0.382700 0.000000 -0.923900
vn -0.382700 0.000000 -0.923900
vn -0.923900 0.000000 0.382700
vn 0.382700 0.000000 0.923900
vn 0.923900 0.000000 -0.382700
vn -0.923900 0.000000 -0.382700
vn -0.382700 -0.000000 0.923900
vn 0.885900 0.283800 0.366900
vn 0.366900 0.283800 -0.885900
vn -0.366900 0.283800 -0.885900
vn -0.885900 0.283800 0.366900
vn 0.366900 0.283800 0.885900
vn 0.885900 0.283800 -0.366900
vn -0.885900 0.283800 -0.366900
vn -0.366900 0.283800 0.885900
vn -0.382600 0.016400 0.923800
vn -0.923800 0.016400 -0.382600
vn 0.923800 0.016400 -0.382600
vn 0.382600 0.016400 0.923800
vn -0.923800 0.016400 0.382600
vn -0.382600 0.016400 -0.923800
vn 0.382600 0.016400 -0.923800
vn 0.923800 0.016400 0.382600
vn 0.869100 0.339100 0.360000
vn 0.360000 0.339100 -0.869100
vn -0.360000 0.339100 -0.869100
vn -0.869100 0.339100 0.360000
vn 0.360000 0.339100 0.869100
vn 0.869100 0.339100 -0.360000
vn -0.869100 0.339100 -0.360000
vn -0.360000 0.339100 0.869100
vn -0.382600 0.020500 0.923700
vn -0.923700 0.020500 -0.382600
vn 0.923700 0.020500 -0.382600
vn 0.382600 0.020500 0.923700
vn -0.923700 0.020500 0.382600
vn -0.382600 0.020500 -0.923700
vn 0.382600 0.020500 -0.923700
vn 0.923700 0.020500 0.382600
vn 0.802600 0.495200 0.332500
vn 0.332500 0.495200 -0.802600
vn -0.332500 0.495200 -0.802600
vn -0.802600 0.495200 0.332500
vn 0.332500 0.495200 0.802600
vn 0.802600 0.495200 -0.332500
vn -0.802600 0.495200 -0.332500
vn -0.332500 0.495200 0.802600
vn -0.382600 0.014700 0.923800
vn -0.923800 0.014700 -0.382600
vn 0.923800 0.014700 -0.382600
vn 0.382600 0.014700 0.923800
vn -0.923800 0.014700 0.382600
vn -0.382600 0.014700 -0.923800
vn 0.382600 0.014700 -0.923800
vn 0.923800 0.014700 0.382600
usemtl Rock
s off
f 1//1 2//1 3//1 4//1 5//1 6//1 7//1 8//1
f 15//2 14//2 22//2 23//2
f 3//3 11//3 12//3 4//3
f 1//4 9//4 10//4 2//4
f 8//5 16//5 9//5 1//5
f 6//6 14//6 15//6 7//6
f 4//7 12//7 13//7 5//7
f 2//8 10//8 11//8 3//8
f 7//9 15//9 16//9 8//9
f 5//10 13//10 14//10 6//10
f 18//4 17//4 25//4 26//4
f 13//2 12//2 20//2 21//2
f 11//2 10//2 18//2 19//2
f 16//2 15//2 23//2 24//2
f 14//2 13//2 21//2 22//2
f 12//2 11//2 19//2 20//2
f 10//2 9//2 17//2 18//2
f 9//2 16//2 24//2 17//2
f 32//2 31//2 39//2 40//2
f 17//5 24//5 32//5 25//5
f 23//6 22//6 30//6 31//6
f 21//7 20//7 28//7 29//7
f 19//8 18//8 26//8 27//8
f 24//9 23//9 31//9 32//9
f 22//10 21//10 29//10 30//10
f 20//3 19//3 27//3 28//3
f 35//8 34//8 42//8 43//8
f 30//2 29//2 37//2 38//2
f 28//2 27//2 35//2 36//2
f 26//2 25//2 33//2 34//2
f 25//2 32//2 40//2 33//2
f 31//2 30//2 38//2 39//2
f 29//2 28//2 36//2 37//2
f 27//2 26//2 34//2 35//2
f 41//2 48//2 56//2 49//2
f 40//9 39//9 47//9 48//9
f 38//10 37//10 45//10 46//10
f 36//3 35//3 43//3 44//3
f 34//4 33//4 41//4 42//4
f 33//5 40//5 48//5 41//5
f 39//6 38//6 46//6 47//6
f 37//7 36//7 44//7 45//7
f 68//3 67//3 59//3 60//3
f 47//2 46//2 54//2 55//2
f 45//2 44//2 52//2 53//2
f 43//2 42//2 50//2 51//2
f 48//2 47//2 55//2 56//2
f 46//2 45//2 53//2 54//2
f 44//2 43//2 51//2 52//2
f 42//2 41//2 49//2 50//2
f 64//1 63//1 143//1 144//1
f 74//4 73//4 57//4 58//4
f 73//5 79//5 64//5 57//5
f 83//6 82//6 62//6 63//6
f 86//7 68//7 60//7 61//7
f 67//8 74//8 58//8 59//8
f 79//9 83//9 63//9 64//9
f 82//10 86//10 61//10 62//10
f 96//1 92//1 88//1 80//1
f 110//1 112//1 87//1 81//1
f 126//1 128//1 86//1 82//1
f 95//1 91//1 85//1 77//1
f 109//1 111//1 84//1 78//1
f 125//1 127//1 83//1 79//1
f 93//1 90//1 76//1 65//1
f 105//1 108//1 75//1 66//1
f 121//1 124//1 74//1 67//1
f 92//1 89//1 70//1 88//1
f 112//1 106//1 69//1 87//1
f 128//1 122//1 68//1 86//1
f 91//1 96//1 80//1 85//1
f 111//1 110//1 81//1 84//1
f 127//1 126//1 82//1 83//1
f 94//1 95//1 77//1 71//1
f 107//1 109//1 78//1 72//1
f 123//1 125//1 79//1 73//1
f 90//1 94//1 71//1 76//1
f 108//1 107//1 72//1 75//1
f 124//1 123//1 73//1 74//1
f 89//1 93//1 65//1 70//1
f 106//1 105//1 66//1 69//1
f 122//1 121//1 67//1 68//1
f 97//11 101//11 93//11 89//11
f 98//12 102//12 94//12 90//12
f 102//13 103//13 95//13 94//13
f 99//14 104//14 96//14 91//14
f 100//15 97//15 89//15 92//15
f 101//16 98//16 90//16 93//16
f 103//17 99//17 91//17 95//17
f 104//18 100//18 92//18 96//18
f 54//19 53//19 100//19 104//19
f 56//20 55//20 99//20 103//20
f 51//21 50//21 98//21 101//21
f 53//22 52//22 97//22 100//22
f 55//23 54//23 104//23 99//23
f 49//24 56//24 103//24 102//24
f 50//25 49//25 102//25 98//25
f 52//26 51//26 101//26 97//26
f 113//27 117//27 105//27 106//27
f 114//28 118//28 107//28 108//28
f 118//29 119//29 109//29 107//29
f 115//30 120//30 110//30 111//30
f 116//31 113//31 106//31 112//31
f 117//32 114//32 108//32 105//32
f 119//33 115//33 111//33 109//33
f 120//34 116//34 112//34 110//34
f 80//35 88//35 116//35 120//35
f 77//36 85//36 115//36 119//36
f 65//37 76//37 114//37 117//37
f 88//38 70//38 113//38 116//38
f 85//39 80//39 120//39 115//39
f 71//40 77//40 119//40 118//40
f 76//41 71//41 118//41 114//41
f 70//42 65//42 117//42 113//42
f 129//43 133//43 121//43 122//43
f 130//44 134//44 123//44 124//44
f 134//45 135//45 125//45 123//45
f 131//46 136//46 126//46 127//46
f 132//47 129//47 122//47 128//47
f 133//48 130//48 124//48 121//48
f 135//49 131//49 127//49 125//49
f 136//50 132//50 128//50 126//50
f 81//51 87//51 132//51 136//51
f 78//52 84//52 131//52 135//52
f 66//53 75//53 130//53 133//53
f 87//54 69//54 129//54 132//54
f 84//55 81//55 136//55 131//55
f 72//56 78//56 135//56 134//56
f 75//57 72//57 134//57 130//57
f 69//58 66//58 133//58 129//58
f 142//10 141//10 149//10 150//10
f 62//1 61//1 141//1 142//1
f 60//1 59//1 139//1 140//1
f 58//1 57//1 137//1 138//1
f 57//1 64//1 144//1 137//1
f 63//1 62//1 142//1 143//1
f 61//1 60//1 140//1 141//1
f 59//1 58//1 138//1 139//1
f 152//1 151//1 159//1 160//1
f 140//3 139//3 147//3 148//3
f 138//4 137//4 145//4 146//4
f 137//5 144//5 152//5 145//5
f 143//6 142//6 150//6 151//6
f 141//7 140//7 148//7 149//7
f 139//8 138//8 146//8 147//8
f 144//9 143//9 151//9 152//9
f 159//6 158//6 166//6 167//6
f 150//1 149//1 157//1 158//1
f 148//1 147//1 155//1 156//1
f 146//1 145//1 153//1 154//1
f 145//1 152//1 160//1 153//1
f 151//1 150//1 158//1 159//1
f 149//1 148//1 156//1 157//1
f 147//1 146//1 154//1 155//1
f 161//2 168//2 167//2 166//2 165//2 164//2 163//2 162//2
f 157//7 156//7 164//7 165//7
f 155//8 154//8 162//8 163//8
f 160//9 159//9 167//9 168//9
f 158//10 157//10 165//10 166//10
f 156//3 155//3 163//3 164//3
f 154//4 153//4 161//4 162//4
f 153//5 160//5 168//5 161//5
