# Blender v2.76 (sub 0) OBJ File: 'Entrance.blend'
# www.blender.org
mtllib Entrance.mtl
o Entrance_Cylinder.009
v 0.161142 3.083832 0.000000
v 0.161142 2.949858 0.500000
v 0.161142 2.583832 0.866026
v 0.161142 2.083832 1.000000
v 0.161142 2.083832 -1.000000
v 0.161142 2.583832 -0.866026
v 0.161142 2.949857 -0.500000
v 0.161142 -0.006752 1.000000
v 0.161142 -0.006753 -1.000000
v 0.161142 2.837916 0.000000
v 0.161142 2.735322 0.382886
v 0.161142 2.455030 0.663178
v 0.161142 2.072144 0.765773
v 0.161142 2.072143 -0.765772
v 0.161142 2.455030 -0.663179
v 0.161142 2.735322 -0.382887
v 0.161142 -0.006752 0.765773
v 0.161142 -0.006753 -0.765773
v -0.161142 3.083832 0.000000
v -0.161142 2.949858 0.500000
v -0.161142 2.583832 0.866026
v -0.161141 2.083832 1.000000
v -0.161142 2.083832 -1.000000
v -0.161142 2.583832 -0.866026
v -0.161142 2.949857 -0.500000
v -0.161141 -0.006752 1.000000
v -0.161142 -0.006753 -1.000000
v -0.161142 2.837916 0.000000
v -0.161142 2.735322 0.382886
v -0.161142 2.455030 0.663178
v -0.161142 2.072144 0.765773
v -0.161142 2.072143 -0.765772
v -0.161142 2.455030 -0.663179
v -0.161142 2.735322 -0.382887
v -0.161141 -0.006752 0.765773
v -0.161142 -0.006753 -0.765772
v -0.161142 3.083832 0.000000
v -0.161142 2.949858 0.500000
v -0.161142 2.583832 0.866026
v -0.161142 2.083832 1.000000
v -0.161142 2.083832 -1.000000
v -0.161142 2.583832 -0.866026
v -0.161142 2.949857 -0.500000
v -0.161142 -0.006752 1.000000
v -0.161142 -0.006753 -1.000000
v -0.161142 2.837916 0.000000
v -0.161142 2.735322 0.382886
v -0.161142 2.455030 0.663178
v -0.161142 2.072144 0.765773
v -0.161142 2.072143 -0.765772
v -0.161142 2.455030 -0.663179
v -0.161142 2.735322 -0.382887
v -0.161142 -0.006752 0.765773
v -0.161142 -0.006753 -0.765773
v 0.161142 3.083832 0.000000
v 0.161142 2.949858 0.500000
v 0.161142 2.583832 0.866026
v 0.161141 2.083832 1.000000
v 0.161142 2.083832 -1.000000
v 0.161142 2.583832 -0.866026
v 0.161142 2.949857 -0.500000
v 0.161141 -0.006752 1.000000
v 0.161142 -0.006753 -1.000000
v 0.161142 2.837916 0.000000
v 0.161142 2.735322 0.382886
v 0.161142 2.455030 0.663178
v 0.161142 2.072144 0.765773
v 0.161142 2.072143 -0.765772
v 0.161142 2.455030 -0.663179
v 0.161142 2.735322 -0.382887
v 0.161141 -0.006752 0.765773
v 0.161142 -0.006753 -0.765772
vn 1.000000 0.000000 -0.000000
vn 0.000000 0.000000 -1.000000
vn 0.000000 -0.258800 -0.965900
vn 0.000000 -1.000000 0.000000
vn 0.000000 0.000000 1.000000
vn 0.000000 0.707100 -0.707100
vn 0.000000 0.965900 -0.258800
vn 0.000000 0.258800 -0.965900
vn 0.000000 0.258800 0.965900
vn 0.000000 0.707100 0.707100
vn 0.000000 0.965900 0.258800
vn 0.000000 -0.258800 0.965900
vn 0.000000 -0.965900 -0.258800
vn 0.000000 -0.707100 0.707100
vn 0.000000 -0.707100 -0.707100
vn 0.000000 -0.965900 0.258800
vn -1.000000 0.000000 -0.000000
usemtl Rock
s off
f 1//1 2//1 11//1 10//1
f 23//2 5//2 9//2 27//2
f 9//1 5//1 14//1 18//1
f 13//2 17//2 35//2 31//2
f 12//3 13//3 31//3 30//3
f 7//1 1//1 10//1 16//1
f 3//1 4//1 13//1 12//1
f 6//1 7//1 16//1 15//1
f 2//1 3//1 12//1 11//1
f 5//1 6//1 15//1 14//1
f 4//1 8//1 17//1 13//1
f 8//4 26//4 35//4 17//4
f 4//5 22//5 26//5 8//5
f 6//6 24//6 25//6 7//6
f 7//7 25//7 19//7 1//7
f 5//8 23//8 24//8 6//8
f 3//9 21//9 22//9 4//9
f 2//10 20//10 21//10 3//10
f 1//11 19//11 20//11 2//11
f 14//12 15//12 33//12 32//12
f 10//13 11//13 29//13 28//13
f 15//14 16//14 34//14 33//14
f 11//15 12//15 30//15 29//15
f 18//5 14//5 32//5 36//5
f 16//16 10//16 28//16 34//16
f 18//4 36//4 27//4 9//4
f 37//17 46//17 47//17 38//17
f 59//2 63//2 45//2 41//2
f 45//17 54//17 50//17 41//17
f 49//2 67//2 71//2 53//2
f 48//3 66//3 67//3 49//3
f 43//17 52//17 46//17 37//17
f 39//17 48//17 49//17 40//17
f 42//17 51//17 52//17 43//17
f 38//17 47//17 48//17 39//17
f 41//17 50//17 51//17 42//17
f 40//17 49//17 53//17 44//17
f 44//4 53//4 71//4 62//4
f 40//5 44//5 62//5 58//5
f 42//6 43//6 61//6 60//6
f 43//7 37//7 55//7 61//7
f 41//8 42//8 60//8 59//8
f 39//9 40//9 58//9 57//9
f 38//10 39//10 57//10 56//10
f 37//11 38//11 56//11 55//11
f 50//12 68//12 69//12 51//12
f 46//13 64//13 65//13 47//13
f 51//14 69//14 70//14 52//14
f 47//15 65//15 66//15 48//15
f 54//5 72//5 68//5 50//5
f 52//16 70//16 64//16 46//16
f 54//4 45//4 63//4 72//4
