# Blender v2.76 (sub 0) OBJ File: 'Entrance2.blend'
# www.blender.org
mtllib Entrance2.mtl
o Entrance2_Cylinder.011
v 0.125236 3.576554 -0.000001
v 0.125236 3.421498 0.578677
v 0.125236 2.997876 1.002299
v 0.125236 2.419198 1.157356
v 0.125236 2.419197 -1.157357
v 0.125236 2.997875 -1.002301
v 0.125236 3.421497 -0.578679
v 0.125236 -0.000353 1.157356
v 0.125236 -0.000354 -1.157357
v 0.107767 3.089259 -0.000001
v 0.107767 2.993367 0.357875
v 0.107767 2.731384 0.619858
v 0.107767 2.373508 0.715750
v 0.107767 2.373508 -0.715752
v 0.107767 2.731383 -0.619860
v 0.107767 2.993366 -0.357877
v 0.107767 -0.002145 0.715751
v 0.107767 -0.002146 -0.715752
v 0.223410 2.923368 0.972757
v 0.223410 2.460426 1.096802
v 0.209434 2.710175 0.666803
v 0.209434 2.423874 0.743517
v 0.223416 3.341714 0.588187
v 0.223416 3.002817 0.927085
v 0.209441 2.999209 0.411545
v 0.209441 2.789623 0.621132
v 0.223420 3.511695 0.045867
v 0.223420 3.387650 0.508810
v 0.209445 3.121859 0.045867
v 0.209445 3.045145 0.332167
v 0.223420 3.387649 -0.508812
v 0.223420 3.511695 -0.045869
v 0.209445 3.045145 -0.332169
v 0.209445 3.121859 -0.045869
v 0.223416 3.002816 -0.927087
v 0.223416 3.341714 -0.588189
v 0.209441 2.789623 -0.621134
v 0.209441 2.999209 -0.411547
v 0.223409 2.460425 -1.096803
v 0.223409 2.923368 -0.972758
v 0.209434 2.423874 -0.743519
v 0.209434 2.710174 -0.666805
v 0.125236 0.483557 1.157356
v 0.125236 0.967467 1.157356
v 0.125236 1.451377 1.157356
v 0.125236 1.935287 1.157356
v 0.107767 0.472985 0.715751
v 0.107767 0.948116 0.715751
v 0.107767 1.423247 0.715750
v 0.107767 1.898377 0.715750
v 0.125236 1.935287 -1.157357
v 0.125236 1.451377 -1.157357
v 0.125236 0.967466 -1.157357
v 0.125236 0.483556 -1.157357
v 0.107767 1.898377 -0.715752
v 0.107767 1.423246 -0.715752
v 0.107767 0.948116 -0.715752
v 0.107767 0.472985 -0.715752
v 0.223489 2.366676 -1.113197
v 0.209514 2.330125 -0.759912
v 0.223489 1.979548 1.113195
v 0.223489 2.366677 1.113195
v 0.209514 1.950020 0.759911
v 0.209514 2.330125 0.759911
v 0.223489 1.979548 -1.113197
v 0.209514 1.950020 -0.759912
v 0.223489 1.496516 1.113195
v 0.223489 1.883644 1.113195
v 0.209514 1.474012 0.759911
v 0.209514 1.854116 0.759911
v 0.223489 1.883644 -1.113197
v 0.223489 1.496516 -1.113197
v 0.209514 1.854116 -0.759912
v 0.209514 1.474011 -0.759912
v 0.223489 1.013484 1.113195
v 0.223489 1.400612 1.113195
v 0.209514 0.998003 0.759911
v 0.209514 1.378108 0.759911
v 0.223489 1.400612 -1.113197
v 0.223489 1.013483 -1.113197
v 0.209514 1.378107 -0.759912
v 0.209514 0.998003 -0.759912
v 0.223489 0.530452 1.113195
v 0.223489 0.917580 1.113195
v 0.209514 0.521995 0.759911
v 0.209514 0.902099 0.759911
v 0.223489 0.917579 -1.113197
v 0.223489 0.530451 -1.113197
v 0.209514 0.902099 -0.759912
v 0.209514 0.521994 -0.759912
v 0.223489 0.434547 -1.113197
v 0.223489 0.047419 -1.113197
v 0.209514 0.426090 -0.759912
v 0.209514 0.045986 -0.759912
v 0.209514 0.045986 0.759911
v 0.223489 0.047419 1.113195
v 0.223489 0.434548 1.113195
v 0.209514 0.426090 0.759911
v -0.125236 3.576554 -0.000001
v -0.125236 3.421498 0.578677
v -0.125236 2.997876 1.002299
v -0.125236 2.419198 1.157356
v -0.125236 2.419197 -1.157357
v -0.125236 2.997875 -1.002301
v -0.125236 3.421497 -0.578679
v -0.125236 -0.000353 1.157356
v -0.125236 -0.000354 -1.157357
v -0.107767 3.089259 -0.000001
v -0.107767 2.993367 0.357875
v -0.107767 2.731384 0.619858
v -0.107767 2.373508 0.715750
v -0.107767 2.373508 -0.715752
v -0.107767 2.731383 -0.619860
v -0.107767 2.993366 -0.357877
v -0.107767 -0.002145 0.715751
v -0.107767 -0.002146 -0.715752
v 0.000000 3.576554 -0.000001
v 0.000000 3.421498 0.578677
v 0.000000 2.997876 1.002299
v 0.000000 2.419198 1.157356
v 0.000000 2.419197 -1.157357
v 0.000000 2.997875 -1.002301
v 0.000000 3.421497 -0.578679
v 0.000000 -0.000353 1.157356
v 0.000000 -0.000354 -1.157357
v 0.000000 3.089259 -0.000001
v 0.000000 2.993367 0.357875
v 0.000000 2.731384 0.619858
v 0.000000 2.373508 0.715750
v 0.000000 2.373508 -0.715752
v 0.000000 2.731383 -0.619860
v 0.000000 2.993366 -0.357877
v 0.000000 -0.002145 0.715751
v 0.000000 -0.002146 -0.715752
v -0.223410 2.923368 0.972757
v -0.223410 2.460426 1.096802
v -0.209434 2.710175 0.666803
v -0.209434 2.423874 0.743517
v -0.223416 3.341714 0.588187
v -0.223416 3.002817 0.927085
v -0.209441 2.999209 0.411545
v -0.209441 2.789623 0.621132
v -0.223420 3.511695 0.045867
v -0.223420 3.387650 0.508810
v -0.209445 3.121859 0.045867
v -0.209445 3.045145 0.332167
v -0.223420 3.387649 -0.508812
v -0.223420 3.511695 -0.045869
v -0.209445 3.045145 -0.332169
v -0.209445 3.121859 -0.045869
v -0.223416 3.002816 -0.927087
v -0.223416 3.341714 -0.588189
v -0.209441 2.789623 -0.621134
v -0.209441 2.999209 -0.411547
v -0.223409 2.460425 -1.096803
v -0.223409 2.923368 -0.972758
v -0.209434 2.423874 -0.743519
v -0.209434 2.710174 -0.666805
v -0.125236 0.483557 1.157356
v -0.125236 0.967467 1.157356
v -0.125236 1.451377 1.157356
v -0.125236 1.935287 1.157356
v -0.107767 0.472985 0.715751
v -0.107767 0.948116 0.715751
v -0.107767 1.423247 0.715750
v -0.107767 1.898377 0.715750
v 0.000000 1.935287 1.157356
v 0.000000 1.451377 1.157356
v 0.000000 0.967467 1.157356
v 0.000000 0.483557 1.157356
v 0.000000 0.472985 0.715751
v 0.000000 0.948116 0.715751
v 0.000000 1.423247 0.715750
v 0.000000 1.898377 0.715750
v -0.125236 1.935287 -1.157357
v -0.125236 1.451377 -1.157357
v -0.125236 0.967466 -1.157357
v -0.125236 0.483556 -1.157357
v -0.107767 1.898377 -0.715752
v -0.107767 1.423246 -0.715752
v -0.107767 0.948116 -0.715752
v -0.107767 0.472985 -0.715752
v 0.000000 1.935287 -1.157357
v 0.000000 1.451377 -1.157357
v 0.000000 0.967466 -1.157357
v 0.000000 0.483556 -1.157357
v 0.000000 1.898377 -0.715752
v 0.000000 1.423246 -0.715752
v 0.000000 0.948116 -0.715752
v 0.000000 0.472985 -0.715752
v -0.223489 2.366676 -1.113197
v -0.209514 2.330125 -0.759912
v -0.223489 1.979548 1.113195
v -0.223489 2.366677 1.113195
v -0.209514 1.950020 0.759911
v -0.209514 2.330125 0.759911
v -0.223489 1.979548 -1.113197
v -0.209514 1.950020 -0.759912
v -0.223489 1.496516 1.113195
v -0.223489 1.883644 1.113195
v -0.209514 1.474012 0.759911
v -0.209514 1.854116 0.759911
v -0.223489 1.883644 -1.113197
v -0.223489 1.496516 -1.113197
v -0.209514 1.854116 -0.759912
v -0.209514 1.474011 -0.759912
v -0.223489 1.013484 1.113195
v -0.223489 1.400612 1.113195
v -0.209514 0.998003 0.759911
v -0.209514 1.378108 0.759911
v -0.223489 1.400612 -1.113197
v -0.223489 1.013483 -1.113197
v -0.209514 1.378107 -0.759912
v -0.209514 0.998003 -0.759912
v -0.223489 0.530452 1.113195
v -0.223489 0.917580 1.113195
v -0.209514 0.521995 0.759911
v -0.209514 0.902099 0.759911
v -0.223489 0.917579 -1.113197
v -0.223489 0.530451 -1.113197
v -0.209514 0.902099 -0.759912
v -0.209514 0.521994 -0.759912
v -0.223489 0.434547 -1.113197
v -0.223489 0.047419 -1.113197
v -0.209514 0.426090 -0.759912
v -0.209514 0.045986 -0.759912
v -0.209514 0.045986 0.759911
v -0.223489 0.047419 1.113195
v -0.223489 0.434548 1.113195
v -0.209514 0.426090 0.759911
vn 0.459400 0.858000 0.229900
vn 0.000000 0.000000 -1.000000
vn 0.429800 0.896200 -0.109700
vn 0.000000 -0.258800 -0.965900
vn 0.459400 0.858000 -0.229900
vn 0.437900 0.232700 0.868400
vn 0.424400 -0.751900 -0.504500
vn 0.451600 0.630900 0.630900
vn 0.402200 0.742400 0.535700
vn 0.432300 -0.901600 0.013400
vn 0.000000 -1.000000 0.004100
vn 0.000000 0.000000 1.000000
vn 0.000000 0.707100 -0.707100
vn 0.000000 0.965900 -0.258800
vn 0.000000 0.258800 -0.965900
vn 0.000000 0.258800 0.965900
vn -0.000000 0.707100 0.707100
vn 0.000000 0.965900 0.258800
vn 0.000000 -0.258800 0.965900
vn 0.000000 -0.965900 -0.258800
vn 0.000000 -0.707100 0.707100
vn 0.000000 -0.707100 -0.707100
vn 0.000000 -0.965900 0.258800
vn -0.000000 -1.000000 -0.004100
vn 0.999200 -0.010300 -0.038500
vn 0.425800 -0.901600 0.076400
vn 0.402200 0.742400 -0.535700
vn 0.365000 -0.241000 -0.899300
vn 0.999300 -0.026900 -0.026900
vn 0.382400 -0.653400 -0.653400
vn 0.408500 0.405200 -0.817900
vn 0.424400 -0.751900 0.504500
vn 0.999300 -0.035800 -0.009600
vn 0.420700 -0.429300 0.799200
vn 0.392300 -0.888500 -0.238100
vn 0.415100 -0.014900 -0.909600
vn 0.999300 -0.035800 0.009600
vn 0.392300 -0.888500 0.238100
vn 0.420700 -0.429300 -0.799200
vn 0.415100 -0.014900 0.909600
vn 0.999300 -0.026900 0.026900
vn 0.451600 0.630900 -0.630900
vn 0.408500 0.405200 0.817900
vn 0.382400 -0.653400 0.653400
vn 0.999200 -0.010300 0.038500
vn 0.365000 -0.241000 0.899300
vn 0.437900 0.232700 -0.868400
vn 0.425800 -0.901600 -0.076400
vn 0.398100 0.000000 0.917300
vn 0.432000 -0.901000 0.040300
vn 0.398100 -0.000000 -0.917300
vn 0.410000 0.000000 -0.912100
vn 0.431700 0.900300 0.056500
vn 0.432300 -0.901500 -0.022400
vn 0.410000 0.000000 0.912100
vn 0.999200 0.000000 0.039500
vn 0.999200 -0.000000 -0.039500
vn 0.429800 0.896200 0.109700
vn 0.431600 -0.900200 0.058200
vn 0.431600 -0.900200 -0.058200
vn 0.432000 -0.901000 -0.040300
vn 0.430500 0.897900 -0.092100
vn 0.430500 0.897900 0.092100
vn 0.431200 0.899200 -0.074300
vn 0.431200 0.899200 0.074300
vn 0.432300 -0.901500 0.022400
vn 0.432400 -0.901700 0.004500
vn 0.432400 -0.901700 -0.004500
vn 0.431700 0.900300 -0.056500
vn 0.432100 0.901000 -0.038700
vn 0.432100 0.901000 0.038700
vn 0.432300 -0.901600 -0.013400
vn -0.459400 0.858000 0.229900
vn -0.429800 0.896200 -0.109700
vn -0.459400 0.858000 -0.229900
vn -0.437900 0.232700 0.868400
vn -0.424400 -0.751900 -0.504500
vn -0.451600 0.630900 0.630900
vn -0.402200 0.742400 0.535700
vn -0.432300 -0.901600 0.013400
vn -0.999200 -0.010300 -0.038500
vn -0.425800 -0.901600 0.076400
vn -0.402200 0.742400 -0.535700
vn -0.365000 -0.241000 -0.899300
vn -0.999300 -0.026900 -0.026900
vn -0.382400 -0.653400 -0.653400
vn -0.408500 0.405200 -0.817900
vn -0.424400 -0.751900 0.504500
vn -0.999300 -0.035800 -0.009600
vn -0.420700 -0.429300 0.799200
vn -0.392300 -0.888500 -0.238100
vn -0.415100 -0.014900 -0.909600
vn -0.999300 -0.035800 0.009600
vn -0.392300 -0.888500 0.238100
vn -0.420700 -0.429300 -0.799200
vn -0.415100 -0.014900 0.909600
vn -0.999300 -0.026900 0.026900
vn -0.451600 0.630900 -0.630900
vn -0.408500 0.405200 0.817900
vn -0.382400 -0.653400 0.653400
vn -0.999200 -0.010300 0.038500
vn -0.365000 -0.241000 0.899300
vn -0.437900 0.232700 -0.868400
vn -0.425800 -0.901600 -0.076400
vn -0.398100 0.000000 0.917300
vn -0.432000 -0.901000 0.040300
vn -0.398100 -0.000000 -0.917300
vn -0.410000 0.000000 -0.912100
vn -0.431700 0.900300 0.056500
vn -0.432300 -0.901500 -0.022400
vn -0.410000 0.000000 0.912100
vn -0.999200 0.000000 0.039500
vn -0.999200 0.000000 -0.039500
vn -0.429800 0.896200 0.109700
vn -0.431600 -0.900200 0.058200
vn -0.431600 -0.900200 -0.058200
vn -0.432000 -0.901000 -0.040300
vn -0.430500 0.897900 -0.092100
vn -0.430500 0.897900 0.092100
vn -0.431200 0.899200 -0.074300
vn -0.431200 0.899200 0.074300
vn -0.432300 -0.901500 0.022400
vn -0.432400 -0.901700 0.004500
vn -0.432400 -0.901700 -0.004500
vn -0.431700 0.900300 -0.056500
vn -0.432100 0.901000 -0.038700
vn -0.432100 0.901000 0.038700
vn -0.432300 -0.901600 -0.013400
usemtl Rock
s off
f 1//1 2//1 28//1 27//1
f 186//2 54//2 9//2 125//2
f 13//3 4//3 62//3 64//3
f 47//2 17//2 133//2 171//2
f 12//4 13//4 129//4 128//4
f 7//5 1//5 32//5 31//5
f 3//6 4//6 20//6 19//6
f 15//7 6//7 35//7 37//7
f 2//8 3//8 24//8 23//8
f 6//9 15//9 42//9 40//9
f 18//10 9//10 92//10 94//10
f 8//11 124//11 133//11 17//11
f 43//12 170//12 124//12 8//12
f 6//13 122//13 123//13 7//13
f 7//14 123//14 117//14 1//14
f 5//15 121//15 122//15 6//15
f 3//16 119//16 120//16 4//16
f 2//17 118//17 119//17 3//17
f 1//18 117//18 118//18 2//18
f 14//19 15//19 131//19 130//19
f 10//20 11//20 127//20 126//20
f 15//21 16//21 132//21 131//21
f 11//22 12//22 128//22 127//22
f 55//12 14//12 130//12 187//12
f 16//23 10//23 126//23 132//23
f 18//24 134//24 125//24 9//24
f 19//25 20//25 22//25 21//25
f 4//26 13//26 22//26 20//26
f 12//27 3//27 19//27 21//27
f 13//28 12//28 21//28 22//28
f 23//29 24//29 26//29 25//29
f 12//30 11//30 25//30 26//30
f 11//31 2//31 23//31 25//31
f 3//32 12//32 26//32 24//32
f 27//33 28//33 30//33 29//33
f 2//34 11//34 30//34 28//34
f 11//35 10//35 29//35 30//35
f 10//36 1//36 27//36 29//36
f 31//37 32//37 34//37 33//37
f 10//38 16//38 33//38 34//38
f 16//39 7//39 31//39 33//39
f 1//40 10//40 34//40 32//40
f 35//41 36//41 38//41 37//41
f 6//42 7//42 36//42 35//42
f 7//43 16//43 38//43 36//43
f 16//44 15//44 37//44 38//44
f 39//45 40//45 42//45 41//45
f 15//46 14//46 41//46 42//46
f 5//47 6//47 40//47 39//47
f 14//48 5//48 39//48 41//48
f 4//12 120//12 167//12 46//12
f 46//12 167//12 168//12 45//12
f 45//12 168//12 169//12 44//12
f 44//12 169//12 170//12 43//12
f 14//49 55//49 66//49 60//49
f 45//50 49//50 69//50 67//50
f 56//49 57//49 82//49 81//49
f 47//51 48//51 86//51 85//51
f 13//2 50//2 174//2 129//2
f 50//2 49//2 173//2 174//2
f 49//2 48//2 172//2 173//2
f 48//2 47//2 171//2 172//2
f 18//12 58//12 190//12 134//12
f 58//12 57//12 189//12 190//12
f 57//12 56//12 188//12 189//12
f 56//12 55//12 187//12 188//12
f 9//52 54//52 91//52 92//52
f 53//53 57//53 89//53 87//53
f 57//54 53//54 80//54 82//54
f 46//55 45//55 67//55 68//55
f 121//2 5//2 51//2 183//2
f 183//2 51//2 52//2 184//2
f 184//2 52//2 53//2 185//2
f 185//2 53//2 54//2 186//2
f 65//56 59//56 60//56 66//56
f 62//57 61//57 63//57 64//57
f 51//52 5//52 59//52 65//52
f 4//55 46//55 61//55 62//55
f 50//51 13//51 64//51 63//51
f 5//58 14//58 60//58 59//58
f 46//59 50//59 63//59 61//59
f 55//60 51//60 65//60 66//60
f 68//57 67//57 69//57 70//57
f 72//56 71//56 73//56 74//56
f 56//61 52//61 72//61 74//61
f 55//49 56//49 74//49 73//49
f 50//62 46//62 68//62 70//62
f 51//63 55//63 73//63 71//63
f 52//52 51//52 71//52 72//52
f 49//51 50//51 70//51 69//51
f 76//57 75//57 77//57 78//57
f 80//56 79//56 81//56 82//56
f 49//64 45//64 76//64 78//64
f 53//52 52//52 79//52 80//52
f 52//65 56//65 81//65 79//65
f 48//51 49//51 78//51 77//51
f 45//55 44//55 75//55 76//55
f 44//66 48//66 77//66 75//66
f 84//57 83//57 85//57 86//57
f 88//56 87//56 89//56 90//56
f 44//55 43//55 83//55 84//55
f 43//67 47//67 85//67 83//67
f 58//68 54//68 88//68 90//68
f 57//49 58//49 90//49 89//49
f 48//69 44//69 84//69 86//69
f 54//52 53//52 87//52 88//52
f 97//57 96//57 95//57 98//57
f 92//56 91//56 93//56 94//56
f 58//49 18//49 94//49 93//49
f 47//70 43//70 97//70 98//70
f 54//71 58//71 93//71 91//71
f 17//51 47//51 98//51 95//51
f 43//55 8//55 96//55 97//55
f 8//72 17//72 95//72 96//72
f 99//73 143//73 144//73 100//73
f 186//2 125//2 107//2 178//2
f 111//74 196//74 194//74 102//74
f 163//2 171//2 133//2 115//2
f 110//4 128//4 129//4 111//4
f 105//75 147//75 148//75 99//75
f 101//76 135//76 136//76 102//76
f 113//77 153//77 151//77 104//77
f 100//78 139//78 140//78 101//78
f 104//79 156//79 158//79 113//79
f 116//80 226//80 224//80 107//80
f 106//11 115//11 133//11 124//11
f 159//12 106//12 124//12 170//12
f 104//13 105//13 123//13 122//13
f 105//14 99//14 117//14 123//14
f 103//15 104//15 122//15 121//15
f 101//16 102//16 120//16 119//16
f 100//17 101//17 119//17 118//17
f 99//18 100//18 118//18 117//18
f 112//19 130//19 131//19 113//19
f 108//20 126//20 127//20 109//20
f 113//21 131//21 132//21 114//21
f 109//22 127//22 128//22 110//22
f 179//12 187//12 130//12 112//12
f 114//23 132//23 126//23 108//23
f 116//24 107//24 125//24 134//24
f 135//81 137//81 138//81 136//81
f 102//82 136//82 138//82 111//82
f 110//83 137//83 135//83 101//83
f 111//84 138//84 137//84 110//84
f 139//85 141//85 142//85 140//85
f 110//86 142//86 141//86 109//86
f 109//87 141//87 139//87 100//87
f 101//88 140//88 142//88 110//88
f 143//89 145//89 146//89 144//89
f 100//90 144//90 146//90 109//90
f 109//91 146//91 145//91 108//91
f 108//92 145//92 143//92 99//92
f 147//93 149//93 150//93 148//93
f 108//94 150//94 149//94 114//94
f 114//95 149//95 147//95 105//95
f 99//96 148//96 150//96 108//96
f 151//97 153//97 154//97 152//97
f 104//98 151//98 152//98 105//98
f 105//99 152//99 154//99 114//99
f 114//100 154//100 153//100 113//100
f 155//101 157//101 158//101 156//101
f 113//102 158//102 157//102 112//102
f 103//103 155//103 156//103 104//103
f 112//104 157//104 155//104 103//104
f 102//12 162//12 167//12 120//12
f 162//12 161//12 168//12 167//12
f 161//12 160//12 169//12 168//12
f 160//12 159//12 170//12 169//12
f 112//105 192//105 198//105 179//105
f 161//106 199//106 201//106 165//106
f 180//105 213//105 214//105 181//105
f 163//107 217//107 218//107 164//107
f 111//2 129//2 174//2 166//2
f 166//2 174//2 173//2 165//2
f 165//2 173//2 172//2 164//2
f 164//2 172//2 171//2 163//2
f 116//12 134//12 190//12 182//12
f 182//12 190//12 189//12 181//12
f 181//12 189//12 188//12 180//12
f 180//12 188//12 187//12 179//12
f 107//108 224//108 223//108 178//108
f 177//109 219//109 221//109 181//109
f 181//110 214//110 212//110 177//110
f 162//111 200//111 199//111 161//111
f 121//2 183//2 175//2 103//2
f 183//2 184//2 176//2 175//2
f 184//2 185//2 177//2 176//2
f 185//2 186//2 178//2 177//2
f 197//112 198//112 192//112 191//112
f 194//113 196//113 195//113 193//113
f 175//108 197//108 191//108 103//108
f 102//111 194//111 193//111 162//111
f 166//107 195//107 196//107 111//107
f 103//114 191//114 192//114 112//114
f 162//115 193//115 195//115 166//115
f 179//116 198//116 197//116 175//116
f 200//113 202//113 201//113 199//113
f 204//112 206//112 205//112 203//112
f 180//117 206//117 204//117 176//117
f 179//105 205//105 206//105 180//105
f 166//118 202//118 200//118 162//118
f 175//119 203//119 205//119 179//119
f 176//108 204//108 203//108 175//108
f 165//107 201//107 202//107 166//107
f 208//113 210//113 209//113 207//113
f 212//112 214//112 213//112 211//112
f 165//120 210//120 208//120 161//120
f 177//108 212//108 211//108 176//108
f 176//121 211//121 213//121 180//121
f 164//107 209//107 210//107 165//107
f 161//111 208//111 207//111 160//111
f 160//122 207//122 209//122 164//122
f 216//113 218//113 217//113 215//113
f 220//112 222//112 221//112 219//112
f 160//111 216//111 215//111 159//111
f 159//123 215//123 217//123 163//123
f 182//124 222//124 220//124 178//124
f 181//105 221//105 222//105 182//105
f 164//125 218//125 216//125 160//125
f 178//108 220//108 219//108 177//108
f 229//113 230//113 227//113 228//113
f 224//112 226//112 225//112 223//112
f 182//105 225//105 226//105 116//105
f 163//126 230//126 229//126 159//126
f 178//127 223//127 225//127 182//127
f 115//107 227//107 230//107 163//107
f 159//111 229//111 228//111 106//111
f 106//128 228//128 227//128 115//128
