# Blender v2.76 (sub 0) OBJ File: 'Potion5.blend'
# www.blender.org
mtllib Potion5.mtl
o Potion5_Cylinder.016
v -0.125075 0.538646 -0.040639
v -0.000000 0.318131 -0.246929
v -0.077300 0.538646 0.106395
v 0.234843 0.318131 -0.076305
v 0.077300 0.538646 0.106395
v 0.145141 0.318131 0.199769
v -0.000000 0.538646 -0.131511
v -0.145141 0.318131 0.199769
v 0.125075 0.538646 -0.040639
v -0.234843 0.318131 -0.076305
v -0.000000 -0.001971 -0.102765
v -0.000000 0.043405 -0.165392
v 0.097736 -0.001971 -0.031756
v 0.157297 0.043405 -0.051109
v 0.060404 -0.001971 0.083139
v 0.097215 0.043405 0.133805
v -0.060404 -0.001971 0.083139
v -0.097215 0.043405 0.133805
v -0.097736 -0.001971 -0.031756
v -0.157297 0.043405 -0.051109
v -0.000000 0.590441 -0.131511
v -0.125075 0.590441 -0.040639
v -0.077300 0.590441 0.106395
v 0.077300 0.590441 0.106395
v 0.125075 0.590441 -0.040639
v -0.000000 0.590441 -0.161562
v -0.153655 0.590441 -0.049925
v -0.094964 0.590441 0.130706
v 0.094964 0.590441 0.130706
v 0.153655 0.590441 -0.049925
v -0.000000 0.658513 -0.161562
v -0.153655 0.658513 -0.049925
v -0.094964 0.658513 0.130706
v 0.094964 0.658513 0.130706
v 0.153655 0.658513 -0.049925
v -0.000000 0.658513 -0.101686
v -0.096709 0.658513 -0.031423
v -0.059769 0.658513 0.082265
v 0.059769 0.658513 0.082265
v 0.096709 0.658513 -0.031423
v -0.000000 0.626589 -0.101686
v -0.096709 0.626589 -0.031423
v -0.059769 0.626589 0.082265
v 0.059769 0.626589 0.082265
v 0.096709 0.626589 -0.031423
v -0.000000 0.626589 -0.070474
v -0.067025 0.626589 -0.021778
v -0.041424 0.626589 0.057015
v 0.041424 0.626589 0.057015
v 0.067025 0.626589 -0.021778
v -0.000000 0.690438 -0.070474
v -0.067025 0.690438 -0.021778
v -0.041424 0.690438 0.057015
v 0.041424 0.690438 0.057015
v 0.067025 0.690438 -0.021778
v -0.000000 0.725403 -0.127065
v -0.120846 0.725403 -0.039265
v -0.074687 0.725403 0.102797
v 0.074687 0.725403 0.102797
v 0.120846 0.725403 -0.039265
v -0.000000 0.790773 -0.127065
v -0.120846 0.790773 -0.039265
v -0.074687 0.790773 0.102797
v 0.074687 0.790773 0.102797
v 0.120846 0.790773 -0.039265
v -0.106204 0.491257 -0.034508
v -0.000000 0.304012 -0.209673
v -0.065638 0.491257 0.090343
v 0.199411 0.304012 -0.064792
v 0.065638 0.491257 0.090343
v 0.123243 0.304012 0.169629
v -0.000000 0.491257 -0.111670
v -0.123243 0.304012 0.169629
v 0.106204 0.491257 -0.034508
v -0.199411 0.304012 -0.064793
v -0.000000 0.032206 -0.087261
v -0.000000 0.070736 -0.140438
v 0.082990 0.032206 -0.026965
v 0.133565 0.070736 -0.043398
v 0.051290 0.032206 0.070595
v 0.082547 0.070736 0.113617
v -0.051290 0.032206 0.070595
v -0.082548 0.070736 0.113617
v -0.082990 0.032206 -0.026965
v -0.133565 0.070736 -0.043398
vn -0.571500 -0.233500 -0.786700
vn -0.000000 -0.233500 0.972400
vn -0.924800 -0.233500 0.300500
vn -0.875800 0.389900 0.284600
vn 0.924800 -0.233500 0.300500
vn 0.571500 -0.233500 -0.786700
vn 0.392100 -0.744900 -0.539700
vn 0.634500 -0.744900 0.206200
vn -0.000000 -0.744900 0.667100
vn -0.634500 -0.744900 0.206200
vn -0.392100 -0.744900 -0.539700
vn 0.000000 -1.000000 -0.000000
vn 0.875800 0.389900 0.284600
vn -0.541300 0.389900 -0.745000
vn 0.541300 0.389900 -0.745000
vn -0.000000 0.389900 0.920800
vn 0.000000 1.000000 0.000000
vn 0.951100 0.000000 0.309000
vn 0.356800 -0.794700 -0.491000
vn -0.951100 0.000000 0.309000
vn 0.587800 0.000000 -0.809000
vn -0.000000 0.000000 1.000000
vn -0.587800 -0.000000 -0.809000
vn -0.000000 -0.794700 0.607000
vn -0.356800 -0.794700 -0.491000
vn 0.577200 -0.794700 0.187600
vn -0.577200 -0.794700 0.187600
vn 0.951100 0.000000 -0.309000
vn -0.587800 0.000000 0.809000
vn 0.000000 0.000000 -1.000000
vn 0.587800 0.000000 0.809000
vn -0.951100 0.000000 -0.309000
usemtl Liquid
s off
f 85//1 75//1 67//1 77//1
f 81//2 71//2 73//2 83//2
f 83//3 73//3 75//3 85//3
f 75//4 73//4 68//4 66//4
f 79//5 69//5 71//5 81//5
f 77//6 67//6 69//6 79//6
f 77//7 79//7 78//7 76//7
f 79//8 81//8 80//8 78//8
f 81//9 83//9 82//9 80//9
f 83//10 85//10 84//10 82//10
f 85//11 77//11 76//11 84//11
f 76//12 78//12 80//12 82//12 84//12
f 71//13 69//13 74//13 70//13
f 67//14 75//14 66//14 72//14
f 69//15 67//15 72//15 74//15
f 73//16 71//16 70//16 68//16
f 72//17 66//17 68//17 70//17 74//17
usemtl Cork
f 49//18 50//18 55//18 54//18
f 55//19 51//19 56//19 60//19
f 47//20 48//20 53//20 52//20
f 50//21 46//21 51//21 55//21
f 48//22 49//22 54//22 53//22
f 46//23 47//23 52//23 51//23
f 59//18 60//18 65//18 64//18
f 53//24 54//24 59//24 58//24
f 51//25 52//25 57//25 56//25
f 54//26 55//26 60//26 59//26
f 52//27 53//27 58//27 57//27
f 65//17 61//17 62//17 63//17 64//17
f 57//20 58//20 63//20 62//20
f 60//21 56//21 61//21 65//21
f 58//22 59//22 64//22 63//22
f 56//23 57//23 62//23 61//23
usemtl Glass
f 20//1 10//1 2//1 12//1
f 16//2 6//2 8//2 18//2
f 18//3 8//3 10//3 20//3
f 10//4 8//4 3//4 1//4
f 14//5 4//5 6//5 16//5
f 3//22 5//22 24//22 23//22
f 12//6 2//6 4//6 14//6
f 12//7 14//7 13//7 11//7
f 14//8 16//8 15//8 13//8
f 16//9 18//9 17//9 15//9
f 18//10 20//10 19//10 17//10
f 20//11 12//11 11//11 19//11
f 11//12 13//12 15//12 17//12 19//12
f 6//13 4//13 9//13 5//13
f 2//14 10//14 1//14 7//14
f 4//15 2//15 7//15 9//15
f 8//16 6//16 5//16 3//16
f 24//12 25//12 30//12 29//12
f 1//20 3//20 23//20 22//20
f 9//21 7//21 21//21 25//21
f 5//18 9//18 25//18 24//18
f 7//23 1//23 22//23 21//23
f 30//21 26//21 31//21 35//21
f 22//12 23//12 28//12 27//12
f 25//12 21//12 26//12 30//12
f 23//12 24//12 29//12 28//12
f 21//12 22//12 27//12 26//12
f 31//17 32//17 37//17 36//17
f 28//22 29//22 34//22 33//22
f 26//23 27//23 32//23 31//23
f 29//18 30//18 35//18 34//18
f 27//20 28//20 33//20 32//20
f 37//28 38//28 43//28 42//28
f 34//17 35//17 40//17 39//17
f 32//17 33//17 38//17 37//17
f 35//17 31//17 36//17 40//17
f 33//17 34//17 39//17 38//17
f 43//17 44//17 49//17 48//17
f 40//29 36//29 41//29 45//29
f 38//30 39//30 44//30 43//30
f 36//31 37//31 42//31 41//31
f 39//32 40//32 45//32 44//32
f 41//17 42//17 47//17 46//17
f 44//17 45//17 50//17 49//17
f 42//17 43//17 48//17 47//17
f 45//17 41//17 46//17 50//17
