# Blender v2.76 (sub 0) OBJ File: 'Rock4.blend'
# www.blender.org
mtllib Rock4.mtl
o Rock4_Icosphere
v -0.008227 -0.016757 0.415621
v 0.259098 0.311630 0.079888
v -0.165008 0.487149 0.075165
v -0.483340 -0.006572 0.088451
v -0.156653 -0.010260 0.088550
v 0.320674 -0.013805 0.088645
v 0.062184 0.385935 -0.196787
v -0.211919 0.438667 -0.072172
v -0.391027 -0.012159 -0.176673
v 0.226291 -0.017393 -0.176532
v 0.367316 0.217572 -0.182855
v -0.018121 -0.012839 -0.407319
vn 0.237000 0.593400 0.769200
vn 0.696300 0.150600 0.701800
vn -0.524200 0.358700 0.772400
vn -0.011300 -0.999800 -0.014700
vn -0.007400 -0.999800 -0.016500
vn 0.930300 0.184600 0.317100
vn 0.382500 0.923600 -0.024200
vn -0.836100 0.541500 0.088000
vn -0.011300 -0.999800 0.017100
vn -0.007400 -0.999800 0.016200
vn 0.484000 0.868000 -0.111400
vn 0.035400 0.945900 -0.322500
vn -0.857800 0.412000 -0.307300
vn -0.008500 -0.999900 0.014700
vn 0.818600 -0.499000 -0.284600
vn 0.265000 0.407900 -0.873700
vn -0.280200 0.491700 -0.824400
vn -0.486900 0.376200 -0.788300
vn -0.008500 -0.999900 -0.010800
vn 0.627000 -0.394400 -0.671800
usemtl Rock.003
s off
f 1//1 2//1 3//1
f 2//2 1//2 6//2
f 1//3 3//3 4//3
f 1//4 4//4 5//4
f 1//5 5//5 6//5
f 2//6 6//6 11//6
f 3//7 2//7 7//7
f 4//8 3//8 8//8
f 5//9 4//9 9//9
f 6//10 5//10 10//10
f 2//11 11//11 7//11
f 3//12 7//12 8//12
f 4//13 8//13 9//13
f 5//14 9//14 10//14
f 6//15 10//15 11//15
f 7//16 11//16 12//16
f 8//17 7//17 12//17
f 9//18 8//18 12//18
f 10//19 9//19 12//19
f 11//20 10//20 12//20
