# Blender v2.76 (sub 0) OBJ File: 'Rock5.blend'
# www.blender.org
mtllib Rock5.mtl
o Rock5_Icosphere.001
v 0.016777 -0.034400 0.274039
v -0.088883 0.277274 0.035761
v -0.360823 -0.010550 0.112180
v 0.267704 -0.030697 0.132228
v 0.247115 0.282593 -0.009565
v 0.025296 -0.022550 -0.250953
vn 0.094700 0.624700 0.775100
vn 0.448000 0.392900 0.803000
vn -0.312100 0.508000 0.802800
vn -0.029500 -0.996500 -0.078100
vn -0.110200 0.664700 -0.739000
vn -0.619200 0.406600 -0.671800
vn -0.032000 -0.999500 -0.001000
vn 0.828800 -0.184600 -0.528200
usemtl Rock.004
s off
f 1//1 5//1 2//1
f 5//2 1//2 4//2
f 1//3 2//3 3//3
f 1//4 3//4 4//4
f 2//5 5//5 6//5
f 3//6 2//6 6//6
f 4//7 3//7 6//7
f 5//8 4//8 6//8
