# Blender v2.76 (sub 0) OBJ File: 'WallRocks.blend'
# www.blender.org
mtllib WallRocks.mtl
o WallRocks_Cube.029
v -0.019388 0.578844 0.941076
v -0.044934 -1.022940 -0.887270
v -0.019388 0.793981 0.479102
v 0.084075 0.578844 0.941076
v 0.084075 0.793981 0.479102
v -0.044934 0.482340 0.493983
v -0.044934 -0.440118 -0.300404
v 0.059947 0.482340 0.493983
v -0.045009 -0.357177 0.047502
v -0.019388 0.749461 0.918445
v -0.019388 0.838363 0.750932
v 0.084075 0.838363 0.750932
v 0.084075 0.749461 0.918445
v -0.028556 0.259906 0.112857
v -0.032852 -0.103201 -1.028729
v -0.028556 0.060805 0.162452
v 0.076325 0.259906 0.112857
v 0.076325 0.060805 0.162452
v -0.044934 0.128250 0.267099
v -0.044934 0.100413 0.369190
v 0.059947 0.100413 0.369190
v 0.059947 0.128250 0.267099
v -0.044934 -0.648897 -0.281317
v 0.059872 -0.357177 0.047502
v 0.059947 -0.440118 -0.300404
v 0.059947 -0.648897 -0.281317
v -0.044934 -0.769025 -0.047223
v -0.044934 -0.487806 0.160785
v 0.059947 -0.487806 0.160785
v 0.059947 -0.769025 -0.047223
v -0.044934 -0.809984 1.017210
v -0.044934 -0.834723 0.816960
v -0.044934 -1.022940 1.017210
v -0.046593 0.182908 0.739997
v 0.059947 -0.809984 1.017210
v 0.059947 -0.834723 0.816960
v 0.059947 -1.022940 1.017210
v -0.046593 0.115150 0.969863
v -0.063220 0.485773 0.777443
v -0.063220 0.355119 0.650782
v -0.063220 0.542413 1.017210
v -0.063220 0.209767 1.017210
v 0.041661 0.485773 0.777443
v 0.041661 0.355119 0.650782
v 0.041661 0.542413 1.017210
v 0.041661 0.209767 1.017210
v -0.063220 0.224078 -0.884400
v -0.063220 0.366220 -0.893425
v -0.063220 0.212092 -1.028729
v -0.063220 0.544738 -1.028729
v 0.041661 0.224078 -0.884400
v 0.041661 0.366220 -0.893425
v 0.041661 0.212092 -1.028729
v 0.041661 0.544738 -1.028729
v -0.044934 -0.941228 -0.928873
v 0.059947 -1.022940 -1.028729
v 0.059947 -0.888963 -0.982229
v 0.059947 -0.809984 -1.028729
v -0.044934 -1.022940 -1.028729
v -0.044934 -0.888963 -0.982229
v -0.044934 -0.809984 -1.028729
v -0.037464 1.015616 -0.572776
v -0.037464 1.015616 -0.140792
v -0.037464 0.901008 -0.580942
v 0.061503 1.015616 -0.140792
v 0.061503 1.015616 -0.572776
v 0.061503 0.901008 -0.580942
v -0.037464 0.818639 -0.384031
v -0.037464 0.885767 -0.173503
v 0.061503 0.885767 -0.173503
v 0.061503 0.818639 -0.384031
v -0.046395 -1.022940 -0.140792
v -0.046395 -1.022940 -0.572780
v -0.046395 -0.818109 -0.102146
v 0.061408 -1.022940 -0.572780
v 0.061408 -1.022940 -0.140792
v 0.061408 -0.818109 -0.102146
v -0.046395 -0.720866 -0.313344
v -0.046395 -0.754010 -0.543825
v 0.061408 -0.754010 -0.543825
v 0.061408 -0.720866 -0.313344
v -0.028556 -0.108581 1.017210
v -0.028556 -0.191888 0.592722
v -0.028556 -0.334881 0.614681
v 0.076325 -0.108581 1.017210
v 0.076325 -0.191888 0.592722
v 0.076325 -0.334881 0.614681
v -0.028556 -0.468493 0.722151
v -0.028556 -0.458111 1.017210
v 0.076325 -0.458111 1.017210
v 0.076325 -0.468493 0.722151
v -0.044934 -0.552763 0.579116
v -0.044934 -0.417470 0.396218
v 0.059947 -0.552763 0.579116
v 0.059947 -0.417470 0.396218
v -0.066234 -0.032754 0.426962
v -0.066234 -0.028948 0.094156
v -0.066234 -0.232554 0.557668
v 0.040453 -0.032754 0.426962
v 0.040453 -0.028948 0.094156
v 0.040453 -0.232554 0.557668
v -0.044934 -0.791403 0.433102
v -0.044934 -0.743011 0.527475
v 0.059947 -0.743011 0.527475
v 0.059947 -0.791403 0.433102
v -0.044934 -0.543477 0.217680
v -0.044934 -0.709509 0.235674
v 0.059947 -0.709509 0.235674
v 0.059947 -0.543477 0.217680
v -0.066234 -0.218558 0.053237
v -0.066234 -0.343460 0.269388
v 0.040453 -0.343460 0.269388
v 0.040453 -0.218558 0.053237
v -0.044934 0.124001 0.550288
v -0.044934 0.226609 0.600496
v 0.059947 0.226609 0.600496
v 0.059947 0.124001 0.550288
v -0.028556 0.206527 -0.307585
v -0.028556 0.108681 -0.268413
v 0.076325 0.108681 -0.268413
v 0.076325 0.206527 -0.307585
v -0.044934 -0.933820 0.717172
v -0.044934 -1.022940 0.744979
v 0.059947 -1.022940 0.744979
v 0.059947 -0.933820 0.717172
v -0.046593 -0.042273 0.972466
v 0.060278 0.115150 0.969863
v 0.060278 0.182908 0.739997
v 0.060278 -0.042273 0.972466
v -0.046593 0.005234 0.570914
v -0.046593 -0.103007 0.630954
v 0.060278 -0.103007 0.630954
v 0.060278 0.005234 0.570914
v -0.063220 0.244018 0.843060
v 0.041661 0.244018 0.843060
v -0.019388 0.632329 0.381779
v -0.019388 0.537956 0.484777
v 0.084075 0.537956 0.484777
v 0.084075 0.632329 0.381779
v 0.059901 -0.890044 -0.053465
v 0.059901 -1.022940 -0.012293
v -0.046216 -1.022940 -0.012293
v -0.046216 -0.890044 -0.053465
v 0.059901 -1.022940 0.522230
v 0.059901 -0.773858 0.134285
v 0.059901 -0.915726 0.512273
v -0.046216 -1.022940 0.517289
v -0.046216 -0.915726 0.507332
v -0.046216 -0.773858 0.134285
v 0.059947 -1.022940 -0.887270
v 0.059947 -0.941228 -0.928873
v -0.044934 1.015616 0.516611
v -0.044934 1.015616 -0.014697
v 0.059947 1.015616 0.516611
v 0.059947 1.015616 -0.014697
v -0.044934 0.897750 0.001241
v -0.044934 0.798818 0.083801
v 0.059947 0.798818 0.083801
v 0.059947 0.897750 0.001241
v -0.044934 0.819281 0.387424
v -0.044934 0.925014 0.462632
v 0.059947 0.925014 0.462632
v 0.059947 0.819281 0.387424
v -0.046395 0.895120 1.017210
v -0.046395 0.903123 0.843163
v -0.046395 1.015616 1.017210
v 0.060080 0.903123 0.843163
v 0.060080 0.895120 1.017210
v 0.060080 1.015616 1.017210
v -0.046395 0.903123 -0.963354
v -0.046395 1.015616 0.745305
v 0.060080 1.015616 0.745305
v -0.046395 0.895120 -1.028729
v -0.046395 1.015616 -1.028729
v 0.061408 0.903123 -0.963354
v 0.061408 0.895120 -1.028729
v 0.061408 1.015616 -1.028729
v -0.046395 1.015616 -0.887259
v 0.061408 1.015616 -0.887259
v -0.044934 0.480779 0.297197
v -0.044934 0.344930 0.198526
v 0.059947 0.344930 0.198526
v 0.059947 0.480779 0.297197
v -0.049121 -0.190212 -0.416011
v -0.049230 -0.030225 -0.334260
v -0.049121 -0.343256 -0.388552
v 0.064038 -0.030225 -0.334260
v 0.064147 -0.190212 -0.416011
v 0.064147 -0.343256 -0.388552
v -0.049121 -0.306045 -0.092160
v -0.046593 0.738701 0.234116
v -0.046593 0.715914 -0.004444
v 0.064147 -0.306045 -0.092160
v -0.049121 -0.131086 -0.044706
v -0.049168 -0.009020 -0.149658
v 0.064100 -0.009020 -0.149658
v 0.064147 -0.131086 -0.044706
v -0.046593 0.593588 0.295197
v 0.060278 0.738701 0.234116
v 0.060278 0.715914 -0.004444
v 0.060278 0.593588 0.295197
v -0.046593 0.494365 -0.003250
v -0.046593 0.416296 0.092802
v 0.060278 0.416296 0.092802
v 0.060278 0.494365 -0.003250
v -0.044934 -0.342992 -0.674080
v 0.059947 -0.342992 -0.674080
v -0.044934 -0.646275 -0.571559
v -0.044934 -0.587407 -0.737808
v 0.059947 -0.587407 -0.737808
v 0.059947 -0.646275 -0.571559
v -0.046593 0.773182 -0.124161
v -0.046593 0.736161 -0.474260
v -0.044934 0.511856 -0.529804
v 0.059947 0.511856 -0.529804
v -0.044934 0.108287 -0.609962
v -0.044934 0.196880 -0.767159
v 0.059947 0.196880 -0.767159
v 0.059947 0.108287 -0.609962
v -0.044934 0.320543 -0.359319
v -0.044934 0.159183 -0.402370
v 0.059947 0.159183 -0.402370
v 0.059947 0.320543 -0.359319
v -0.044934 -0.543588 -0.845200
v -0.044934 -0.417902 -0.851920
v 0.059947 -0.417902 -0.851920
v 0.059947 -0.543588 -0.845200
v -0.046593 0.627892 -0.523696
v 0.061606 0.736161 -0.474260
v 0.061606 0.773182 -0.124161
v 0.061606 0.627892 -0.523696
v -0.046593 0.567215 -0.090040
v -0.046593 0.419064 -0.260700
v 0.061606 0.419064 -0.260700
v 0.061606 0.567215 -0.090040
v -0.044934 -0.408630 -0.411132
v -0.044934 -0.624810 -0.369844
v 0.059947 -0.624810 -0.369844
v 0.059947 -0.408630 -0.411132
v -0.046593 0.882593 -0.757593
v -0.046593 0.795296 -0.565219
v -0.046593 0.596685 -0.596941
v 0.061606 0.795296 -0.565219
v 0.061606 0.882593 -0.757593
v 0.061606 0.596685 -0.596941
v -0.046593 0.733963 -1.019615
v -0.046593 0.562354 -1.007101
v 0.061606 0.562354 -1.007101
v 0.061606 0.733963 -1.019615
v -0.044934 0.480900 -0.718223
v -0.044934 0.389428 -0.787832
v 0.059947 0.389428 -0.787832
v 0.059947 0.480900 -0.718223
v -0.028556 0.379152 -0.040344
v -0.028556 0.371465 -0.148467
v 0.076325 0.371465 -0.148467
v 0.076325 0.379152 -0.040344
v -0.032743 -0.457923 -1.028729
v 0.080416 -0.103201 -1.028729
v 0.080525 -0.457923 -1.028729
v -0.032743 -0.352044 -0.892868
v 0.080525 -0.352044 -0.892868
v -0.032743 -0.201211 -0.847270
v -0.032791 -0.081001 -0.941087
v 0.080478 -0.081001 -0.941087
v 0.080525 -0.201211 -0.847270
v -0.028034 -0.042393 -0.456174
v -0.028034 -0.287898 -0.591401
v -0.028034 -0.046186 -0.877606
v 0.080166 -0.287898 -0.591401
v 0.080166 -0.042393 -0.456174
v 0.080166 -0.046186 -0.877606
v -0.028034 0.058882 -0.493616
v -0.028034 0.091297 -0.801127
v 0.080166 0.091297 -0.801127
v 0.080166 0.058882 -0.493616
v -0.061877 -0.657741 -0.717890
v -0.061877 -0.587303 -0.880916
v -0.061877 -0.749976 -0.971891
v 0.046323 -0.587303 -0.880916
v 0.046323 -0.657741 -0.717890
v 0.046323 -0.749976 -0.971891
v -0.061877 -0.878094 -0.613554
v -0.061877 -0.948971 -0.780237
v 0.046323 -0.948971 -0.780237
v 0.046323 -0.878094 -0.613554
v -0.068042 -0.741589 0.989066
v -0.067953 -0.537299 0.949738
v 0.038975 -0.741589 0.989066
v 0.039064 -0.537299 0.949738
v -0.067953 -0.547961 0.724293
v 0.039064 -0.547961 0.724293
v -0.067953 -0.625136 0.631215
v -0.067992 -0.835552 0.695569
v 0.039025 -0.835552 0.695569
v 0.039064 -0.625136 0.631215
vn 0.000000 0.986900 -0.161100
vn -1.000000 0.000000 0.000000
vn 0.000000 -0.996000 0.089200
vn 1.000000 0.000000 0.000000
vn 0.000000 0.384500 0.923100
vn 0.000000 0.655200 0.755500
vn 0.000000 -0.991600 0.129200
vn 0.000000 -0.301700 -0.953400
vn 0.000000 0.883300 0.468800
vn 0.000000 0.131500 0.991300
vn 0.000000 -0.993900 -0.110400
vn 0.000000 -0.289400 0.957200
vn 0.000000 0.694300 -0.719700
vn 0.000000 0.241700 0.970300
vn 0.000000 -0.964800 -0.263100
vn -1.000000 -0.000100 -0.000000
vn 0.000000 0.972700 -0.231900
vn 1.000000 0.000100 0.000000
vn 0.000000 -0.091000 -0.995800
vn 0.000000 -0.594700 0.804000
vn 0.000000 -0.889700 -0.456600
vn 0.000000 -1.000000 0.000000
vn 0.000000 -0.984600 0.175100
vn 0.000000 0.992500 -0.122600
vn 0.000000 0.000000 1.000000
vn 0.000000 0.696000 -0.718000
vn 0.000000 -0.981200 -0.193000
vn 0.000000 0.000000 -1.000000
vn 0.000000 0.063400 0.998000
vn 0.000000 -0.996600 0.082800
vn 0.000000 0.604000 0.797000
vn 0.000000 0.714400 0.699800
vn 0.000000 -0.244300 0.969700
vn 0.000000 1.000000 0.000000
vn 0.000000 0.071100 -0.997500
vn 0.000000 -0.952700 0.303800
vn 0.000000 -0.922500 -0.385900
vn 0.000000 0.107100 -0.994300
vn 0.000000 -0.185400 0.982700
vn 0.000000 0.989800 -0.142300
vn 0.000000 0.908300 0.418200
vn 0.000000 0.981300 -0.192600
vn 0.000000 -0.151800 -0.988400
vn 0.000000 -0.999400 0.035200
vn 0.000000 -0.626800 -0.779200
vn 0.000000 -0.262000 0.965100
vn 0.000000 0.804000 0.594700
vn 0.000000 -0.923700 -0.383100
vn 0.000000 -0.933300 0.359100
vn 0.000000 0.999900 0.011400
vn 0.000000 0.547400 0.836800
vn 0.000000 -0.889800 0.456300
vn 0.000000 -0.107700 -0.994200
vn 0.000000 0.817000 -0.576600
vn 0.000000 -0.865800 -0.500300
vn 0.000000 0.211000 -0.977500
vn 0.000000 -0.439500 0.898200
vn 0.000000 -0.371700 -0.928400
vn 0.000000 -0.297900 -0.954600
vn 0.000000 0.709600 -0.704600
vn 0.000000 0.959200 0.282700
vn 0.000000 0.016500 0.999900
vn 0.000000 -0.485100 -0.874500
vn 0.000000 0.689400 -0.724400
vn 0.000000 -0.865900 -0.500300
vn 0.000000 0.973200 -0.229900
vn 0.000000 -0.737300 -0.675600
vn 0.000000 0.515800 -0.856700
vn 0.000000 0.453700 0.891100
vn 0.000000 0.850300 -0.526200
vn 0.000000 -0.295900 -0.955200
vn -0.046300 0.092400 0.994600
vn -0.008200 0.935400 0.353400
vn 0.000000 0.507400 0.861700
vn 0.000000 -0.511800 0.859100
vn 0.000000 -0.997700 0.067200
vn 0.000000 -0.640700 -0.767800
vn 0.000000 -0.134000 -0.991000
vn 0.000000 -0.579600 0.814900
vn 0.000000 -0.656300 -0.754500
vn 0.000000 -0.998900 -0.045900
vn 0.000000 -0.992600 0.121500
vn 0.000000 -0.560300 0.828300
vn 0.000000 0.587700 -0.809100
vn 0.000000 1.000000 -0.007900
vn 0.000000 -0.261800 0.965100
vn 1.000000 0.000200 -0.000100
vn 0.000000 0.455000 -0.890500
vn 0.000000 -0.752200 0.658900
vn 0.000000 -0.176600 -0.984300
vn -1.000000 -0.000200 0.000100
vn 0.000000 -0.992200 0.124600
vn 0.000000 0.652000 0.758300
vn 0.000000 0.993500 -0.114100
vn 0.000000 0.995500 -0.095100
vn 0.000000 0.388000 0.921700
vn 0.000000 -0.776000 -0.630700
vn 0.000000 -0.005400 -1.000000
vn 0.000000 0.921600 -0.388200
vn 0.000000 -0.925900 -0.377800
vn 0.000000 -0.994400 0.105800
vn 0.000000 -0.942600 -0.333800
vn 0.000000 -0.783100 -0.621800
vn 0.000000 -0.106800 -0.994300
vn 0.000000 -0.971200 0.238100
vn 0.000000 -0.871200 -0.491000
vn 0.000000 -0.257800 0.966200
vn 0.000000 0.665300 0.746600
vn 0.000000 -0.053400 -0.998600
vn 0.000000 0.994500 -0.105200
vn 0.000000 0.415300 -0.909700
vn 0.000000 -0.755100 0.655600
vn 0.000000 0.163400 0.986600
vn 0.000000 0.187600 0.982200
vn 0.000000 0.970200 0.242200
vn 0.000000 -0.996500 0.083400
vn 0.000000 0.910600 0.413200
vn 0.000000 -0.157700 0.987500
vn 0.000000 -0.072700 -0.997400
vn 0.000000 0.869800 -0.493400
vn 0.000000 0.605600 -0.795800
vn 0.000000 0.986800 -0.162100
vn 0.000000 0.997500 -0.070900
vn 0.000000 0.789100 0.614200
vn -1.000000 -0.000200 0.000400
vn 0.000000 -0.788800 0.614700
vn 0.000000 0.615200 0.788300
vn 0.000000 0.969400 -0.245500
vn 1.000000 0.000200 -0.000400
vn 0.000000 0.486100 -0.873900
vn 0.000000 -0.482500 0.875900
vn 0.000000 -0.764000 -0.645200
vn 0.000000 0.994500 0.104800
vn 0.000000 0.346800 0.938000
vn 0.000000 -0.693700 -0.720300
vn 0.000000 0.918000 0.396600
vn 0.000000 0.488100 -0.872800
vn 0.000000 -0.920300 0.391300
vn 0.000000 0.427900 0.903800
vn 0.000000 0.769800 -0.638300
vn 0.000000 0.189000 0.982000
vn -1.000000 0.000200 -0.000100
vn 0.000000 0.998900 -0.047200
vn 0.000000 -0.292500 -0.956300
vn 0.000000 -0.952400 0.304900
vn 1.000000 -0.000200 0.000100
usemtl RockLight
s off
f 12//1 5//1 3//1 11//1
f 10//2 11//2 3//2 136//2 137//2 1//2
f 1//3 137//3 138//3 4//3
f 5//4 12//4 13//4 4//4 138//4 139//4
f 8//5 6//5 115//5 116//5
f 9//6 28//6 29//6 24//6
f 114//7 20//7 21//7 117//7
f 181//8 182//8 22//8 19//8
f 12//9 11//9 10//9 13//9
f 13//10 10//10 1//10 4//10
f 119//11 120//11 18//11 16//11
f 266//12 263//12 261//12 262//12
f 256//13 121//13 118//13 255//13
f 14//14 16//14 18//14 17//14
f 120//4 121//4 256//4 257//4 17//4 18//4
f 21//15 20//15 19//15 22//15
f 6//2 180//2 181//2 19//2 20//2 114//2 115//2
f 7//16 23//16 27//16 28//16 9//16
f 25//17 7//17 9//17 24//17
f 26//18 25//18 24//18 29//18 30//18
f 25//19 26//19 23//19 7//19
f 29//20 28//20 27//20 30//20
f 23//21 26//21 30//21 27//21
f 123//22 124//22 37//22 33//22
f 124//4 125//4 36//4 35//4 37//4
f 131//23 132//23 129//23 126//23
f 36//24 32//24 31//24 35//24
f 31//25 33//25 37//25 35//25
f 32//2 122//2 123//2 33//2 31//2
f 42//25 46//25 45//25 41//25
f 40//2 134//2 42//2 41//2 39//2
f 44//26 40//26 39//26 43//26
f 46//4 135//4 44//4 43//4 45//4
f 135//27 46//27 42//27 134//27
f 48//2 50//2 49//2 47//2
f 50//28 54//28 53//28 49//28
f 54//4 52//4 51//4 53//4
f 52//29 48//29 47//29 51//29
f 47//30 49//30 53//30 51//30
f 52//31 54//31 50//31 48//31
f 57//32 60//32 55//32 151//32
f 63//33 69//33 70//33 65//33
f 62//2 64//2 68//2 69//2 63//2
f 66//34 62//34 63//34 65//34
f 67//4 66//4 65//4 70//4 71//4
f 66//35 67//35 64//35 62//35
f 70//36 69//36 68//36 71//36
f 64//37 67//37 71//37 68//37
f 73//38 79//38 80//38 75//38
f 72//2 74//2 78//2 79//2 73//2
f 76//22 72//22 73//22 75//22
f 77//4 76//4 75//4 80//4 81//4
f 76//39 77//39 74//39 72//39
f 80//40 79//40 78//40 81//40
f 74//41 77//41 81//41 78//41
f 82//25 89//25 90//25 85//25
f 83//2 84//2 88//2 89//2 82//2
f 86//42 83//42 82//42 85//42
f 87//4 86//4 85//4 90//4 91//4
f 86//43 87//43 84//43 83//43
f 90//44 89//44 88//44 91//44
f 84//45 87//45 91//45 88//45
f 92//46 103//46 104//46 94//46
f 108//4 109//4 95//4 94//4 104//4 105//4
f 95//47 93//47 92//47 94//47
f 107//48 108//48 105//48 102//48
f 111//49 112//49 101//49 98//49
f 112//4 113//4 100//4 99//4 101//4
f 100//50 97//50 96//50 99//50
f 96//51 98//51 101//51 99//51
f 97//2 110//2 111//2 98//2 96//2
f 104//52 103//52 102//52 105//52
f 93//2 106//2 107//2 102//2 103//2 92//2
f 106//53 109//53 108//53 107//53
f 95//54 109//54 106//54 93//54
f 110//55 113//55 112//55 111//55
f 100//56 113//56 110//56 97//56
f 114//57 117//57 116//57 115//57
f 182//4 183//4 8//4 116//4 117//4 21//4 22//4
f 118//58 121//58 120//58 119//58
f 254//2 255//2 118//2 119//2 16//2 14//2
f 122//59 125//59 124//59 123//59
f 36//60 125//60 122//60 32//60
f 132//4 133//4 128//4 127//4 129//4
f 128//61 34//61 38//61 127//61
f 38//62 126//62 129//62 127//62
f 34//2 130//2 131//2 126//2 38//2
f 130//63 133//63 132//63 131//63
f 128//64 133//64 130//64 34//64
f 44//65 135//65 134//65 40//65
f 39//66 41//66 45//66 43//66
f 138//67 137//67 136//67 139//67
f 3//68 5//68 139//68 136//68
f 55//69 2//69 150//69 151//69
f 60//2 61//2 59//2 2//2 55//2
f 61//28 58//28 56//28 59//28
f 145//70 140//70 143//70 149//70
f 143//71 140//71 141//71 142//71
f 149//2 143//2 142//2 147//2 148//2
f 148//72 147//72 144//72 146//72
f 145//73 149//73 148//73 146//73
f 141//4 140//4 145//4 146//4 144//4
f 142//22 141//22 144//22 147//22
f 57//74 58//74 61//74 60//74
f 150//4 56//4 58//4 57//4 151//4
f 2//22 59//22 56//22 150//22
f 155//4 154//4 162//4 163//4 158//4 159//4
f 154//75 152//75 161//75 162//75
f 160//76 157//76 158//76 163//76
f 154//34 155//34 153//34 152//34
f 158//77 157//77 156//77 159//77
f 153//78 155//78 159//78 156//78
f 160//79 163//79 162//79 161//79
f 152//2 153//2 156//2 157//2 160//2 161//2
f 165//80 171//80 172//80 167//80
f 179//34 177//34 174//34 178//34
f 168//81 164//81 165//81 167//81
f 176//28 173//28 174//28 177//28
f 168//25 169//25 166//25 164//25
f 172//34 171//34 166//34 169//34
f 169//4 168//4 167//4 172//4
f 164//2 166//2 171//2 165//2
f 176//82 175//82 170//82 173//82
f 170//83 175//83 179//83 178//83
f 177//4 179//4 175//4 176//4
f 173//2 170//2 178//2 174//2
f 180//84 183//84 182//84 181//84
f 8//85 183//85 180//85 6//85
f 197//86 194//86 190//86 193//86
f 189//87 188//87 187//87 196//87 197//87 193//87
f 188//88 184//88 185//88 187//88
f 203//89 204//89 201//89 198//89
f 188//90 189//90 186//90 184//90
f 184//91 186//91 190//91 194//91 195//91 185//91
f 186//92 189//92 193//92 190//92
f 196//93 195//93 194//93 197//93
f 185//94 195//94 196//94 187//94
f 204//4 205//4 200//4 199//4 201//4
f 200//95 192//95 191//95 199//95
f 191//96 198//96 201//96 199//96
f 192//2 202//2 203//2 198//2 191//2
f 202//97 205//97 204//97 203//97
f 200//98 205//98 202//98 192//98
f 207//99 226//99 225//99 206//99
f 224//100 227//100 210//100 209//100
f 237//101 208//101 211//101 238//101
f 210//102 211//102 208//102 209//102
f 206//2 225//2 224//2 209//2 208//2 237//2 236//2
f 233//103 228//103 231//103 234//103
f 214//2 250//2 251//2 217//2 216//2 221//2 220//2
f 251//104 252//104 218//104 217//104
f 221//105 216//105 219//105 222//105
f 218//106 219//106 216//106 217//106
f 222//4 219//4 218//4 252//4 253//4 215//4 223//4
f 220//107 221//107 222//107 223//107
f 215//108 214//108 220//108 223//108
f 224//109 225//109 226//109 227//109
f 238//4 211//4 210//4 227//4 226//4 207//4 239//4
f 234//4 231//4 229//4 230//4 235//4
f 230//110 229//110 213//110 212//110
f 213//111 229//111 231//111 228//111
f 212//2 213//2 228//2 233//2 232//2
f 232//112 233//112 234//112 235//112
f 230//113 212//113 232//113 235//113
f 236//114 237//114 238//114 239//114
f 207//115 206//115 236//115 239//115
f 247//116 248//116 245//116 242//116
f 248//4 249//4 244//4 243//4 245//4
f 244//117 240//117 241//117 243//117
f 241//118 242//118 245//118 243//118
f 240//2 246//2 247//2 242//2 241//2
f 246//119 249//119 248//119 247//119
f 244//120 249//120 246//120 240//120
f 250//121 253//121 252//121 251//121
f 215//122 253//122 250//122 214//122
f 256//123 255//123 254//123 257//123
f 257//124 254//124 14//124 17//124
f 259//28 260//28 258//28 15//28
f 15//125 258//125 261//125 263//125 264//125
f 258//126 260//126 262//126 261//126
f 265//127 264//127 263//127 266//127
f 15//128 264//128 265//128 259//128
f 260//129 259//129 265//129 266//129 262//129
f 274//130 275//130 272//130 269//130
f 275//4 276//4 271//4 270//4 272//4
f 271//131 267//131 268//131 270//131
f 268//132 269//132 272//132 270//132
f 267//2 273//2 274//2 269//2 268//2
f 273//133 276//133 275//133 274//133
f 271//134 276//134 273//134 267//134
f 284//135 279//135 282//135 285//135
f 285//4 282//4 280//4 281//4 286//4
f 281//136 280//136 278//136 277//136
f 278//137 280//137 282//137 279//137
f 277//2 278//2 279//2 284//2 283//2
f 283//138 284//138 285//138 286//138
f 281//139 277//139 283//139 286//139
f 296//140 293//140 291//140 292//140
f 289//141 290//141 288//141 287//141
f 287//142 288//142 291//142 293//142 294//142
f 288//143 290//143 292//143 291//143
f 295//144 294//144 293//144 296//144
f 287//145 294//145 295//145 289//145
f 290//146 289//146 295//146 296//146 292//146
