# Blender v2.76 (sub 0) OBJ File: 'Window.blend'
# www.blender.org
mtllib Window.mtl
o Window_Cube.002
v 0.584966 0.360608 0.673820
v 0.584966 0.006422 0.673820
v 0.584966 0.004406 0.467868
v 0.584966 0.282087 0.467868
v 0.644189 0.282087 0.467868
v 0.644189 0.360608 0.673820
v 0.006518 0.360608 0.673820
v 0.006518 0.006422 0.673820
v 0.644189 0.006422 0.673820
v 0.644189 0.004406 0.467868
v 0.235595 0.004406 0.467868
v 0.235595 0.282087 0.467868
v 0.584966 0.691052 0.570463
v 0.644189 0.691052 0.570463
v 0.584966 0.541155 0.386837
v 0.644189 0.541155 0.386837
v 0.006518 0.691052 0.570463
v 0.006518 0.360608 0.000000
v 0.006518 0.006422 0.000000
v 0.006518 -0.337645 0.673820
v 0.584966 -0.337645 0.673820
v 0.584966 -0.265341 0.467868
v 0.644189 -0.265341 0.467868
v 0.644189 -0.337645 0.673820
v 0.235595 0.541155 0.386837
v 0.235595 -0.265341 0.467868
v 0.235595 0.282087 0.000000
v 0.235595 0.004406 0.000000
v 0.006518 0.691052 0.000000
v 0.584966 0.918743 0.246183
v 0.006518 0.918743 0.246183
v 0.006518 0.360608 -0.673820
v 0.006518 0.006422 -0.673820
v 0.006518 -0.337645 0.000000
v 0.006518 -0.671592 0.673820
v 0.584966 -0.671592 0.673820
v 0.420142 0.549720 0.374638
v 0.235595 0.719664 0.132602
v 0.584966 0.719664 0.132602
v 0.438481 0.712206 0.143223
v 0.408808 0.697069 0.164781
v 0.420142 0.672576 0.199665
v 0.438481 0.589351 0.318196
v 0.408808 0.574213 0.339754
v 0.456821 0.549720 0.374638
v 0.468155 0.574213 0.339754
v 0.456821 0.672576 0.199665
v 0.468155 0.697069 0.164781
v 0.235595 0.541155 0.000000
v 0.584966 -0.527154 0.467868
v 0.235595 -0.527154 0.467868
v 0.235595 -0.265341 0.000000
v 0.235595 0.004406 -0.467868
v 0.235595 0.282087 -0.467868
v 0.006518 0.953927 0.000000
v 0.006518 0.691052 -0.570463
v 0.584966 0.953927 0.000000
v 0.584966 0.360608 -0.673820
v 0.584966 0.006422 -0.673820
v 0.006518 -0.337645 -0.673820
v 0.006518 -0.671592 0.000000
v 0.006518 -1.005538 0.673820
v 0.584966 -1.005538 0.673820
v 0.584966 0.747248 0.000000
v 0.235595 0.747248 0.000000
v 0.412119 0.747248 0.000000
v 0.420142 0.742111 0.024693
v 0.456821 0.742111 0.024693
v 0.464844 0.747248 0.000000
v 0.235595 0.541155 -0.386837
v 0.584966 -0.788967 0.467868
v 0.235595 -0.788967 0.467868
v 0.235595 -0.527154 0.000000
v 0.235595 -0.265341 -0.467868
v 0.584966 0.282087 -0.467868
v 0.584966 0.004406 -0.467868
v 0.644189 0.719664 0.132602
v 0.644189 0.918743 0.246183
v 0.006518 0.918743 -0.246182
v 0.584966 0.691052 -0.570463
v 0.644189 0.953927 0.000000
v 0.584966 0.918743 -0.246182
v 0.584966 -0.337645 -0.673820
v 0.006518 -0.671592 -0.673820
v 0.006518 -1.005538 0.000000
v 0.644189 -0.671592 0.673820
v 0.644189 -0.527154 0.467868
v 0.644189 -1.005538 0.673820
v 0.584966 -1.005538 0.000000
v 0.584966 -1.005538 0.336911
v 0.468155 0.745128 -0.010190
v 0.438481 0.740643 -0.031750
v 0.408808 0.745128 -0.010190
v 0.235595 0.719664 -0.132602
v 0.584966 0.719664 -0.132602
v 0.644189 0.747248 0.000000
v 0.584966 0.541155 -0.386837
v 0.644189 -0.788967 0.467868
v 0.464844 -0.788967 0.000000
v 0.456821 -0.788967 0.024693
v 0.420142 -0.788967 0.024693
v 0.438481 -0.788967 0.143223
v 0.468155 -0.788967 0.164781
v 0.456821 -0.788967 0.199665
v 0.420142 -0.788967 0.199665
v 0.438481 -0.788967 0.318196
v 0.468155 -0.788967 0.339754
v 0.456821 -0.788967 0.374638
v 0.420142 -0.788967 0.374638
v 0.584966 -0.788967 0.233935
v 0.584966 -0.788967 0.000000
v 0.412119 -0.788967 0.000000
v 0.235595 -0.788967 0.000000
v 0.408808 -0.788967 0.339754
v 0.408808 -0.788967 0.164781
v 0.235595 -0.527154 -0.467868
v 0.584966 -0.265341 -0.467868
v 0.644189 0.691052 -0.570463
v 0.644189 0.360608 -0.673820
v 0.644189 0.918743 -0.246182
v 0.644189 0.282087 -0.467868
v 0.644189 0.004406 -0.467868
v 0.644189 0.006422 -0.673820
v 0.644189 -0.337645 -0.673820
v 0.584966 -0.671592 -0.673820
v 0.006518 -1.005538 -0.673820
v 0.584966 -1.005538 -0.673820
v 0.584966 -1.005538 -0.336910
v 0.648170 -1.005538 0.000000
v 0.648170 -1.005538 0.336911
v 0.644189 0.719664 -0.132602
v 0.420142 0.707251 -0.150280
v 0.438481 0.544764 -0.381696
v 0.408808 0.559902 -0.360136
v 0.420142 0.584396 -0.325253
v 0.438481 0.667620 -0.206723
v 0.408808 0.682758 -0.185163
v 0.456821 0.707251 -0.150280
v 0.468155 0.682758 -0.185163
v 0.456821 0.584396 -0.325253
v 0.468155 0.559902 -0.360136
v 0.644189 0.541155 -0.386837
v 0.648170 -0.788967 0.233935
v 0.648170 -0.788967 0.000000
v 0.408808 -0.788967 -0.010190
v 0.438481 -0.788967 -0.031750
v 0.420142 -0.788967 -0.150280
v 0.408808 -0.788967 -0.185163
v 0.438481 -0.788967 -0.206723
v 0.420142 -0.788967 -0.325253
v 0.408808 -0.788967 -0.360136
v 0.438481 -0.788967 -0.381696
v 0.584966 -0.788967 -0.467868
v 0.235595 -0.788967 -0.467868
v 0.468155 -0.788967 -0.010190
v 0.584966 -0.788967 -0.233934
v 0.468155 -0.788967 -0.360136
v 0.456821 -0.788967 -0.325253
v 0.468155 -0.788967 -0.185163
v 0.456821 -0.788967 -0.150280
v 0.584966 -0.527154 -0.467868
v 0.644189 -0.265341 -0.467868
v 0.648170 -1.005538 -0.336910
v 0.648170 -0.788967 -0.233934
v 0.644189 -0.527154 -0.467868
v 0.644189 -0.671592 -0.673820
v 0.644189 -1.005538 -0.673820
v 0.644189 -0.788967 -0.467868
vn 1.000000 0.000000 0.000000
vn 0.000000 -0.934400 0.356200
vn 0.000000 0.000000 1.000000
vn 0.000000 1.000000 -0.009800
vn 0.000000 0.000000 -1.000000
vn 0.000000 0.298500 0.954400
vn 0.000000 -0.298500 -0.954400
vn -1.000000 0.000000 0.000000
vn 0.000000 0.774700 -0.632400
vn 0.000000 0.818400 0.574600
vn 0.000000 -0.943500 -0.331300
vn 0.000000 -0.818400 -0.574600
vn 0.000000 0.989900 0.141500
vn 0.000000 -0.979000 -0.203700
vn 0.000000 -0.495600 0.868600
vn 0.000000 0.298500 -0.954400
vn 0.000000 0.989900 -0.141500
vn 0.000000 0.818700 0.574200
vn 0.000000 -1.000000 0.000000
vn 0.000000 -0.979000 0.203700
vn 0.000000 -0.298500 0.954400
vn 0.000000 1.000000 0.000000
vn 0.000000 0.818400 -0.574600
vn 0.000000 -0.934400 -0.356200
vn 0.000000 1.000000 0.009800
vn 0.000000 -0.689100 -0.724700
vn -0.000000 -0.818400 0.574600
vn 0.000000 0.774700 0.632400
vn 0.000000 -0.495500 -0.868600
vn 0.000000 -0.943500 0.331300
vn 0.000000 0.429400 0.903100
vn 0.000000 0.818700 -0.574200
vn 0.000000 -0.689100 0.724700
vn 0.000000 0.429400 -0.903100
vn 0.587800 0.000000 -0.809000
vn -0.587800 0.000000 -0.809000
vn 0.951100 0.000000 0.309000
vn -0.951100 0.000000 0.309000
usemtl Rock
s off
f 1//1 2//1 3//1 4//1
f 1//2 4//2 5//2 6//2
f 1//3 7//3 8//3 2//3
f 3//4 2//4 9//4 10//4
f 4//5 3//5 11//5 12//5
f 13//6 1//6 6//6 14//6
f 4//7 15//7 16//7 5//7
f 14//1 6//1 5//1 16//1
f 7//6 1//6 13//6 17//6
f 7//8 18//8 19//8 8//8
f 2//3 8//3 20//3 21//3
f 22//5 3//5 10//5 23//5
f 2//3 21//3 24//3 9//3
f 9//1 24//1 23//1 10//1
f 15//7 4//7 12//7 25//7
f 3//5 22//5 26//5 11//5
f 15//9 13//9 14//9 16//9
f 29//8 18//8 7//8 17//8
f 30//10 31//10 17//10 13//10
f 32//8 33//8 19//8 18//8
f 8//8 19//8 34//8 20//8
f 21//3 20//3 35//3 36//3
f 21//11 22//11 23//11 24//11
f 37//12 15//12 25//12 38//12 39//12 40//12 41//12 42//12 43//12 44//12
f 37//12 45//12 46//12 43//12 42//12 47//12 48//12 40//12 39//12 15//12
f 22//5 50//5 51//5 26//5
f 30//1 13//1 15//1 39//1
f 31//8 55//8 29//8 17//8
f 29//8 56//8 32//8 18//8
f 30//13 57//13 55//13 31//13
f 58//5 59//5 33//5 32//5
f 33//8 60//8 34//8 19//8
f 20//8 34//8 61//8 35//8
f 21//1 36//1 50//1 22//1
f 36//3 35//3 62//3 63//3
f 64//14 39//14 38//14 65//14 66//14 67//14 68//14 69//14
f 50//5 71//5 72//5 51//5
f 75//3 54//3 53//3 76//3
f 30//15 39//15 77//15 78//15
f 79//8 56//8 29//8 55//8
f 32//16 56//16 80//16 58//16
f 57//13 30//13 78//13 81//13
f 82//17 79//17 55//17 57//17
f 58//1 75//1 76//1 59//1
f 59//5 83//5 60//5 33//5
f 60//8 84//8 61//8 34//8
f 35//8 61//8 85//8 62//8
f 50//18 36//18 86//18 87//18
f 36//3 63//3 88//3 86//3
f 62//19 85//19 89//19 90//19 63//19
f 64//20 69//20 91//20 92//20 93//20 66//20 65//20 94//20 95//20
f 39//14 64//14 96//14 77//14
f 97//21 70//21 54//21 75//21
f 71//5 50//5 87//5 98//5
f 99//22 100//22 101//22 102//22 103//22 104//22 105//22 106//22 107//22 108//22 109//22 71//22 110//22 111//22
f 112//22 113//22 72//22 71//22 109//22 114//22 106//22 105//22 115//22 102//22 101//22
f 76//3 53//3 74//3 117//3
f 81//1 78//1 77//1 96//1
f 82//23 80//23 56//23 79//23
f 80//16 118//16 119//16 58//16
f 57//17 81//17 120//17 82//17
f 58//24 119//24 121//24 75//24
f 76//25 122//25 123//25 59//25
f 59//5 123//5 124//5 83//5
f 83//5 125//5 84//5 60//5
f 84//8 126//8 85//8 61//8
f 86//1 88//1 98//1 87//1
f 63//26 71//26 98//26 88//26
f 126//19 127//19 128//19 89//19 85//19
f 90//19 89//19 129//19 130//19
f 63//1 90//1 110//1 71//1
f 95//20 131//20 96//20 64//20
f 132//27 95//27 94//27 70//27 97//27 133//27 134//27 135//27 136//27 137//27
f 132//27 138//27 139//27 136//27 135//27 140//27 141//27 133//27 97//27 95//27
f 75//21 121//21 142//21 97//21
f 111//22 110//22 143//22 144//22
f 145//22 146//22 147//22 148//22 149//22 150//22 151//22 152//22 153//22 154//22 113//22 112//22
f 146//22 155//22 99//22 111//22 156//22 153//22 152//22 157//22 158//22 150//22 149//22 159//22 160//22 147//22
f 117//3 74//3 116//3 161//3
f 117//3 162//3 122//3 76//3
f 81//1 96//1 131//1 120//1
f 82//1 95//1 97//1 80//1
f 97//28 142//28 118//28 80//28
f 118//1 142//1 121//1 119//1
f 82//29 120//29 131//29 95//29
f 123//1 122//1 162//1 124//1
f 83//30 124//30 162//30 117//30
f 83//1 117//1 161//1 125//1
f 125//5 127//5 126//5 84//5
f 127//1 153//1 156//1 128//1
f 128//19 163//19 129//19 89//19
f 110//31 90//31 130//31 143//31
f 130//1 129//1 144//1 143//1
f 111//22 144//22 164//22 156//22
f 161//3 116//3 154//3 153//3
f 161//32 165//32 166//32 125//32
f 125//5 166//5 167//5 127//5
f 127//33 167//33 168//33 153//33
f 156//34 164//34 163//34 128//34
f 163//1 164//1 144//1 129//1
f 153//3 168//3 165//3 161//3
f 166//1 165//1 168//1 167//1
usemtl Black
f 27//1 12//1 11//1 28//1
f 25//1 12//1 27//1 49//1
f 28//1 11//1 26//1 52//1
f 27//1 28//1 53//1 54//1
f 65//1 38//1 25//1 49//1
f 70//1 49//1 27//1 54//1
f 52//1 26//1 51//1 73//1
f 28//1 52//1 74//1 53//1
f 65//1 49//1 70//1 94//1
f 73//1 51//1 72//1 113//1
f 52//1 73//1 116//1 74//1
f 73//1 113//1 154//1 116//1
usemtl DarkSteel
f 106//35 43//35 46//35 107//35
f 114//36 44//36 43//36 106//36
f 107//37 46//37 45//37 108//37
f 109//38 37//38 44//38 114//38
f 108//3 45//3 37//3 109//3
f 102//35 40//35 48//35 103//35
f 115//36 41//36 40//36 102//36
f 103//37 48//37 47//37 104//37
f 105//38 42//38 41//38 115//38
f 104//3 47//3 42//3 105//3
f 146//35 92//35 91//35 155//35
f 145//36 93//36 92//36 146//36
f 155//37 91//37 69//37 68//37 100//37 99//37
f 101//38 67//38 66//38 93//38 145//38 112//38
f 100//3 68//3 67//3 101//3
f 149//35 136//35 139//35 159//35
f 148//36 137//36 136//36 149//36
f 159//37 139//37 138//37 160//37
f 147//38 132//38 137//38 148//38
f 160//3 138//3 132//3 147//3
f 152//35 133//35 141//35 157//35
f 151//36 134//36 133//36 152//36
f 157//37 141//37 140//37 158//37
f 150//38 135//38 134//38 151//38
f 158//3 140//3 135//3 150//3
