# Blender v2.79 (sub 0) OBJ File: 'Bricks.blend'
# www.blender.org
mtllib Bricks.mtl
o Bricks_Cube.676
v -0.950794 0.326356 0.079897
v -0.934521 0.313393 0.063809
v -1.080750 0.325429 0.104914
v -1.060016 0.318545 0.047785
v -0.485479 0.325287 0.108734
v -0.506213 0.318545 0.047785
v -0.957125 0.008244 0.054663
v -0.934521 0.018073 0.032308
v -1.072559 0.013588 0.060333
v -1.049686 0.035506 0.032308
v -0.485479 0.006848 0.092331
v -0.511919 0.032747 0.032308
v -1.014359 0.318545 0.047785
v -0.934521 0.294680 0.046556
v -0.934521 0.294676 0.046556
v -0.784866 0.318545 0.047785
v 0.317753 0.322537 0.618032
v 0.324424 0.309574 0.596144
v 0.356063 0.321610 0.744709
v 0.396989 0.314726 0.699780
v 0.075763 0.321468 0.219548
v 0.139361 0.314726 0.209548
v 0.343036 0.004425 0.611898
v 0.352309 0.014254 0.581490
v 0.391716 0.009769 0.716719
v 0.405884 0.031687 0.683435
v 0.090283 0.003029 0.211917
v 0.155716 0.028928 0.207400
v 0.339697 0.290861 0.588118
v 0.339697 0.290857 0.588118
v 0.268989 0.314726 0.456214
v 0.655282 0.316177 0.267695
v 0.644988 0.315748 0.243413
v 0.733718 0.236844 0.339624
v 0.743607 0.244360 0.279550
v 0.373638 0.544408 0.145287
v 0.414574 0.527071 0.097972
v 0.511261 0.065748 0.155210
v 0.511501 0.087462 0.129867
v 0.592274 0.000378 0.206484
v 0.601421 0.031996 0.179721
v 0.220669 0.297452 0.037976
v 0.282201 0.302826 0.003522
v 0.711567 0.271889 0.261869
v 0.643682 0.300912 0.222680
v 0.643680 0.300908 0.222679
v 0.550522 0.410262 0.172996
v -0.503065 0.295422 -0.494593
v -0.408454 0.299458 -0.560131
v -0.520531 0.191324 -0.482494
v -0.497802 0.316600 -0.478664
v -0.554196 0.207262 -0.411005
v -0.494711 0.334555 -0.428673
v -0.539172 0.334555 -0.390979
v -0.570188 0.314247 -0.448096
v -0.536878 0.015165 -0.387921
v -0.570188 0.035474 -0.448096
v -0.056237 0.213464 -0.786645
v -0.083625 0.191324 -0.785144
v -0.052911 0.334555 -0.782050
v -0.093681 0.311616 -0.778178
v -0.034140 0.015165 -0.756128
v -0.082522 0.041063 -0.785908
v -0.490265 0.015165 -0.422748
v -0.506180 0.055380 -0.492435
v -0.565864 0.191324 -0.451091
v 0.376582 0.174502 -0.236973
v 0.303095 0.037069 -0.244634
v 0.328982 -0.001742 -0.173193
v -0.118531 0.022595 -0.247167
v -0.141840 -0.001742 -0.187510
v -0.121416 0.296653 -0.247136
v -0.140630 0.317648 -0.219508
v -0.133676 0.174502 -0.247002
v -0.140415 0.196557 -0.225178
v 0.381818 0.016944 -0.244568
v 0.387132 -0.001742 -0.171107
v 0.381818 0.298772 -0.244568
v 0.387277 0.317648 -0.174927
v 0.329263 0.317648 -0.180595
v 0.388223 0.190355 -0.199944
v 0.295023 0.280175 -0.244546
v 0.320812 0.174502 -0.238248
v -0.950794 0.326356 0.270314
v -0.934521 0.313393 0.286402
v -1.080750 0.325429 0.245297
v -1.060016 0.318545 0.302425
v -0.485479 0.325287 0.241477
v -0.506213 0.318545 0.302425
v -0.957125 0.008244 0.295548
v -0.934521 0.018073 0.317903
v -1.072559 0.013588 0.289878
v -1.049686 0.035506 0.317903
v -0.485479 0.006848 0.257880
v -0.511919 0.032747 0.317903
v -1.014359 0.318545 0.302425
v -0.934521 0.294680 0.303655
v -0.934521 0.294676 0.303655
v -0.784866 0.318545 0.302425
v 0.149194 0.322537 0.706614
v 0.127384 0.309574 0.699694
v 0.231795 0.321610 0.810015
v 0.171580 0.314726 0.818238
v -0.041742 0.321468 0.281299
v -0.086048 0.314726 0.328006
v 0.129802 0.004425 0.723958
v 0.099499 0.014254 0.714348
v 0.188522 0.009769 0.823503
v 0.153073 0.031687 0.816293
v -0.056262 0.003029 0.288930
v -0.097094 0.028928 0.340258
v 0.112111 0.290861 0.707720
v 0.112111 0.290857 0.707720
v 0.043580 0.314726 0.574672
v 0.562089 0.314408 0.433814
v 0.536006 0.313679 0.437676
v 0.665076 0.235541 0.461979
v 0.618899 0.241993 0.501844
v 0.308745 0.543176 0.260959
v 0.289866 0.524704 0.320266
v 0.393303 0.063509 0.365474
v 0.371604 0.084807 0.379237
v 0.479881 -0.001756 0.406827
v 0.461524 0.029341 0.429091
v 0.139678 0.295915 0.182343
v 0.142304 0.300170 0.252892
v 0.586859 0.269522 0.484163
v 0.517768 0.298522 0.447125
v 0.517766 0.298518 0.447124
v 0.425815 0.407894 0.395290
v -0.349540 0.295422 -0.272964
v -0.254929 0.299458 -0.338502
v -0.367006 0.191324 -0.260865
v -0.362602 0.316600 -0.283490
v -0.445766 0.207262 -0.254475
v -0.408316 0.334555 -0.303955
v -0.459233 0.334555 -0.275579
v -0.416663 0.314247 -0.226467
v -0.461290 0.015165 -0.278801
v -0.416663 0.035474 -0.226467
v 0.080931 0.213464 -0.588628
v 0.069900 0.191324 -0.563515
v 0.077800 0.334555 -0.593357
v 0.059845 0.311616 -0.556550
v 0.060129 0.015165 -0.620041
v 0.071003 0.041063 -0.564279
v -0.412301 0.015165 -0.310199
v -0.352655 0.055380 -0.270806
v -0.412339 0.191324 -0.229462
v 0.376582 0.174502 0.027502
v 0.303095 0.037069 0.035163
v 0.328982 -0.001742 -0.036278
v -0.118531 0.022595 0.037697
v -0.141840 -0.001742 -0.021961
v -0.121416 0.296653 0.037665
v -0.140630 0.317648 0.010037
v -0.133676 0.174502 0.037531
v -0.140415 0.196557 0.015708
v 0.381818 0.016944 0.035097
v 0.387132 -0.001742 -0.038364
v 0.381818 0.298772 0.035097
v 0.387277 0.317648 -0.034544
v 0.329263 0.317648 -0.028876
v 0.388223 0.190355 -0.009527
v 0.295023 0.280175 0.035075
v 0.320812 0.174502 0.028778
vn -0.0030 -1.0000 0.0000
vn 1.0000 0.0000 0.0000
vn 0.0064 0.9758 -0.2186
vn 0.0023 1.0000 0.0000
vn -0.0009 0.0528 -0.9986
vn 0.1879 0.6657 -0.7222
vn -0.9997 -0.0263 0.0000
vn -0.0071 1.0000 0.0000
vn -0.0008 0.9825 -0.1861
vn -0.0937 -0.8020 -0.5900
vn 0.0304 -0.9165 -0.3989
vn -0.8912 0.0180 -0.4532
vn 0.9322 0.0103 -0.3619
vn -0.0462 -0.9989 0.0000
vn 0.0039 0.0531 -0.9986
vn -0.1015 0.6743 -0.7315
vn 0.0014 -1.0000 0.0026
vn -0.4652 0.0000 -0.8852
vn 0.2255 0.9660 -0.1263
vn -0.0011 1.0000 -0.0020
vn 0.8844 0.0528 -0.4637
vn 0.5899 0.6728 -0.4465
vn 0.4650 -0.0263 0.8849
vn 0.0033 1.0000 0.0063
vn 0.1651 0.9825 -0.0859
vn 0.5658 -0.8020 -0.1915
vn 0.3390 -0.9165 -0.2125
vn 0.8158 0.0180 0.5781
vn -0.1133 0.0103 -0.9935
vn 0.0215 -0.9989 0.0409
vn 0.8821 0.0531 -0.4681
vn 0.6947 0.6743 -0.2504
vn -0.5182 -0.8012 -0.2992
vn -0.6997 0.6012 -0.3861
vn 0.6105 0.7856 0.1002
vn 0.5187 0.8008 0.2995
vn 0.5179 0.0522 -0.8539
vn -0.4878 -0.8260 -0.2824
vn 0.6853 -0.6226 0.3778
vn 0.5257 0.7948 0.3034
vn 0.6064 0.7851 0.1260
vn -0.0634 -0.6917 -0.7194
vn -0.3080 -0.7058 -0.6379
vn 0.8550 -0.5167 -0.0454
vn -0.4696 0.5723 -0.6723
vn 0.5142 0.0558 -0.8559
vn 0.8220 -0.0010 -0.5694
vn -0.8220 0.0074 0.5694
vn -0.2927 -0.8727 -0.3909
vn -0.5694 0.0000 -0.8220
vn -0.1819 0.9429 -0.2789
vn -0.8220 -0.0057 0.5694
vn -0.9124 -0.0034 0.4092
vn -0.0000 1.0000 -0.0000
vn 0.3466 -0.0568 -0.9363
vn -0.1078 0.0446 -0.9932
vn 0.0000 -1.0000 0.0000
vn -0.1107 -0.9162 -0.3851
vn -0.3598 0.8010 -0.4785
vn 0.8220 0.0040 -0.5694
vn -0.9159 0.0022 0.4014
vn 0.9877 -0.0060 -0.1564
vn -1.0000 -0.0018 0.0000
vn 0.0125 -0.0275 -0.9995
vn 0.0410 0.8391 -0.5424
vn -0.1315 -0.9308 -0.3410
vn -0.8640 0.0542 -0.5006
vn 0.0125 0.0225 -0.9997
vn 1.0000 -0.0057 0.0000
vn -0.9350 -0.0738 -0.3469
vn 0.9884 0.0025 -0.1516
vn -1.0000 0.0072 -0.0000
vn 0.0228 -0.9005 -0.4342
vn 1.0000 0.0074 0.0000
vn 0.0169 0.0466 -0.9988
vn -0.1050 0.9271 -0.3598
vn 0.0164 -0.0588 -0.9981
vn 0.0064 0.9758 0.2186
vn -0.0009 0.0528 0.9986
vn 0.1879 0.6657 0.7222
vn -0.0008 0.9825 0.1861
vn -0.0937 -0.8020 0.5900
vn 0.0304 -0.9165 0.3989
vn -0.8912 0.0180 0.4532
vn 0.9322 0.0103 0.3619
vn 0.0039 0.0531 0.9986
vn -0.1015 0.6743 0.7315
vn -0.2319 0.9660 0.1141
vn -0.8835 0.0528 0.4654
vn -0.7023 0.6728 0.2326
vn -0.1644 0.9825 0.0873
vn -0.4786 -0.8020 0.3574
vn -0.3673 -0.9165 0.1586
vn 0.0134 0.0180 0.9997
vn -0.7540 0.0103 -0.6568
vn -0.8858 0.0531 0.4610
vn -0.6003 0.6743 0.4301
vn 0.3966 0.7816 0.4815
vn -0.4592 0.0337 0.8877
vn 0.4165 0.7815 0.4645
vn -0.6406 -0.7027 0.3096
vn -0.6985 -0.7132 0.0581
vn 0.4116 -0.5251 0.7449
vn -0.8237 0.5655 -0.0412
vn -0.4628 0.0373 0.8857
vn 0.2630 -0.8727 0.4114
vn 0.5694 0.0000 0.8220
vn 0.1972 0.9429 0.2684
vn -0.7038 -0.0034 0.7104
vn 0.9984 -0.0568 0.0046
vn 0.8919 0.0446 0.4500
vn 0.3216 -0.9162 0.2390
vn 0.3215 0.8010 0.5051
vn -0.6977 0.0022 0.7164
vn 0.9877 -0.0060 0.1564
vn 0.0125 -0.0275 0.9995
vn 0.0410 0.8391 0.5424
vn -0.1315 -0.9308 0.3410
vn -0.8640 0.0542 0.5006
vn 0.0125 0.0225 0.9997
vn -0.9350 -0.0738 0.3469
vn 0.9884 0.0025 0.1516
vn 0.0228 -0.9005 0.4342
vn 0.0169 0.0466 0.9988
vn -0.1050 0.9271 0.3598
vn 0.0164 -0.0588 0.9981
vn 0.5685 0.6516 -0.5022
vn 0.7800 0.4846 -0.3960
vn -0.4720 0.6018 -0.6442
vn -0.3226 0.6188 -0.7162
vn -0.1381 0.6382 0.7574
vn 0.0642 0.4710 0.8798
vn 0.4373 0.6018 0.6683
vn 0.5571 0.6188 0.5537
usemtl Main
s off
f 90//1 7//1 11//1 94//1
f 88//2 94//2 11//2 5//2
f 3//3 1//3 2//3 13//3 4//3
f 88//4 5//4 1//4 84//4
f 6//5 12//5 8//5 15//5 16//5
f 2//6 14//6 15//6 13//6
f 86//7 3//7 9//7 92//7
f 3//8 86//8 84//8 1//8
f 1//9 5//9 6//9 16//9 2//9
f 9//10 10//10 8//10 7//10
f 12//11 11//11 7//11 8//11
f 4//12 10//12 9//12 3//12
f 5//13 11//13 12//13 6//13
f 7//14 90//14 92//14 9//14
f 13//15 15//15 8//15 10//15 4//15
f 16//16 15//16 14//16 2//16
f 106//17 110//17 27//17 23//17
f 104//18 21//18 27//18 110//18
f 19//19 20//19 18//19 17//19
f 104//20 100//20 17//20 21//20
f 22//21 31//21 30//21 24//21 28//21
f 18//22 20//22 30//22 29//22
f 102//23 108//23 25//23 19//23
f 17//24 100//24 102//24 19//24
f 17//25 18//25 31//25 22//25 21//25
f 25//26 23//26 24//26 26//26
f 28//27 24//27 23//27 27//27
f 20//28 19//28 25//28 26//28
f 21//29 22//29 28//29 27//29
f 25//30 108//30 106//30 23//30
f 20//31 26//31 24//31 30//31
f 31//32 18//32 29//32 30//32
f 121//33 125//33 42//33 38//33
f 119//34 36//34 42//34 125//34
f 34//35 35//35 44//35 33//35 32//35
f 119//36 115//36 32//36 36//36
f 37//37 47//37 46//37 39//37 43//37
f 40//38 123//38 121//38 38//38
f 117//39 123//39 40//39 34//39
f 32//40 115//40 117//40 34//40
f 32//41 33//41 47//41 37//41 36//41
f 40//42 38//42 39//42 41//42
f 43//43 39//43 38//43 42//43
f 35//44 34//44 40//44 41//44
f 36//45 37//45 43//45 42//45
f 44//46 35//46 41//46 39//46 46//46
f 60//47 143//47 141//47 58//47
f 52//48 135//48 137//48 54//48
f 64//49 65//49 63//49 62//49
f 57//50 66//50 50//50 65//50
f 55//51 54//51 53//51 51//51
f 139//52 135//52 52//52 56//52
f 52//53 66//53 57//53 56//53
f 136//54 143//54 60//54 53//54
f 63//55 59//55 58//55 62//55
f 60//56 58//56 59//56 61//56
f 147//57 64//57 62//57 145//57
f 66//50 55//50 48//50 50//50
f 50//50 48//50 49//50 61//50 59//50
f 56//58 57//58 65//58 64//58
f 139//57 56//57 64//57 147//57
f 51//59 53//59 60//59 61//59 49//59
f 141//60 145//60 62//60 58//60
f 54//61 55//61 66//61 52//61
f 137//54 136//54 53//54 54//54
f 65//50 50//50 59//50 63//50
f 162//54 79//54 80//54 163//54
f 79//62 81//62 67//62 78//62
f 75//63 158//63 156//63 73//63
f 160//57 152//57 69//57 77//57
f 163//54 80//54 73//54 156//54
f 83//64 74//64 72//64 82//64
f 82//65 72//65 73//65 80//65
f 77//66 69//66 68//66 76//66
f 73//67 72//67 74//67 75//67
f 68//68 70//68 74//68 83//68
f 160//69 77//69 81//69 164//69
f 70//70 71//70 75//70 74//70
f 81//71 77//71 76//71 67//71
f 152//57 154//57 71//57 69//57
f 158//72 75//72 71//72 154//72
f 69//73 71//73 70//73 68//73
f 79//74 162//74 164//74 81//74
f 76//75 68//75 83//75 67//75
f 78//76 82//76 80//76 79//76
f 67//77 83//77 82//77 78//77
f 86//78 87//78 96//78 85//78 84//78
f 89//79 99//79 98//79 91//79 95//79
f 85//80 96//80 98//80 97//80
f 84//81 85//81 99//81 89//81 88//81
f 92//82 90//82 91//82 93//82
f 95//83 91//83 90//83 94//83
f 87//84 86//84 92//84 93//84
f 88//85 89//85 95//85 94//85
f 96//86 87//86 93//86 91//86 98//86
f 99//87 85//87 97//87 98//87
f 102//88 100//88 101//88 103//88
f 105//89 111//89 107//89 113//89 114//89
f 101//90 112//90 113//90 103//90
f 100//91 104//91 105//91 114//91 101//91
f 108//92 109//92 107//92 106//92
f 111//93 110//93 106//93 107//93
f 103//94 109//94 108//94 102//94
f 104//95 110//95 111//95 105//95
f 103//96 113//96 107//96 109//96
f 114//97 113//97 112//97 101//97
f 117//98 115//98 116//98 127//98 118//98
f 120//99 126//99 122//99 129//99 130//99
f 115//100 119//100 120//100 130//100 116//100
f 123//101 124//101 122//101 121//101
f 126//102 125//102 121//102 122//102
f 118//103 124//103 123//103 117//103
f 119//104 125//104 126//104 120//104
f 127//105 129//105 122//105 124//105 118//105
f 147//106 145//106 146//106 148//106
f 140//107 148//107 133//107 149//107
f 138//108 134//108 136//108 137//108
f 135//109 139//109 140//109 149//109
f 146//110 145//110 141//110 142//110
f 143//111 144//111 142//111 141//111
f 149//107 133//107 131//107 138//107
f 133//107 142//107 144//107 132//107 131//107
f 139//112 147//112 148//112 140//112
f 134//113 132//113 144//113 143//113 136//113
f 137//114 135//114 149//114 138//114
f 148//107 146//107 142//107 133//107
f 162//115 161//115 150//115 164//115
f 166//116 165//116 155//116 157//116
f 165//117 163//117 156//117 155//117
f 160//118 159//118 151//118 152//118
f 156//119 158//119 157//119 155//119
f 151//120 166//120 157//120 153//120
f 153//121 157//121 158//121 154//121
f 164//122 150//122 159//122 160//122
f 152//123 151//123 153//123 154//123
f 159//124 150//124 166//124 151//124
f 161//125 162//125 163//125 165//125
f 150//126 161//126 165//126 166//126
usemtl Highlights
f 33//127 44//127 46//127 45//127
f 47//128 33//128 45//128 46//128
f 49//129 48//129 51//129
f 48//130 55//130 51//130
f 116//131 128//131 129//131 127//131
f 130//132 129//132 128//132 116//132
f 132//133 134//133 131//133
f 131//134 134//134 138//134
