# Blender v2.79 (sub 0) OBJ File: 'Flag_Wall.blend'
# www.blender.org
mtllib Flag_Wall.mtl
o Flag_Wall_Cylinder.040
v -0.461733 1.971537 -0.102243
v -0.217093 1.984662 -0.102243
v -0.442786 1.971537 0.178947
v -0.216476 1.984662 0.193851
v -0.254408 1.971537 -0.112633
v -0.271971 1.971537 0.184274
v -0.445850 1.195912 0.178946
v -0.433275 1.086335 0.178946
v -0.183597 0.988900 0.193851
v -0.179147 1.171900 0.193851
v -0.285094 1.021706 0.182066
v -0.278934 1.194680 0.179626
v -0.433275 0.604516 0.178946
v -0.433275 0.828748 0.178946
v -0.158067 0.810784 0.193851
v -0.169709 0.590184 0.193851
v -0.288073 0.816471 0.181631
v -0.301469 0.596348 0.181121
v -0.147411 1.984662 -0.102243
v -0.144194 1.984662 0.198501
v -0.146120 1.197559 0.193851
v -0.135066 0.999897 0.193851
v -0.131758 0.589036 0.193851
v -0.127718 0.816885 0.193851
v -0.135459 1.978261 -0.102243
v -0.117203 1.971537 0.203401
v -0.081732 1.221732 0.203072
v -0.079885 0.597837 0.203408
v -0.072544 1.006148 0.203408
v -0.066120 0.820950 0.203408
v -0.450575 1.487243 0.178947
v -0.444103 1.665839 0.178946
v -0.205369 1.509169 0.193852
v -0.221166 1.668251 0.193852
v -0.293907 1.661930 0.184851
v -0.300678 1.500884 0.183608
v -0.141110 1.466400 0.193851
v -0.137150 1.676102 0.193851
v -0.082634 1.676852 0.202018
v -0.073543 1.456440 0.202240
v -0.348916 1.215000 0.173986
v -0.433275 1.162486 0.178946
v -0.441359 1.683357 0.178946
v -0.433275 -0.016845 0.178946
v -0.169709 -0.031176 0.193851
v -0.301469 -0.025013 0.181121
v -0.131758 -0.032324 0.193851
v -0.079885 -0.023524 0.203408
v -0.143657 0.390617 0.193851
v -0.143747 0.167591 0.193851
v -0.195785 0.160544 0.193851
v -0.196183 0.383503 0.193851
v -0.089474 0.395568 0.203408
v -0.089406 0.172552 0.203408
v -0.301469 0.178496 0.181121
v -0.301469 0.401428 0.181121
v -0.433275 0.186664 0.178946
v -0.433275 0.409596 0.178946
v 0.461733 1.971537 -0.102243
v 0.217093 1.984662 -0.102243
v 0.000000 1.971537 -0.102243
v 0.442786 1.971537 0.178947
v 0.216476 1.984662 0.193851
v 0.000000 1.971537 0.203408
v 0.254408 1.971537 -0.112633
v 0.271971 1.971537 0.184274
v 0.445850 1.195912 0.178946
v 0.433275 1.086335 0.178946
v 0.183597 0.988900 0.193851
v 0.179147 1.171900 0.193851
v 0.000000 0.995624 0.203408
v 0.000000 1.237725 0.203144
v 0.285094 1.021706 0.182066
v 0.278934 1.194680 0.179626
v 0.433275 0.604516 0.178946
v 0.433275 0.828748 0.178946
v 0.158067 0.810784 0.193851
v 0.169709 0.590184 0.193851
v 0.000000 0.828637 0.203408
v 0.000000 0.588097 0.203408
v 0.288073 0.816471 0.181631
v 0.301469 0.596348 0.181121
v 0.147411 1.984662 -0.102243
v 0.144194 1.984662 0.198501
v 0.146120 1.197559 0.193851
v 0.135066 0.999897 0.193851
v 0.131758 0.589036 0.193851
v 0.127718 0.816885 0.193851
v 0.135459 1.978261 -0.102243
v 0.117203 1.971537 0.203401
v 0.081732 1.221732 0.203072
v 0.079885 0.597837 0.203408
v 0.072544 1.006148 0.203408
v 0.066120 0.820950 0.203408
v 0.450575 1.487243 0.178947
v 0.444103 1.665839 0.178946
v 0.205369 1.509169 0.193852
v 0.221166 1.668251 0.193852
v 0.000000 1.687770 0.202314
v 0.000000 1.396044 0.202643
v 0.293907 1.661930 0.184851
v 0.300678 1.500884 0.183608
v 0.141110 1.466400 0.193851
v 0.137150 1.676102 0.193851
v 0.082634 1.676852 0.202018
v 0.073543 1.456440 0.202240
v 0.348916 1.215000 0.173986
v 0.433275 1.162486 0.178946
v 0.441359 1.683357 0.178946
v 0.433275 -0.016845 0.178946
v 0.169709 -0.031176 0.193851
v 0.000000 -0.033264 0.203408
v 0.301469 -0.025013 0.181121
v 0.131758 -0.032324 0.193851
v 0.079885 -0.023524 0.203408
v 0.143657 0.390617 0.193851
v 0.143747 0.167591 0.193851
v 0.195785 0.160544 0.193851
v 0.196183 0.383503 0.193851
v 0.089474 0.395568 0.203408
v 0.089406 0.172552 0.203408
v 0.301469 0.178496 0.181121
v 0.301469 0.401428 0.181121
v 0.000000 0.389892 0.203408
v 0.000000 0.166880 0.203408
v 0.433275 0.186664 0.178946
v 0.433275 0.409596 0.178946
vn 0.0000 -0.0000 1.0000
vn -0.0593 -0.0002 0.9982
vn -0.0466 -0.0006 0.9989
vn -0.0673 0.0066 0.9977
vn -0.0598 -0.0011 0.9982
vn 0.0000 1.0000 0.0000
vn -0.0790 -0.0125 0.9968
vn -0.0309 -0.0118 0.9995
vn -0.0158 0.0007 0.9999
vn -0.0959 -0.0024 0.9954
vn -0.1194 -0.0113 0.9928
vn -0.1254 -0.0004 0.9921
vn 0.0000 0.0028 1.0000
vn -0.0036 0.0017 1.0000
vn -0.0012 0.0022 1.0000
vn 0.0000 0.0025 1.0000
vn -0.0294 -0.0075 0.9995
vn -0.0142 -0.0036 0.9999
vn -0.0155 -0.0040 0.9999
vn -0.2706 0.9627 -0.0077
vn -0.0003 0.0007 1.0000
vn -0.0000 0.0006 1.0000
vn -0.1444 0.0071 0.9895
vn -0.0959 0.0049 0.9954
vn -0.0818 -0.0004 0.9966
vn -0.1292 0.0002 0.9916
vn -0.0579 0.0026 0.9983
vn -0.0490 0.0027 0.9988
vn -0.0171 -0.0003 0.9999
vn -0.0189 -0.0007 0.9998
vn -0.0013 0.0200 0.9998
vn -0.1614 -0.0210 0.9867
vn -0.1478 -0.0110 0.9890
vn -0.1474 -0.0106 0.9890
vn 0.4488 0.8936 -0.0060
vn -0.1482 -0.0060 0.9889
vn -0.1484 -0.0060 0.9889
vn -0.1595 0.0007 0.9872
vn -0.1589 0.0001 0.9873
vn 0.0000 0.9999 0.0102
vn 0.0266 0.9996 0.0102
vn -0.1336 0.0023 0.9910
vn -0.1337 0.0018 0.9910
vn -0.1402 -0.0018 0.9901
vn -0.1375 0.0007 0.9905
vn -0.0000 -0.0044 1.0000
vn -0.0013 -0.0044 1.0000
vn -0.0028 -0.0016 1.0000
vn 0.0000 -0.0019 1.0000
vn -0.1734 0.0083 0.9848
vn -0.1719 0.0079 0.9851
vn -0.0351 -0.0023 0.9994
vn -0.0351 0.0022 0.9994
vn 0.0509 0.0008 0.9987
vn 0.0096 0.0322 0.9994
vn -0.0588 -0.0021 0.9983
vn -0.0654 -0.0016 0.9979
vn -0.0636 -0.0037 0.9980
vn -0.0478 -0.0032 0.9989
vn -0.1758 0.0044 0.9844
vn -0.1762 0.0051 0.9843
vn -0.0644 0.0019 0.9979
vn -0.0591 0.0017 0.9982
vn -0.0165 0.0000 0.9999
vn -0.1746 -0.0046 0.9846
vn -0.1747 -0.0050 0.9846
vn -0.1759 -0.0096 0.9844
vn 0.0466 -0.0006 0.9989
vn 0.0593 -0.0002 0.9982
vn 0.0598 -0.0011 0.9982
vn 0.0673 0.0066 0.9977
vn 0.0790 -0.0125 0.9968
vn 0.0959 -0.0024 0.9954
vn 0.0158 0.0007 0.9999
vn 0.0309 -0.0118 0.9995
vn 0.1194 -0.0113 0.9928
vn 0.1254 -0.0004 0.9921
vn 0.0012 0.0022 1.0000
vn 0.0036 0.0017 1.0000
vn 0.0294 -0.0075 0.9995
vn 0.0155 -0.0040 0.9999
vn 0.0142 -0.0036 0.9999
vn 0.2706 0.9627 -0.0077
vn 0.0003 0.0007 1.0000
vn 0.1444 0.0071 0.9895
vn 0.1292 0.0002 0.9916
vn 0.0818 -0.0004 0.9966
vn 0.0959 0.0049 0.9954
vn 0.0579 0.0026 0.9983
vn 0.0490 0.0027 0.9988
vn 0.0171 -0.0003 0.9999
vn 0.0189 -0.0007 0.9998
vn 0.0013 0.0200 0.9998
vn 0.1614 -0.0210 0.9867
vn 0.1474 -0.0106 0.9890
vn 0.1478 -0.0110 0.9890
vn -0.4488 0.8936 -0.0060
vn 0.1482 -0.0060 0.9889
vn 0.1589 0.0001 0.9873
vn 0.1595 0.0007 0.9872
vn 0.1484 -0.0060 0.9889
vn -0.0266 0.9996 0.0102
vn 0.1336 0.0023 0.9910
vn 0.1375 0.0007 0.9905
vn 0.1402 -0.0018 0.9901
vn 0.1337 0.0018 0.9910
vn 0.0028 -0.0016 1.0000
vn 0.0013 -0.0044 1.0000
vn 0.1734 0.0083 0.9848
vn 0.1719 0.0079 0.9851
vn 0.0351 -0.0023 0.9994
vn 0.0351 0.0022 0.9994
vn -0.0509 0.0008 0.9987
vn -0.0096 0.0322 0.9994
vn 0.0588 -0.0021 0.9983
vn 0.0478 -0.0032 0.9989
vn 0.0636 -0.0037 0.9980
vn 0.0654 -0.0016 0.9979
vn 0.1762 0.0051 0.9843
vn 0.1758 0.0044 0.9844
vn 0.0591 0.0017 0.9982
vn 0.0644 0.0019 0.9979
vn 0.0165 0.0000 0.9999
vn 0.1746 -0.0046 0.9846
vn 0.1759 -0.0096 0.9844
vn 0.1747 -0.0050 0.9846
usemtl Flag
s 1
f 22//1 9//2 15//3 24//1
f 9//2 11//4 17//5 15//3
f 5//6 1//6 3//6 6//6
f 19//6 2//6 4//6 20//6
f 36//7 31//8 41//9 12//10
f 33//11 36//7 12//10 10//12
f 100//13 40//14 27//15 72//16
f 20//17 4//17 34//18 38//19
f 37//1 33//1 10//1 21//1
f 2//20 5//20 6//20 4//20
f 27//15 29//21 71//22 72//16
f 12//10 11//4 9//2 10//12
f 4//23 6//24 35//25 34//26
f 28//1 80//1 79//1 30//1
f 18//27 16//28 15//3 17//5
f 13//29 18//27 17//5 14//30
f 11//4 8//31 14//30 17//5
f 16//28 23//1 24//1 15//3
f 10//1 9//2 22//1 21//1
f 26//32 20//32 38//33 39//34
f 25//35 19//35 20//35 26//35
f 29//36 22//37 24//38 30//39
f 71//22 29//21 30//1 79//1
f 61//40 25//41 26//41 64//40
f 40//42 37//43 21//44 27//45
f 64//46 26//47 39//48 99//49
f 23//50 28//51 30//39 24//38
f 21//44 22//37 29//36 27//45
f 40//14 100//13 99//49 39//48
f 36//7 33//11 34//26 35//25
f 31//8 36//7 35//25 32//52
f 33//1 37//1 38//19 34//18
f 37//43 40//42 39//34 38//33
f 6//24 3//53 43//53 35//25
f 41//9 11//4 12//10
f 41//9 31//8 7//54
f 11//4 41//9 42//55 8//31
f 51//56 55//57 46//58 45//59
f 28//51 23//50 49//60 53//61
f 16//28 18//27 56//62 52//63
f 55//57 57//64 44//64 46//58
f 18//27 13//29 58//64 56//62
f 125//1 54//1 48//1 112//1
f 80//1 28//1 53//1 124//1
f 50//1 51//56 45//59 47//1
f 54//65 50//66 47//67 48//67
f 57//64 55//57 56//62 58//64
f 54//1 125//1 124//1 53//1
f 55//57 51//56 52//63 56//62
f 50//66 54//65 53//61 49//60
f 51//56 50//1 49//1 52//63
f 23//1 16//28 52//63 49//1
f 86//1 88//1 77//68 69//69
f 69//69 77//68 81//70 73//71
f 65//6 66//6 62//6 59//6
f 83//6 84//6 63//6 60//6
f 102//72 74//73 107//74 95//75
f 97//76 70//77 74//73 102//72
f 100//13 72//16 91//78 106//79
f 84//80 104//81 98//82 63//80
f 103//1 85//1 70//1 97//1
f 60//83 63//83 66//83 65//83
f 91//78 72//16 71//22 93//84
f 74//73 70//77 69//69 73//71
f 63//85 98//86 101//87 66//88
f 92//1 94//1 79//1 80//1
f 82//89 81//70 77//68 78//90
f 75//91 76//92 81//70 82//89
f 73//71 81//70 76//92 68//93
f 78//90 77//68 88//1 87//1
f 70//1 85//1 86//1 69//69
f 90//94 105//95 104//96 84//94
f 89//97 90//97 84//97 83//97
f 93//98 94//99 88//100 86//101
f 71//22 79//1 94//1 93//84
f 61//40 64//40 90//102 89//102
f 106//103 91//104 85//105 103//106
f 64//46 99//49 105//107 90//108
f 87//109 88//100 94//99 92//110
f 85//105 91//104 93//98 86//101
f 106//79 105//107 99//49 100//13
f 102//72 101//87 98//86 97//76
f 95//75 96//111 101//87 102//72
f 97//1 98//82 104//81 103//1
f 103//106 104//96 105//95 106//103
f 66//88 101//87 109//112 62//112
f 107//74 74//73 73//71
f 107//74 67//113 95//75
f 73//71 68//93 108//114 107//74
f 118//115 111//116 113//117 122//118
f 92//110 120//119 116//120 87//109
f 78//90 119//121 123//122 82//89
f 122//118 113//117 110//123 126//123
f 82//89 123//122 127//123 75//91
f 125//1 112//1 115//1 121//1
f 80//1 124//1 120//1 92//1
f 117//1 114//1 111//116 118//115
f 121//124 115//125 114//125 117//126
f 126//123 127//123 123//122 122//118
f 121//1 120//1 124//1 125//1
f 122//118 123//122 119//121 118//115
f 117//126 116//120 120//119 121//124
f 118//115 119//121 116//1 117//1
f 87//1 116//1 119//121 78//90
