# Blender v2.79 (sub 0) OBJ File: 'Flag_GothicArch.blend'
# www.blender.org
mtllib Flag_GothicArch.mtl
o Flag_GothicArch_Cylinder.039
v -1.106277 3.092030 -0.006105
v -0.912766 3.288197 -0.089084
v -0.719940 3.439833 0.084823
v -1.105784 3.092098 0.193851
v -0.912068 3.288833 0.193851
v -0.719654 3.439873 0.203407
v -0.940349 3.261646 -0.056483
v -0.939741 3.262032 0.183461
v -0.521092 2.435064 0.193851
v -0.388111 2.382234 0.193851
v -0.226728 2.578460 0.193851
v -0.342326 2.645878 0.193851
v -0.185753 2.859599 0.203408
v -0.263250 2.887355 0.203408
v -0.235605 2.505571 0.183461
v -0.384814 2.539146 0.183461
v 1.081809 3.120957 -0.102243
v 0.887601 3.316661 -0.102243
v 0.694812 3.465918 -0.102243
v 1.080873 3.121086 0.193851
v 0.886665 3.316790 0.193851
v 0.693876 3.466047 0.203407
v 0.915340 3.290172 -0.112634
v 0.927419 3.277071 0.184274
v 0.521092 2.435064 0.193851
v 0.388111 2.382234 0.193851
v 0.220015 2.563355 0.193851
v 0.350562 2.640336 0.193851
v 0.185753 2.859599 0.203408
v 0.320805 2.911750 0.203408
v 0.230570 2.522354 0.183461
v 0.369865 2.603428 0.183461
v -0.072297 2.389982 0.193851
v 0.131038 2.250355 0.193851
v 0.082023 2.551819 0.193851
v -0.082023 2.551818 0.193851
v 0.082023 2.839832 0.203408
v -0.082023 2.839832 0.203408
v 0.082034 2.508288 0.183461
v -0.082033 2.508288 0.183461
v -0.806879 3.371164 -0.064945
v -0.806240 3.372109 0.193851
v -0.330489 2.792107 0.193851
v -0.205564 2.739823 0.193851
v 0.781567 3.398752 -0.102243
v 0.768699 3.408119 0.198502
v 0.338391 2.732271 0.193851
v 0.208499 2.695072 0.193851
v -0.082023 2.710226 0.193851
v 0.080625 2.680856 0.193851
v -0.796715 3.379355 -0.095252
v -0.795996 3.380172 0.203407
v -0.315712 2.802353 0.203408
v 0.771303 3.406699 -0.102243
v 0.756112 3.417863 0.203407
v 0.334290 2.808259 0.203408
v -0.073632 2.738147 0.203408
v -0.200678 2.769362 0.203408
v 0.206139 2.747923 0.203408
v 0.082023 2.725560 0.203408
v -0.852650 2.690489 0.193851
v -0.747733 2.580036 0.193851
v -0.645897 2.898285 0.193851
v -0.537661 2.792719 0.193851
v -0.381313 2.948852 0.203408
v -0.485122 3.060719 0.203408
v -0.597975 2.697261 0.183461
v -0.700987 2.841589 0.185073
v -0.570445 2.976655 0.193851
v -0.464999 2.866661 0.193851
v -0.444421 2.885935 0.203408
v -0.547091 2.998836 0.203408
v 0.771689 2.595359 0.193851
v 0.848878 2.735892 0.193851
v 0.590405 2.801593 0.193851
v 0.654713 2.872642 0.193851
v 0.469961 3.032175 0.203408
v 0.405963 2.963967 0.203408
v 0.707846 2.845913 0.183461
v 0.614350 2.770874 0.183461
v 0.495917 2.884318 0.193851
v 0.553554 2.961207 0.193851
v 0.529087 2.998859 0.203408
v 0.466010 2.930132 0.203408
v -0.118196 2.380131 0.193851
v 0.447924 2.516523 0.188824
v 0.472361 2.415704 0.193851
v -0.283932 2.900395 0.203408
v 0.855900 2.907496 0.193851
v -0.262670 2.572763 0.191208
v -0.319452 2.605879 0.191208
v -0.267030 2.536960 0.186104
v -0.305094 2.545525 0.186104
v 0.485121 2.554438 0.188310
v 0.590856 2.595890 0.189357
v 0.525795 2.613758 0.186014
v 0.560823 2.613910 0.185957
vn -0.7023 0.7119 0.0006
vn -0.7149 0.6992 0.0011
vn -0.7041 0.7101 0.0007
vn -0.6212 0.7836 -0.0009
vn -0.6479 0.7617 -0.0004
vn -0.6533 0.7571 -0.0003
vn -0.6211 0.7837 -0.0009
vn 0.0369 0.0387 0.9986
vn 0.0375 0.0362 0.9986
vn 0.0292 0.0552 0.9980
vn 0.0252 0.0598 0.9979
vn -0.0342 -0.0372 0.9987
vn -0.0632 -0.0721 0.9954
vn -0.0411 -0.0834 0.9957
vn -0.0251 -0.0425 0.9988
vn -0.0000 -0.0000 1.0000
vn -0.0203 -0.0807 0.9965
vn 0.0741 -0.2236 0.9719
vn 0.0108 -0.2342 0.9721
vn 0.0102 -0.2341 0.9722
vn 0.0704 -0.2245 0.9719
vn -0.0586 -0.0417 0.9974
vn -0.0424 -0.0928 0.9948
vn -0.0549 -0.1142 0.9919
vn 0.0151 0.0698 0.9974
vn 0.0053 0.0780 0.9969
vn -0.1415 -0.0861 0.9862
vn -0.1028 -0.0764 0.9918
vn 0.7045 0.7097 0.0023
vn 0.7042 0.7100 0.0023
vn 0.7128 0.7014 0.0019
vn 0.6123 0.7906 0.0016
vn 0.6520 0.7582 0.0021
vn 0.6581 0.7529 0.0022
vn -0.0346 0.0351 0.9988
vn -0.0327 0.0322 0.9989
vn -0.0239 0.0311 0.9992
vn -0.0292 0.0380 0.9988
vn 0.1434 -0.1818 0.9728
vn 0.1327 -0.2092 0.9688
vn 0.1318 -0.2094 0.9689
vn 0.1434 -0.1822 0.9727
vn -0.0001 0.0824 0.9966
vn -0.0277 -0.1493 0.9884
vn -0.0070 -0.2033 0.9791
vn -0.0074 -0.2020 0.9794
vn 0.0120 -0.0112 0.9999
vn 0.0066 -0.0062 1.0000
vn 0.0055 -0.0052 1.0000
vn 0.1530 -0.0798 0.9850
vn 0.1493 -0.1220 0.9812
vn 0.1501 -0.1127 0.9822
vn 0.0223 0.0586 0.9980
vn -0.0014 0.0495 0.9988
vn 0.0049 0.0519 0.9986
vn -0.0182 0.0440 0.9989
vn -0.0198 0.0460 0.9987
vn 0.2243 -0.1197 0.9671
vn 0.1960 -0.1222 0.9730
vn 0.1773 -0.1237 0.9764
vn -0.3347 -0.2088 0.9189
vn -0.1048 -0.3399 0.9346
vn -0.1002 -0.3340 0.9372
vn -0.0539 -0.2763 0.9595
vn -0.0514 -0.2732 0.9606
vn 0.0432 -0.1643 0.9855
vn -0.0012 -0.2199 0.9755
vn -0.0025 -0.2212 0.9752
vn 0.0398 -0.1703 0.9846
vn -0.6202 0.7845 -0.0005
vn -0.6197 0.7849 -0.0004
vn -0.6173 0.7867 -0.0001
vn -0.2071 -0.3447 0.9156
vn -0.1812 -0.3556 0.9169
vn -0.1601 -0.3642 0.9174
vn 0.6122 0.7907 0.0015
vn 0.1361 -0.1243 0.9829
vn 0.0947 -0.1298 0.9870
vn 0.0744 -0.1369 0.9878
vn 0.1306 -0.1237 0.9837
vn 0.0383 0.0251 0.9989
vn 0.0379 0.0249 0.9990
vn -0.2205 -0.2059 0.9534
vn 0.0363 0.0237 0.9991
vn -0.0396 0.0313 0.9987
vn -0.0547 0.0364 0.9978
vn -0.0231 0.0437 0.9988
vn -0.0217 0.0395 0.9990
vn -0.0250 0.0392 0.9989
vn -0.0221 0.0472 0.9986
vn -0.0258 -0.1012 0.9945
vn -0.0369 -0.1205 0.9920
vn -0.0234 0.0424 0.9988
vn -0.0162 0.0294 0.9994
usemtl Flag
s 1
f 7//1 1//2 4//2 8//3
f 41//4 2//5 5//6 42//7
f 67//8 62//9 9//10 16//11
f 64//12 67//13 16//14 12//15
f 48//16 50//16 35//16 27//16
f 44//16 11//17 36//16 49//16
f 27//18 35//19 39//20 31//21
f 70//16 64//12 12//15 43//16
f 65//16 71//16 53//16 88//16
f 42//16 5//16 63//22 69//16
f 2//5 7//1 8//3 5//6
f 53//16 58//16 13//16 14//16
f 11//17 12//15 91//23 90//24
f 9//10 10//25 15//26 16//11
f 5//27 8//27 68//28 63//22
f 23//29 24//30 20//31 17//31
f 45//32 46//32 21//33 18//34
f 73//35 80//36 97//37 95//38
f 75//39 28//40 32//41 80//42
f 15//26 10//25 85//43 40//43
f 11//17 15//44 40//45 36//46
f 78//16 30//16 56//16 84//16
f 46//47 82//48 76//49 21//47
f 81//16 47//16 28//16 75//16
f 18//34 21//33 24//30 23//29
f 56//16 30//16 29//16 59//16
f 32//41 28//40 27//18 31//21
f 21//50 76//51 79//52 24//50
f 57//16 60//16 37//16 38//16
f 40//45 39//20 35//19 36//46
f 33//53 34//54 39//55 40//53
f 31//56 39//55 34//54 26//57
f 36//16 35//16 50//16 49//16
f 28//16 47//16 48//16 27//16
f 55//58 83//59 82//60 46//58
f 54//32 55//32 46//32 45//32
f 12//15 11//17 44//16 43//16
f 52//61 42//61 69//61 72//61
f 58//62 44//63 49//64 57//65
f 59//66 60//67 50//68 48//69
f 51//70 41//4 42//7 52//71
f 3//72 51//70 52//71 6//72
f 71//73 70//73 43//74 53//75
f 29//16 37//16 60//16 59//16
f 13//16 58//16 57//16 38//16
f 6//16 52//16 72//16 66//16
f 19//76 22//76 55//32 54//32
f 84//77 56//78 47//79 81//80
f 22//16 77//16 83//16 55//16
f 49//64 50//68 60//67 57//65
f 47//79 56//78 59//66 48//69
f 43//74 44//63 58//62 53//75
f 72//16 71//16 65//16 66//16
f 68//28 67//13 64//12 63//22
f 61//81 62//9 67//8 68//82
f 63//22 64//12 70//16 69//16
f 69//83 70//83 71//83 72//83
f 8//84 4//84 61//81 68//82
f 84//16 83//16 77//16 78//16
f 80//42 79//52 76//51 75//39
f 73//35 74//85 79//85 80//36
f 75//16 76//49 82//48 81//16
f 81//80 82//60 83//59 84//77
f 24//86 79//86 89//86 20//86
f 86//87 32//88 31//56
f 86//87 25//89 73//35
f 31//56 26//57 87//90 86//87
f 12//15 16//14 93//91 91//23
f 15//44 11//17 90//24 92//92
f 16//14 15//44 92//92 93//91
f 86//87 73//35 95//38 94//93
f 32//88 86//87 94//93 96//94
f 80//36 32//88 96//94 97//37
