# Blender v2.79 (sub 0) OBJ File: 'Flag_RoundArch.blend'
# www.blender.org
mtllib Flag_RoundArch.mtl
o Flag_RoundArch_Cylinder.008
v 1.084053 3.088839 -0.006105
v 0.865168 3.256218 -0.089084
v 0.653403 3.377778 0.084823
v 1.083555 3.088839 0.193851
v 0.864464 3.256218 0.193851
v 0.653115 3.377778 0.203408
v 0.896172 3.233761 -0.056483
v 0.895558 3.233761 0.183461
v 0.521092 2.435064 0.193851
v 0.388111 2.382234 0.193851
v 0.226728 2.578460 0.193851
v 0.342326 2.645878 0.193851
v 0.185753 2.859599 0.203408
v 0.263250 2.887355 0.203408
v 0.235605 2.505571 0.183461
v 0.384814 2.539146 0.183461
v -1.084500 3.088839 -0.102243
v -0.865409 3.256218 -0.102243
v -0.654060 3.377778 -0.102243
v -1.083555 3.088839 0.193851
v -0.864464 3.256218 0.193851
v -0.653115 3.377778 0.203408
v -0.896502 3.233761 -0.112634
v -0.910256 3.222431 0.184274
v -0.521092 2.435064 0.193851
v -0.388111 2.382234 0.193851
v -0.220015 2.563355 0.193851
v -0.350562 2.640336 0.193851
v -0.185753 2.859599 0.203408
v -0.320805 2.911750 0.203408
v -0.230571 2.522354 0.183461
v -0.369865 2.603428 0.183461
v 0.072297 2.389982 0.193851
v -0.131038 2.250355 0.193851
v -0.082023 2.551819 0.193851
v 0.082023 2.551818 0.193851
v -0.082023 2.839832 0.203408
v 0.082023 2.839832 0.203408
v -0.082033 2.508288 0.183461
v 0.082033 2.508288 0.183461
v 0.748866 3.323076 -0.064945
v 0.748222 3.323076 0.193851
v 0.330489 2.792107 0.193851
v 0.205564 2.739823 0.193851
v -0.749167 3.323076 -0.102243
v -0.735142 3.330600 0.198502
v -0.338391 2.732271 0.193851
v -0.208500 2.695072 0.193851
v 0.082023 2.710226 0.193851
v -0.080625 2.680856 0.193851
v 0.737695 3.329548 -0.095252
v 0.736970 3.329548 0.203408
v 0.315712 2.802353 0.203408
v -0.737915 3.329548 -0.102243
v -0.721343 3.338536 0.203408
v -0.334290 2.808259 0.203408
v 0.073632 2.738147 0.203408
v 0.200679 2.769362 0.203408
v -0.206139 2.747923 0.203408
v -0.082023 2.725560 0.203408
v 0.852650 2.690489 0.193851
v 0.747733 2.580036 0.193851
v 0.645897 2.898285 0.193851
v 0.537661 2.792719 0.193851
v 0.381313 2.948852 0.203408
v 0.485064 3.060674 0.203408
v 0.597975 2.697261 0.183461
v 0.700987 2.841589 0.185073
v 0.570445 2.976655 0.193851
v 0.464999 2.866661 0.193851
v 0.444421 2.885935 0.203408
v 0.547091 2.998836 0.203408
v -0.771689 2.595359 0.193851
v -0.848878 2.735892 0.193851
v -0.590405 2.801593 0.193851
v -0.654713 2.872642 0.193851
v -0.469961 3.032175 0.203408
v -0.405963 2.963967 0.203408
v -0.707845 2.845913 0.183461
v -0.614350 2.770874 0.183461
v -0.495917 2.884318 0.193851
v -0.553554 2.961207 0.193851
v -0.529087 2.998859 0.203408
v -0.466010 2.930132 0.203408
v 0.118196 2.380131 0.193851
v -0.447924 2.516523 0.188824
v -0.472361 2.415704 0.193851
v 0.283932 2.900395 0.203408
v -0.855900 2.907496 0.193851
vn 0.5951 0.8037 0.0015
vn 0.5974 0.8020 0.0015
vn 0.6105 0.7920 0.0015
vn 0.4989 0.8667 0.0012
vn 0.5388 0.8424 0.0014
vn 0.5327 0.8463 0.0013
vn -0.0369 0.0387 0.9986
vn -0.0252 0.0598 0.9979
vn -0.0292 0.0552 0.9980
vn -0.0375 0.0362 0.9986
vn 0.0342 -0.0372 0.9987
vn 0.0252 -0.0452 0.9987
vn 0.0472 -0.0895 0.9949
vn 0.0632 -0.0721 0.9954
vn 0.0000 -0.0000 1.0000
vn 0.0158 -0.0748 0.9971
vn -0.0741 -0.2236 0.9719
vn -0.0704 -0.2245 0.9719
vn -0.0102 -0.2341 0.9722
vn -0.0108 -0.2342 0.9721
vn 0.0613 -0.0402 0.9973
vn 0.0270 -0.1388 0.9900
vn -0.0053 0.0780 0.9969
vn -0.0151 0.0698 0.9974
vn 0.1469 -0.0788 0.9860
vn 0.1043 -0.0732 0.9919
vn -0.6011 0.7992 0.0023
vn -0.6105 0.7920 0.0019
vn -0.6007 0.7995 0.0023
vn -0.4987 0.8668 0.0016
vn -0.5492 0.8357 0.0022
vn -0.5424 0.8401 0.0021
vn 0.0319 0.0346 0.9989
vn 0.0318 0.0348 0.9989
vn 0.0239 0.0413 0.9989
vn 0.0242 0.0391 0.9989
vn -0.1434 -0.1818 0.9728
vn -0.1434 -0.1822 0.9727
vn -0.1318 -0.2094 0.9689
vn -0.1327 -0.2092 0.9688
vn 0.0001 0.0824 0.9966
vn 0.0074 -0.2020 0.9794
vn 0.0070 -0.2033 0.9791
vn -0.0116 -0.0122 0.9999
vn -0.0054 -0.0057 1.0000
vn -0.0064 -0.0067 1.0000
vn -0.1489 -0.0818 0.9855
vn -0.1477 -0.1136 0.9825
vn -0.1474 -0.1231 0.9814
vn -0.0223 0.0586 0.9980
vn -0.0049 0.0519 0.9986
vn 0.0014 0.0495 0.9988
vn 0.0182 0.0440 0.9989
vn 0.0198 0.0460 0.9987
vn -0.2200 -0.1223 0.9678
vn -0.1759 -0.1246 0.9765
vn -0.1932 -0.1237 0.9733
vn 0.3496 -0.1898 0.9175
vn 0.2905 -0.1977 0.9362
vn 0.2796 -0.1990 0.9393
vn 0.1048 -0.3399 0.9346
vn 0.0514 -0.2732 0.9606
vn 0.0539 -0.2763 0.9595
vn 0.1002 -0.3340 0.9372
vn -0.0432 -0.1643 0.9855
vn -0.0398 -0.1703 0.9846
vn 0.0025 -0.2212 0.9752
vn 0.0012 -0.2199 0.9755
vn 0.4988 0.8667 0.0012
vn 0.4986 0.8668 0.0012
vn 0.2071 -0.3447 0.9156
vn 0.1601 -0.3642 0.9174
vn 0.1812 -0.3556 0.9169
vn -0.4986 0.8668 0.0015
vn -0.1361 -0.1243 0.9829
vn -0.1306 -0.1237 0.9837
vn -0.0744 -0.1369 0.9878
vn -0.0947 -0.1298 0.9870
vn -0.0388 0.0244 0.9990
vn -0.0384 0.0239 0.9990
vn 0.2205 -0.2059 0.9534
vn -0.0372 0.0220 0.9991
vn 0.0396 0.0313 0.9987
vn 0.0531 0.0395 0.9978
vn 0.0250 0.0392 0.9989
vn 0.0221 0.0472 0.9986
usemtl Flag
s 1
f 7//1 8//2 4//3 1//3
f 41//4 42//4 5//5 2//6
f 67//7 16//8 9//9 62//10
f 64//11 12//12 16//13 67//14
f 48//15 27//15 35//15 50//15
f 44//15 49//15 36//15 11//16
f 27//17 31//18 39//19 35//20
f 70//15 43//15 12//12 64//11
f 65//15 88//15 53//15 71//15
f 42//15 69//15 63//21 5//15
f 2//6 5//5 8//2 7//1
f 53//15 14//15 13//15 58//15
f 16//13 12//12 11//16 15//22
f 9//9 16//8 15//23 10//24
f 5//25 63//21 68//26 8//25
f 23//27 17//28 20//28 24//29
f 45//30 18//31 21//32 46//30
f 80//33 73//34 86//35 32//36
f 75//37 80//38 32//39 28//40
f 15//23 40//41 85//41 10//24
f 11//16 36//42 40//43 15//22
f 78//15 84//15 56//15 30//15
f 46//44 21//44 76//45 82//46
f 81//15 75//15 28//15 47//15
f 18//31 23//27 24//29 21//32
f 56//15 59//15 29//15 30//15
f 32//39 31//18 27//17 28//40
f 21//47 24//47 79//48 76//49
f 57//15 38//15 37//15 60//15
f 40//43 36//42 35//20 39//19
f 33//50 40//50 39//51 34//52
f 31//53 26//54 34//52 39//51
f 36//15 49//15 50//15 35//15
f 28//15 27//15 48//15 47//15
f 55//55 46//55 82//56 83//57
f 54//30 45//30 46//30 55//30
f 12//12 43//15 44//15 11//16
f 52//58 72//59 69//60 42//58
f 58//61 57//62 49//63 44//64
f 59//65 48//66 50//67 60//68
f 51//69 52//69 42//4 41//4
f 3//70 6//70 52//69 51//69
f 71//71 53//72 43//73 70//71
f 29//15 59//15 60//15 37//15
f 13//15 38//15 57//15 58//15
f 6//15 66//15 72//15 52//15
f 19//74 54//30 55//30 22//74
f 84//75 81//76 47//77 56//78
f 22//15 55//15 83//15 77//15
f 49//63 57//62 60//68 50//67
f 47//77 48//66 59//65 56//78
f 43//73 53//72 58//61 44//64
f 72//15 66//15 65//15 71//15
f 68//26 63//21 64//11 67//14
f 61//79 68//80 67//7 62//10
f 63//21 69//15 70//15 64//11
f 69//60 72//59 71//81 70//81
f 8//82 68//80 61//79 4//82
f 84//15 78//15 77//15 83//15
f 80//38 75//37 76//49 79//48
f 73//34 80//33 79//83 74//83
f 75//15 81//15 82//46 76//45
f 81//76 84//75 83//57 82//56
f 24//84 20//84 89//84 79//84
f 86//35 31//53 32//36
f 86//35 73//34 25//85
f 31//53 86//35 87//86 26//54
