# Blender v2.79 (sub 0) OBJ File: 'Floor_Squares.blend'
# www.blender.org
mtllib Floor_Squares.mtl
o Floor_Squares_Cube.035
v 0.740181 0.019741 -0.469145
v 0.488629 -0.081898 -0.505303
v 0.480862 -0.081898 -0.027151
v 0.988275 -0.081898 -0.026163
v 0.774832 -0.081898 -0.027151
v 0.503919 -0.081898 -0.508284
v 0.990580 -0.081898 -0.508284
v 0.767963 -0.081898 -0.508284
v 0.527093 0.033989 -0.067072
v -0.950478 0.019741 -0.261945
v -0.986637 -0.081898 -0.510233
v -0.508485 -0.081898 -0.517899
v -0.507496 -0.081898 -0.020475
v -0.508485 -0.081898 -0.227743
v -0.989617 -0.081898 -0.495141
v -0.989617 -0.081898 -0.018200
v -0.989617 -0.081898 -0.234523
v -0.548405 0.033989 -0.472268
v -0.522506 -0.026034 -0.498708
v -0.551165 0.033989 -0.062354
v -0.529247 0.005964 -0.039480
v -0.533731 0.033989 -0.261945
v -0.523902 0.011635 -0.239342
v -0.974343 0.018512 -0.477975
v -0.981085 -0.042436 -0.498708
v -0.974343 0.018512 -0.052023
v -0.981227 -0.038617 -0.031289
v -0.706279 -0.033757 -0.516203
v -0.726099 0.002488 -0.520552
v -0.492411 -0.038617 -0.519332
v -0.513417 0.018512 -0.526216
v -0.979779 -0.042436 -0.519511
v -0.958708 0.018512 -0.526049
v -0.703198 0.011635 -0.976657
v -0.726099 0.033989 -0.966828
v -0.500710 0.005964 -0.971313
v -0.523884 0.033989 -0.949395
v -0.975323 -0.026034 -0.978069
v -0.948788 0.033989 -0.951911
v -0.698317 -0.081898 -0.510942
v -0.479150 -0.081898 -0.510942
v -0.991509 -0.081898 -0.514074
v -0.691448 -0.081898 -0.992075
v -0.481455 -0.081898 -0.993063
v -0.994628 -0.081898 -0.992279
v -0.982154 -0.013599 -0.245673
v -0.969191 0.002488 -0.261945
v 0.500305 -0.026034 -0.041173
v 0.945846 0.033989 -0.069831
v 0.969020 0.005964 -0.047913
v 0.740181 0.033989 -0.052398
v 0.763081 0.011635 -0.042569
v 0.521311 0.018512 -0.493010
v 0.500305 -0.042436 -0.499752
v 0.956313 0.018512 -0.493010
v 0.977319 -0.038617 -0.499893
v 0.740181 0.002488 -0.487857
v 0.756666 -0.013599 -0.500821
v 0.030548 0.018512 -0.477956
v 0.455412 0.018512 -0.490634
v 0.010929 -0.081898 -0.349843
v 0.484210 -0.081898 -0.022534
v 0.003305 -0.081898 -0.027915
v 0.025941 -0.081898 -0.510373
v 0.480214 -0.081898 -0.510373
v 0.036330 0.033989 -0.064541
v 0.009542 -0.026034 -0.038642
v 0.453244 0.033989 -0.061746
v 0.484069 0.005964 -0.039828
v 0.009542 -0.042436 -0.504758
v 0.484069 -0.038617 -0.504900
v -0.240267 0.019741 -0.469145
v -0.505676 -0.081898 -0.505152
v -0.508796 -0.081898 -0.026947
v 0.004377 -0.081898 -0.026163
v -0.205615 -0.081898 -0.027151
v -0.476529 -0.081898 -0.508284
v 0.006682 -0.081898 -0.508284
v -0.212485 -0.081898 -0.508284
v -0.462956 0.033989 -0.067315
v -0.489491 -0.026034 -0.041157
v -0.038052 0.033989 -0.069831
v -0.014878 0.005964 -0.047913
v -0.240267 0.033989 -0.052398
v -0.217366 0.011635 -0.042569
v -0.472876 0.018512 -0.493177
v -0.493947 -0.042436 -0.499714
v -0.027585 0.018512 -0.493010
v -0.006579 -0.038617 -0.499893
v -0.240267 0.002488 -0.487857
v -0.223781 -0.013599 -0.500821
v -0.001763 -0.038617 -0.514326
v -0.476290 -0.042436 -0.514468
v -0.001763 0.005964 -0.979398
v -0.032588 0.033989 -0.957480
v -0.476290 -0.026034 -0.980583
v -0.449502 0.033989 -0.954685
v -0.005618 -0.081898 -0.508852
v -0.459891 -0.081898 -0.508852
v -0.482528 -0.081898 -0.991311
v -0.001622 -0.081898 -0.996691
v -0.474903 -0.081898 -0.669383
v -0.030420 0.018512 -0.528592
v -0.455284 0.018512 -0.541270
v 0.488036 -0.038617 -0.519332
v 0.467031 0.018512 -0.526216
v 0.014473 -0.042436 -0.519474
v 0.035479 0.018512 -0.526216
v 0.277249 0.011635 -0.976657
v 0.254349 0.033989 -0.966828
v 0.479738 0.005964 -0.971313
v 0.456564 0.033989 -0.949395
v 0.014473 -0.026034 -0.978053
v 0.041261 0.033989 -0.952154
v 0.501297 -0.081898 -0.510942
v 0.002796 -0.081898 -0.513923
v 0.289000 -0.081898 -0.992075
v 0.498993 -0.081898 -0.993063
v -0.004970 -0.081898 -0.992075
v 0.992762 -0.038617 -0.514326
v 0.504158 -0.042436 -0.514468
v 0.992762 0.005964 -0.979398
v 0.961937 0.033989 -0.957480
v 0.504158 -0.026034 -0.980583
v 0.530945 0.033989 -0.954685
v 0.988907 -0.081898 -0.508852
v 0.520556 -0.081898 -0.508852
v 0.497920 -0.081898 -0.991311
v 0.992903 -0.081898 -0.996691
v 0.505545 -0.081898 -0.669383
v 0.964106 0.018512 -0.528592
v 0.525164 0.018512 -0.541270
v -0.740181 0.019741 0.442038
v -0.501858 -0.081898 0.478727
v -0.494092 -0.081898 -0.019678
v -0.988275 -0.081898 -0.020681
v -0.774832 -0.081898 -0.019678
v -0.503919 -0.081898 0.481751
v -0.990580 -0.081898 0.481751
v -0.767963 -0.081898 0.481751
v -0.540322 0.033989 0.020829
v 0.950478 0.019741 0.231794
v 0.986637 -0.081898 0.483730
v 0.508485 -0.081898 0.491508
v 0.507496 -0.081898 -0.026121
v 0.508485 -0.081898 0.197090
v 0.989617 -0.081898 0.468416
v 0.989617 -0.081898 -0.028430
v 0.989617 -0.081898 0.203970
v 0.548405 0.033989 0.445207
v 0.522506 -0.026034 0.472035
v 0.551165 0.033989 0.016372
v 0.529247 0.005964 -0.006837
v 0.533731 0.033989 0.231794
v 0.523902 0.011635 0.208859
v 0.974343 0.018512 0.450998
v 0.981085 -0.042436 0.472035
v 0.974343 0.018512 0.005889
v 0.981227 -0.038617 -0.015149
v -0.709613 -0.013599 0.492022
v -0.726099 0.002488 0.505175
v -0.492411 -0.038617 0.492962
v -0.513417 0.018512 0.499947
v -0.979779 -0.042436 0.493144
v -0.958708 0.018512 0.499778
v -0.703198 0.011635 0.979793
v -0.726099 0.033989 0.969820
v -0.500710 0.005964 0.974370
v -0.523884 0.033989 0.952130
v -0.975323 -0.026034 0.981226
v -0.948788 0.033989 0.954684
v -0.698317 -0.081898 0.484449
v -0.479150 -0.081898 0.484449
v -0.962361 -0.081898 0.484449
v -0.691448 -0.081898 0.995437
v -0.481455 -0.081898 0.996440
v -0.994628 -0.081898 0.995645
v -0.991509 -0.081898 0.487627
v 0.982154 -0.013599 0.215283
v -0.726099 0.019741 0.524162
v 0.969191 0.002488 0.231794
v -0.513534 -0.026034 -0.005451
v -0.945846 0.033989 0.023629
v -0.969020 0.005964 0.001389
v -0.740181 0.033989 0.005939
v -0.763081 0.011635 -0.004034
v -0.534540 0.018512 0.466253
v -0.513534 -0.042436 0.473094
v -0.956313 0.018512 0.466253
v -0.977319 -0.038617 0.473238
v -0.740181 0.002488 0.461025
v -0.756666 -0.013599 0.474179
v -0.030548 0.018512 0.450978
v -0.478035 0.018512 0.463842
v -0.010929 -0.081898 0.320983
v -0.497439 -0.081898 -0.027803
v -0.003305 -0.081898 -0.022343
v -0.025941 -0.081898 0.483872
v -0.493443 -0.081898 0.483872
v -0.036330 0.033989 0.014821
v -0.009542 -0.026034 -0.011458
v -0.475867 0.033989 0.011985
v -0.497299 0.005964 -0.010255
v -0.009542 -0.042436 0.478174
v -0.497299 -0.038617 0.478318
v 0.240267 0.019741 0.442038
v 0.505676 -0.081898 0.478573
v 0.508796 -0.081898 -0.027493
v -0.004377 -0.081898 -0.028288
v 0.205615 -0.081898 -0.027285
v 0.476529 -0.081898 0.481751
v -0.006682 -0.081898 0.481751
v 0.212485 -0.081898 0.481751
v 0.462956 0.033989 0.013468
v 0.489491 -0.026034 -0.013074
v 0.038052 0.033989 0.016022
v 0.014878 0.005964 -0.006218
v 0.240267 0.033989 -0.001668
v 0.217366 0.011635 -0.011641
v 0.472876 0.018512 0.466422
v 0.493947 -0.042436 0.473056
v 0.027585 0.018512 0.466253
v 0.006579 -0.038617 0.473238
v 0.240267 0.002488 0.461025
v 0.223781 -0.013599 0.474179
v -0.001763 -0.038617 0.487883
v -0.476290 -0.042436 0.488026
v -0.001763 0.005964 0.978776
v -0.032588 0.033989 0.956536
v -0.476290 -0.026034 0.985734
v -0.449502 0.033989 0.959455
v -0.005618 -0.081898 0.482328
v -0.459891 -0.081898 0.482328
v -0.482528 -0.081898 0.996619
v -0.001622 -0.081898 0.996324
v -0.474903 -0.081898 0.645217
v -0.030420 0.018512 0.502358
v -0.455284 0.018512 0.515222
v 0.270834 -0.013599 0.492022
v 0.254348 0.002488 0.505175
v 0.488036 -0.038617 0.492962
v 0.467031 0.018512 0.499947
v 0.014473 -0.042436 0.493106
v 0.035479 0.018512 0.499947
v 0.277249 0.011635 0.980599
v 0.254349 0.033989 0.970625
v 0.479738 0.005964 0.975176
v 0.456564 0.033989 0.952936
v 0.014473 -0.026034 0.982015
v 0.041261 0.033989 0.955736
v 0.282131 -0.081898 0.484449
v 0.501297 -0.081898 0.484449
v 0.018087 -0.081898 0.484449
v 0.289000 -0.081898 0.996243
v 0.498993 -0.081898 0.997246
v -0.004970 -0.081898 0.996243
v 0.002796 -0.081898 0.487473
v 0.254349 0.019741 0.524162
v 0.992762 -0.038617 0.487883
v 0.504158 -0.042436 0.488026
v 0.997366 0.005964 0.981365
v 0.966541 0.033989 0.959126
v 0.504158 -0.026034 0.982569
v 0.530945 0.033989 0.956290
v 0.988907 -0.081898 0.482328
v 0.520556 -0.081898 0.482328
v 0.497920 -0.081898 0.993454
v 0.997507 -0.081898 0.998913
v 0.505545 -0.081898 0.645217
v 0.964106 0.018512 0.502358
v 0.525164 0.018512 0.515222
vn 0.0129 0.2028 0.9791
vn 0.0533 0.5668 0.8221
vn 0.9706 0.2406 -0.0005
vn -0.0572 0.3995 0.9149
vn 0.8885 0.4588 -0.0124
vn -0.0081 0.9946 -0.1039
vn -0.9304 0.3665 -0.0071
vn 0.8217 0.5673 0.0549
vn 0.0016 0.2477 -0.9688
vn -0.0070 0.3623 -0.9320
vn 0.9791 0.2029 0.0133
vn -0.1039 0.9946 -0.0084
vn -0.0005 0.2377 0.9713
vn 0.9149 0.3995 -0.0579
vn -0.9893 0.1454 -0.0102
vn -0.0123 0.4540 0.8909
vn -0.7340 0.6742 0.0819
vn -0.9688 0.2477 0.0017
vn -0.9897 0.1429 0.0104
vn -0.0353 0.9994 0.0003
vn 0.9810 0.1939 -0.0108
vn -0.0131 0.3056 -0.9521
vn -0.0131 0.1218 0.9925
vn 0.0171 0.1268 0.9918
vn 0.0088 0.1497 0.9887
vn -0.0100 0.1950 -0.9808
vn 0.0362 0.9979 0.0542
vn -0.0401 0.9977 0.0544
vn -0.9510 0.3092 0.0041
vn 0.9706 0.2406 0.0005
vn -0.0157 0.1115 0.9936
vn 0.0542 0.5674 -0.8217
vn -0.0555 0.4018 -0.9141
vn 0.8885 0.4588 0.0124
vn -0.9304 0.3665 -0.0019
vn 0.0131 0.2029 -0.9791
vn -0.0032 0.9993 0.0366
vn 0.0003 0.9994 -0.0353
vn -0.9509 0.3092 -0.0133
vn -0.0187 0.4765 0.8790
vn -0.0107 0.1918 0.9814
vn 0.0795 0.6736 -0.7349
vn 0.9996 -0.0286 -0.0029
vn -0.0149 0.3276 -0.9447
vn -0.0004 0.9993 -0.0367
vn -0.0107 0.1939 0.9810
vn -0.0007 0.1327 -0.9912
vn -0.9994 0.0329 -0.0104
vn -0.0101 0.1454 -0.9893
vn 0.8208 0.5701 -0.0363
vn 0.0542 0.5674 0.8217
vn -0.0083 0.9946 -0.1039
vn -0.0555 0.4018 0.9141
vn -0.0099 0.1446 -0.9894
vn 0.0808 0.6743 -0.7340
vn 0.0019 0.2453 -0.9694
vn 0.0103 0.1429 -0.9897
vn 0.0131 0.2029 0.9791
vn -0.0100 0.1950 0.9808
vn -0.9510 0.3092 -0.0041
vn -0.9304 0.3665 0.0019
vn -0.9300 0.3675 -0.0072
vn 0.0101 0.1428 -0.9897
vn -0.9994 0.0329 0.0104
vn -0.0007 0.1327 0.9912
vn -0.0187 0.4765 -0.8790
vn -0.0107 0.1918 -0.9814
vn -0.0149 0.3276 0.9447
vn 0.9996 -0.0286 0.0029
vn 0.8208 0.5701 0.0363
vn -0.9300 0.3675 0.0072
vn -0.0004 0.9993 0.0367
vn -0.0038 0.1661 0.9861
vn -0.0107 0.1939 -0.9810
vn 0.0008 0.9994 0.0355
vn -0.9509 0.3092 0.0133
vn -0.0572 0.3995 -0.9149
vn -0.9304 0.3665 0.0071
vn -0.0181 0.4765 -0.8790
vn -0.0104 0.1918 -0.9814
vn -0.0144 0.3276 0.9447
vn -0.0131 0.2057 -0.9785
vn -0.0538 0.5724 -0.8182
vn -0.9706 0.2406 0.0004
vn 0.0613 0.4045 -0.9125
vn -0.8885 0.4588 0.0119
vn 0.0078 0.9950 0.0994
vn 0.9304 0.3665 0.0068
vn -0.8232 0.5654 -0.0509
vn -0.0018 0.2511 0.9680
vn 0.0071 0.3669 0.9302
vn -0.9792 0.2027 -0.0123
vn 0.1038 0.9946 0.0078
vn 0.0005 0.2410 -0.9705
vn -0.9149 0.3995 0.0571
vn 0.9893 0.1454 0.0101
vn 0.0124 0.4593 -0.8882
vn 0.7369 0.6717 -0.0759
vn 0.9688 0.2477 -0.0016
vn 0.9897 0.1428 -0.0097
vn 0.0353 0.9994 -0.0003
vn -0.9810 0.1939 0.0106
vn 0.0133 0.3097 0.9508
vn -0.0100 0.1467 -0.9891
vn 0.0814 0.6796 -0.7291
vn 0.0104 0.1449 -0.9894
vn -0.0102 0.1978 0.9802
vn 0.0002 0.9995 -0.0330
vn -0.9510 0.3092 -0.0038
vn 0.9706 0.2406 -0.0004
vn 0.0019 0.2487 -0.9686
vn 0.0547 0.5729 0.8178
vn -0.0562 0.4067 0.9118
vn 0.8884 0.4589 -0.0117
vn -0.9304 0.3664 0.0018
vn 0.0133 0.2057 0.9785
vn -0.0077 0.9952 -0.0973
vn -0.0002 0.9994 0.0337
vn 0.9509 0.3093 0.0128
vn 0.0182 0.4834 -0.8752
vn 0.0106 0.1945 -0.9808
vn -0.0801 0.6788 0.7299
vn -0.9996 -0.0286 0.0027
vn 0.0145 0.3330 0.9428
vn 0.0004 0.9994 0.0348
vn 0.0113 0.1966 -0.9804
vn 0.0007 0.1346 0.9909
vn 0.9994 0.0336 0.0098
vn 0.0106 0.1488 0.9888
vn -0.9029 0.4292 0.0253
vn -0.0547 0.5729 -0.8178
vn 0.0562 0.4067 -0.9118
vn 0.0100 0.1467 0.9891
vn -0.8884 0.4588 0.0117
vn -0.0814 0.6796 0.7291
vn -0.0664 0.7385 0.6710
vn -0.0019 0.2487 0.9686
vn -0.0104 0.1449 0.9894
vn -0.0002 0.9995 0.0331
vn -0.0133 0.2057 -0.9785
vn 0.0472 0.3174 0.9471
vn 0.0102 0.1978 -0.9802
vn 0.9510 0.3092 0.0038
vn 0.9304 0.3664 -0.0018
vn 0.9300 0.3675 0.0068
vn -0.0103 0.1449 0.9894
vn -0.9994 0.0339 -0.0096
vn -0.0007 0.1346 -0.9909
vn -0.0076 0.4823 0.8760
vn 0.0009 0.1940 0.9810
vn -0.0151 0.3319 -0.9432
vn 0.9996 -0.0286 -0.0027
vn 0.8208 0.5702 -0.0344
vn -0.9300 0.3675 -0.0067
vn -0.0006 0.9994 -0.0344
vn -0.0102 0.1475 -0.9890
vn -0.0108 0.1966 0.9804
vn 0.0001 0.9995 -0.0329
vn -0.9509 0.3093 -0.0125
vn 0.0017 0.2511 -0.9679
vn -0.0579 0.4044 0.9127
vn 0.8884 0.4589 -0.0116
vn -0.9304 0.3665 -0.0067
vn -0.0077 0.9952 -0.0971
vn -0.9994 0.0338 -0.0097
vn -0.0181 0.4819 0.8760
vn -0.0105 0.1945 0.9808
vn -0.0146 0.3319 -0.9432
vn 0.9995 -0.0294 -0.0118
vn 0.8209 0.5696 -0.0421
vn -0.9300 0.3675 -0.0068
vn -0.0004 0.9994 -0.0345
vn 0.0004 0.9994 0.0332
vn -0.1878 0.1911 -0.9634
vn 0.0696 0.7334 -0.6762
vn -0.6762 0.7334 0.0705
vn -0.9630 0.1910 -0.1902
vn -0.6748 0.7319 0.0952
vn 0.0926 0.7320 -0.6749
vn -0.9243 -0.3718 -0.0864
vn -0.1053 0.1664 -0.9804
vn 0.0660 0.7336 -0.6764
vn 0.0940 0.7319 -0.6749
vn -0.9243 -0.3718 0.0864
vn -0.0006 0.1146 0.9934
vn 0.7859 0.3090 0.5356
vn -0.0746 0.7380 0.6706
vn 0.6762 0.7334 -0.0695
vn 0.9635 0.1911 0.1875
vn 0.6752 0.7323 -0.0890
vn 0.0946 0.7368 -0.6695
vn -0.1068 0.1688 -0.9799
vn 0.0664 0.7385 -0.6710
vn -0.0932 0.7369 0.6696
vn 0.9244 -0.3718 0.0852
vn 0.1068 0.1688 0.9799
vn -0.9244 -0.3718 -0.0852
vn -0.1904 0.1937 -0.9624
vn 0.0701 0.7383 -0.6708
usemtl Main
s off
f 4//1 50//1 52//1 5//1
f 50//2 49//2 51//2 52//2
f 56//3 50//3 4//3 7//3
f 9//4 48//4 52//4 51//4
f 55//5 49//5 50//5 56//5
f 56//6 1//6 51//6 49//6 55//6
f 54//7 48//7 9//7 53//7
f 21//8 23//8 22//8 20//8
f 58//9 54//9 53//9 57//9
f 25//10 24//10 18//10 19//10
f 13//11 14//11 23//11 21//11
f 27//12 26//12 20//12 22//12 10//12
f 27//13 16//13 13//13 21//13
f 18//14 22//14 23//14 19//14
f 25//15 15//15 17//15 46//15
f 26//16 27//16 21//16 20//16
f 46//17 27//17 47//17
f 46//18 47//18 24//18 25//18
f 16//19 27//19 46//19 17//19
f 24//20 10//20 22//20 18//20
f 23//21 14//21 12//21 19//21
f 25//22 19//22 12//22 11//22
f 32//23 42//23 40//23 28//23
f 28//24 30//24 31//24 29//24
f 41//25 30//25 28//25 40//25
f 34//26 43//26 45//26 38//26
f 33//27 29//27 35//27 39//27
f 31//28 37//28 35//28 29//28
f 32//29 38//29 45//29 42//29
f 30//30 41//30 44//30 36//30
f 28//31 29//31 33//31 32//31
f 36//32 34//32 35//32 37//32
f 39//33 35//33 34//33 38//33
f 31//34 30//34 36//34 37//34
f 32//35 33//35 39//35 38//35
f 44//36 43//36 34//36 36//36
f 106//37 112//37 110//37
f 53//38 9//38 51//38 1//38
f 54//39 2//39 3//39 48//39
f 66//40 67//40 69//40 68//40
f 63//41 62//41 69//41 67//41
f 58//42 57//42 56//42
f 71//43 69//43 62//43 65//43
f 60//44 71//44 70//44 59//44
f 59//45 66//45 68//45 60//45
f 52//46 48//46 3//46 5//46
f 65//47 64//47 70//47 71//47
f 70//48 61//48 63//48 67//48
f 54//49 58//49 8//49 6//49
f 60//50 68//50 69//50 71//50
f 83//51 82//51 84//51 85//51
f 89//3 83//3 75//3 78//3
f 89//52 72//52 84//52 82//52 88//52
f 80//53 81//53 85//53 84//53
f 87//54 91//54 79//54 77//54
f 88//5 82//5 83//5 89//5
f 91//55 90//55 89//55
f 91//56 87//56 86//56 90//56
f 78//57 79//57 91//57 89//57
f 86//38 80//38 84//38 72//38
f 75//58 83//58 85//58 76//58
f 85//59 81//59 74//59 76//59
f 87//60 73//60 74//60 81//60
f 87//61 81//61 80//61 86//61
f 70//62 67//62 66//62 59//62
f 7//63 8//63 58//63 56//63
f 93//64 96//64 100//64 102//64
f 98//65 92//65 93//65 99//65
f 97//66 95//66 94//66 96//66
f 100//67 96//67 94//67 101//67
f 103//68 104//68 93//68 92//68
f 92//69 98//69 101//69 94//69
f 103//70 92//70 94//70 95//70
f 93//71 104//71 97//71 96//71
f 104//72 103//72 95//72 97//72
f 107//73 116//73 115//73 105//73
f 109//74 117//74 119//74 113//74
f 108//75 106//75 110//75 114//75
f 107//76 113//76 119//76 116//76
f 105//30 115//30 118//30 111//30
f 111//32 109//32 110//32 112//32
f 114//77 110//77 109//77 113//77
f 106//34 105//34 111//34 112//34
f 107//78 108//78 114//78 113//78
f 118//36 117//36 109//36 111//36
f 121//64 124//64 128//64 130//64
f 126//65 120//65 121//65 127//65
f 125//79 123//79 122//79 124//79
f 128//80 124//80 122//80 129//80
f 131//81 132//81 121//81 120//81
f 120//69 126//69 129//69 122//69
f 131//70 120//70 122//70 123//70
f 121//71 132//71 125//71 124//71
f 132//72 131//72 123//72 125//72
f 136//82 184//82 186//82 137//82
f 184//83 183//83 185//83 186//83
f 190//84 184//84 136//84 139//84
f 141//85 182//85 186//85 185//85
f 189//86 183//86 184//86 190//86
f 190//87 133//87 185//87 183//87 189//87
f 188//88 182//88 141//88 187//88
f 153//89 155//89 154//89 152//89
f 192//90 188//90 187//90 191//90
f 157//91 156//91 150//91 151//91
f 145//92 146//92 155//92 153//92
f 159//93 158//93 152//93 154//93 142//93
f 159//94 148//94 145//94 153//94
f 150//95 154//95 155//95 151//95
f 157//96 147//96 149//96 179//96
f 158//97 159//97 153//97 152//97
f 179//98 159//98 181//98
f 179//99 181//99 156//99 157//99
f 148//100 159//100 179//100 149//100
f 156//101 142//101 154//101 150//101
f 155//102 146//102 144//102 151//102
f 157//103 151//103 144//103 143//103
f 164//104 160//104 172//104 174//104
f 160//105 161//105 162//105
f 173//106 172//106 160//106 162//106
f 166//107 170//107 177//107 175//107
f 165//108 171//108 167//108 180//108
f 164//109 178//109 177//109 170//109
f 162//110 168//110 176//110 173//110
f 160//111 164//111 165//111 161//111
f 168//112 169//112 167//112 166//112
f 171//113 170//113 166//113 167//113
f 163//114 169//114 168//114 162//114
f 164//115 170//115 171//115 165//115
f 176//116 168//116 166//116 175//116
f 162//117 180//117 167//117 169//117 163//117
f 187//118 141//118 185//118 133//118
f 188//119 134//119 135//119 182//119
f 200//120 201//120 203//120 202//120
f 197//121 196//121 203//121 201//121
f 192//122 191//122 190//122
f 205//123 203//123 196//123 199//123
f 194//124 205//124 204//124 193//124
f 193//125 200//125 202//125 194//125
f 186//126 182//126 135//126 137//126
f 199//127 198//127 204//127 205//127
f 204//128 195//128 197//128 201//128
f 188//129 192//129 140//129 138//129
f 194//130 202//130 203//130 205//130
f 217//131 216//131 218//131 219//131
f 223//84 217//84 209//84 212//84
f 214//132 215//132 219//132 218//132
f 221//133 225//133 213//133 211//133
f 222//134 216//134 217//134 223//134
f 225//135 224//135 223//135
f 220//136 206//136 224//136
f 225//137 221//137 220//137 224//137
f 212//138 213//138 225//138 223//138
f 220//139 214//139 218//139 206//139
f 209//140 217//140 219//140 210//140
f 224//141 206//141 222//141 223//141
f 219//142 215//142 208//142 210//142
f 221//143 207//143 208//143 215//143
f 221//144 215//144 214//144 220//144
f 204//145 201//145 200//145 193//145
f 139//146 140//146 192//146 190//146
f 227//147 236//147 234//147 230//147
f 232//148 233//148 227//148 226//148
f 231//149 230//149 228//149 229//149
f 234//150 235//150 228//150 230//150
f 237//151 226//151 227//151 238//151
f 226//152 228//152 235//152 232//152
f 237//153 229//153 228//153 226//153
f 227//154 230//154 231//154 238//154
f 238//155 231//155 229//155 237//155
f 243//156 239//156 251//156 253//156
f 239//105 240//105 241//105
f 252//106 251//106 239//106 241//106
f 245//157 249//157 256//157 254//157
f 244//158 250//158 246//158 258//158
f 243//159 257//159 256//159 249//159
f 241//110 247//110 255//110 252//110
f 239//160 243//160 244//160 240//160
f 247//112 248//112 246//112 245//112
f 250//161 249//161 245//161 246//161
f 242//162 248//162 247//162 241//162
f 243//163 249//163 250//163 244//163
f 255//116 247//116 245//116 254//116
f 241//164 258//164 246//164 248//164 242//164
f 260//165 269//165 267//165 263//165
f 265//148 266//148 260//148 259//148
f 264//166 263//166 261//166 262//166
f 267//167 268//167 261//167 263//167
f 270//168 259//168 260//168 271//168
f 259//169 261//169 268//169 265//169
f 270//170 262//170 261//170 259//170
f 260//171 263//171 264//171 271//171
f 271//172 264//172 262//172 270//172
f 222//173 206//173 218//173 216//173
usemtl Highlights
f 6//174 2//174 54//174
f 53//175 1//175 57//175
f 24//176 47//176 10//176
f 15//177 25//177 11//177
f 47//178 27//178 10//178
f 57//179 1//179 56//179
f 64//180 61//180 70//180
f 77//181 73//181 87//181
f 86//182 72//182 90//182
f 90//183 72//183 89//183
f 99//184 93//184 102//184
f 105//185 106//185 108//185 107//185
f 127//184 121//184 130//184
f 138//186 134//186 188//186
f 187//187 133//187 191//187
f 156//188 181//188 142//188
f 147//189 157//189 143//189
f 181//190 159//190 142//190
f 161//191 180//191 162//191
f 174//192 178//192 164//192
f 165//193 180//193 161//193
f 191//194 133//194 190//194
f 198//195 195//195 204//195
f 211//196 207//196 221//196
f 233//197 236//197 227//197
f 240//191 258//191 241//191
f 253//198 257//198 243//198
f 244//199 258//199 240//199
f 266//197 269//197 260//197
