# Blender v2.79 (sub 0) OBJ File: 'Floor_Hole_Straight.blend'
# www.blender.org
mtllib Floor_Hole_Straight.mtl
o Floor_Hole_Straight_Cube.031
v 0.740181 0.019741 -0.469145
v 0.488629 -0.081898 -0.505303
v 0.480862 -0.081898 -0.027151
v 0.988275 -0.081898 -0.026163
v 0.774832 -0.081898 -0.027151
v 0.503919 -0.081898 -0.508284
v 0.990580 -0.081898 -0.508284
v 0.767963 -0.081898 -0.508284
v 0.527093 0.033989 -0.067072
v -0.950478 0.019741 -0.261945
v -0.986637 -0.081898 -0.510233
v -0.508485 -0.081898 -0.517899
v -0.507496 -0.081898 -0.020475
v -0.508485 -0.081898 -0.227743
v -0.989617 -0.081898 -0.495141
v -0.989617 -0.081898 -0.018200
v -0.989617 -0.081898 -0.234523
v -0.548405 0.033989 -0.472268
v -0.522506 -0.026034 -0.498708
v -0.551165 0.033989 -0.062354
v -0.529247 0.005964 -0.039480
v -0.533731 0.033989 -0.261945
v -0.523902 0.011635 -0.239342
v -0.974343 0.018512 -0.477975
v -0.981085 -0.042436 -0.498708
v -0.974343 0.018512 -0.052023
v -0.981227 -0.038617 -0.031289
v -0.706279 -0.033757 -0.516203
v -0.726099 0.002488 -0.520552
v -0.492411 -0.038617 -0.519332
v -0.513417 0.018512 -0.526216
v -0.979779 -0.042436 -0.519511
v -0.958708 0.018512 -0.526049
v -0.703198 0.011635 -0.976657
v -0.726099 0.033989 -0.966828
v -0.500710 0.005964 -0.971313
v -0.523884 0.033989 -0.949395
v -0.975323 -0.026034 -0.978069
v -0.948788 0.033989 -0.951911
v -0.698317 -0.081898 -0.510942
v -0.479150 -0.081898 -0.510942
v -0.991509 -0.081898 -0.514074
v -0.691448 -0.081898 -0.992075
v -0.481455 -0.081898 -0.993063
v -0.994628 -0.081898 -0.992279
v -0.982154 -0.013599 -0.245673
v -0.969191 0.002488 -0.261945
v 0.500305 -0.026034 -0.041173
v 0.945846 0.033989 -0.069831
v 0.969020 0.005964 -0.047913
v 0.740181 0.033989 -0.052398
v 0.763081 0.011635 -0.042569
v 0.521311 0.018512 -0.493010
v 0.500305 -0.042436 -0.499752
v 0.956313 0.018512 -0.493010
v 0.977319 -0.038617 -0.499893
v 0.740181 0.002488 -0.487857
v 0.756666 -0.013599 -0.500821
v 0.030548 0.018512 -0.477956
v 0.455412 0.018512 -0.490634
v 0.010929 -0.081898 -0.349843
v 0.484210 -0.081898 -0.022534
v 0.003305 -0.081898 -0.027915
v 0.025941 -0.081898 -0.510373
v 0.480214 -0.081898 -0.510373
v 0.036330 0.033989 -0.064541
v 0.009542 -0.026034 -0.038642
v 0.453244 0.033989 -0.061746
v 0.484069 0.005964 -0.039828
v 0.009542 -0.042436 -0.504758
v 0.484069 -0.038617 -0.504900
v -0.240267 0.019741 -0.469145
v -0.505676 -0.081898 -0.505152
v -0.508796 -0.081898 -0.026947
v 0.004377 -0.081898 -0.026163
v -0.205615 -0.081898 -0.027151
v -0.476529 -0.081898 -0.508284
v 0.006682 -0.081898 -0.508284
v -0.212485 -0.081898 -0.508284
v -0.462956 0.033989 -0.067315
v -0.489491 -0.026034 -0.041157
v -0.038052 0.033989 -0.069831
v -0.014878 0.005964 -0.047913
v -0.240267 0.033989 -0.052398
v -0.217366 0.011635 -0.042569
v -0.472876 0.018512 -0.493177
v -0.493947 -0.042436 -0.499714
v -0.027585 0.018512 -0.493010
v -0.006579 -0.038617 -0.499893
v -0.240267 0.002488 -0.487857
v -0.223781 -0.013599 -0.500821
v -0.001763 -0.038617 -0.514326
v -0.476290 -0.042436 -0.514468
v -0.001763 0.005964 -0.979398
v -0.032588 0.033989 -0.957480
v -0.476290 -0.026034 -0.980583
v -0.449502 0.033989 -0.954685
v -0.005618 -0.081898 -0.508852
v -0.459891 -0.081898 -0.508852
v -0.482528 -0.081898 -0.991311
v -0.001622 -0.081898 -0.996691
v -0.474903 -0.081898 -0.669383
v -0.030420 0.018512 -0.528592
v -0.455284 0.018512 -0.541270
v 0.488036 -0.038617 -0.519332
v 0.467031 0.018512 -0.526216
v 0.014473 -0.042436 -0.519474
v 0.035479 0.018512 -0.526216
v 0.277249 0.011635 -0.976657
v 0.254349 0.033989 -0.966828
v 0.479738 0.005964 -0.971313
v 0.456564 0.033989 -0.949395
v 0.014473 -0.026034 -0.978053
v 0.041261 0.033989 -0.952154
v 0.501297 -0.081898 -0.510942
v 0.002796 -0.081898 -0.513923
v 0.289000 -0.081898 -0.992075
v 0.498993 -0.081898 -0.993063
v -0.004970 -0.081898 -0.992075
v 0.992762 -0.038617 -0.514326
v 0.504158 -0.042436 -0.514468
v 0.992762 0.005964 -0.979398
v 0.961937 0.033989 -0.957480
v 0.504158 -0.026034 -0.980583
v 0.530945 0.033989 -0.954685
v 0.988907 -0.081898 -0.508852
v 0.520556 -0.081898 -0.508852
v 0.497920 -0.081898 -0.991311
v 0.992903 -0.081898 -0.996691
v 0.505545 -0.081898 -0.669383
v 0.964106 0.018512 -0.528592
v 0.525164 0.018512 -0.541270
v -0.107117 -0.076547 0.107117
v -0.107117 0.060812 0.107117
v -0.107117 -0.076547 -0.107117
v -0.107117 0.060812 -0.107117
v 0.107117 -0.076547 0.107117
v 0.107117 0.060812 0.107117
v 0.107117 -0.076547 -0.107117
v 0.107117 0.060812 -0.107117
v -1.000000 -0.078871 -0.072114
v -1.000000 0.046403 -0.072114
v -1.000000 -0.078871 0.072114
v -1.000000 0.046403 0.072114
v -0.000000 -0.078871 0.072114
v -0.000000 0.046403 0.072114
v 0.000000 -0.078871 -0.072114
v 0.000000 0.046403 -0.072114
v 1.000000 -0.078871 0.072114
v 1.000000 0.046403 0.072114
v 1.000000 -0.078871 -0.072114
v 1.000000 0.046403 -0.072114
v 0.000000 -0.078871 -0.072114
v 0.000000 0.046403 -0.072114
v 0.000000 -0.078871 0.072114
v 0.000000 0.046403 0.072114
vn 0.0129 0.2028 0.9791
vn 0.0533 0.5668 0.8221
vn 0.9706 0.2406 -0.0005
vn -0.0572 0.3995 0.9149
vn 0.8885 0.4588 -0.0124
vn -0.0081 0.9946 -0.1039
vn -0.9304 0.3665 -0.0071
vn 0.8217 0.5673 0.0549
vn 0.0016 0.2477 -0.9688
vn -0.0070 0.3623 -0.9320
vn 0.9791 0.2029 0.0133
vn -0.1039 0.9946 -0.0084
vn -0.0005 0.2377 0.9713
vn 0.9149 0.3995 -0.0579
vn -0.9893 0.1454 -0.0102
vn -0.0123 0.4540 0.8909
vn -0.7340 0.6742 0.0819
vn -0.9688 0.2477 0.0017
vn -0.9897 0.1429 0.0104
vn -0.0353 0.9994 0.0003
vn 0.9810 0.1939 -0.0108
vn -0.0131 0.3056 -0.9521
vn -0.0131 0.1218 0.9925
vn 0.0171 0.1268 0.9918
vn 0.0088 0.1497 0.9887
vn -0.0100 0.1950 -0.9808
vn 0.0362 0.9979 0.0542
vn -0.0401 0.9977 0.0544
vn -0.9510 0.3092 0.0041
vn 0.9706 0.2406 0.0005
vn -0.0157 0.1115 0.9936
vn 0.0542 0.5674 -0.8217
vn -0.0555 0.4018 -0.9141
vn 0.8885 0.4588 0.0124
vn -0.9304 0.3665 -0.0019
vn 0.0131 0.2029 -0.9791
vn -0.0032 0.9993 0.0366
vn 0.0003 0.9994 -0.0353
vn -0.9509 0.3092 -0.0133
vn -0.0187 0.4765 0.8790
vn -0.0107 0.1918 0.9814
vn 0.0795 0.6736 -0.7349
vn 0.9996 -0.0286 -0.0029
vn -0.0149 0.3276 -0.9447
vn -0.0004 0.9993 -0.0367
vn -0.0107 0.1939 0.9810
vn -0.0007 0.1327 -0.9912
vn -0.9994 0.0329 -0.0104
vn -0.0101 0.1454 -0.9893
vn 0.8208 0.5701 -0.0363
vn 0.0542 0.5674 0.8217
vn -0.0083 0.9946 -0.1039
vn -0.0555 0.4018 0.9141
vn -0.0099 0.1446 -0.9894
vn 0.0808 0.6743 -0.7340
vn 0.0019 0.2453 -0.9694
vn 0.0103 0.1429 -0.9897
vn 0.0131 0.2029 0.9791
vn -0.0100 0.1950 0.9808
vn -0.9510 0.3092 -0.0041
vn -0.9304 0.3665 0.0019
vn -0.9300 0.3675 -0.0072
vn 0.0101 0.1428 -0.9897
vn -0.9994 0.0329 0.0104
vn -0.0007 0.1327 0.9912
vn -0.0187 0.4765 -0.8790
vn -0.0107 0.1918 -0.9814
vn -0.0149 0.3276 0.9447
vn 0.9996 -0.0286 0.0029
vn 0.8208 0.5701 0.0363
vn -0.9300 0.3675 0.0072
vn -0.0004 0.9993 0.0367
vn -0.0038 0.1661 0.9861
vn -0.0107 0.1939 -0.9810
vn 0.0008 0.9994 0.0355
vn -0.9509 0.3092 0.0133
vn -0.0572 0.3995 -0.9149
vn -0.9304 0.3665 0.0071
vn -0.0181 0.4765 -0.8790
vn -0.0104 0.1918 -0.9814
vn -0.0144 0.3276 0.9447
vn -0.1878 0.1911 -0.9634
vn 0.0696 0.7334 -0.6762
vn -0.6762 0.7334 0.0705
vn -0.9630 0.1910 -0.1902
vn -0.6748 0.7319 0.0952
vn 0.0926 0.7320 -0.6749
vn -0.9243 -0.3718 -0.0864
vn -0.1053 0.1664 -0.9804
vn 0.0660 0.7336 -0.6764
vn 0.0940 0.7319 -0.6749
vn -0.9243 -0.3718 0.0864
vn -0.0006 0.1146 0.9934
vn -1.0000 -0.0000 0.0000
vn 0.0000 0.0000 -1.0000
vn 1.0000 -0.0000 0.0000
vn 0.0000 0.0000 1.0000
vn 0.0000 1.0000 0.0000
usemtl Main
s off
f 4//1 50//1 52//1 5//1
f 50//2 49//2 51//2 52//2
f 56//3 50//3 4//3 7//3
f 9//4 48//4 52//4 51//4
f 55//5 49//5 50//5 56//5
f 56//6 1//6 51//6 49//6 55//6
f 54//7 48//7 9//7 53//7
f 21//8 23//8 22//8 20//8
f 58//9 54//9 53//9 57//9
f 25//10 24//10 18//10 19//10
f 13//11 14//11 23//11 21//11
f 27//12 26//12 20//12 22//12 10//12
f 27//13 16//13 13//13 21//13
f 18//14 22//14 23//14 19//14
f 25//15 15//15 17//15 46//15
f 26//16 27//16 21//16 20//16
f 46//17 27//17 47//17
f 46//18 47//18 24//18 25//18
f 16//19 27//19 46//19 17//19
f 24//20 10//20 22//20 18//20
f 23//21 14//21 12//21 19//21
f 25//22 19//22 12//22 11//22
f 32//23 42//23 40//23 28//23
f 28//24 30//24 31//24 29//24
f 41//25 30//25 28//25 40//25
f 34//26 43//26 45//26 38//26
f 33//27 29//27 35//27 39//27
f 31//28 37//28 35//28 29//28
f 32//29 38//29 45//29 42//29
f 30//30 41//30 44//30 36//30
f 28//31 29//31 33//31 32//31
f 36//32 34//32 35//32 37//32
f 39//33 35//33 34//33 38//33
f 31//34 30//34 36//34 37//34
f 32//35 33//35 39//35 38//35
f 44//36 43//36 34//36 36//36
f 106//37 112//37 110//37
f 53//38 9//38 51//38 1//38
f 54//39 2//39 3//39 48//39
f 66//40 67//40 69//40 68//40
f 63//41 62//41 69//41 67//41
f 58//42 57//42 56//42
f 71//43 69//43 62//43 65//43
f 60//44 71//44 70//44 59//44
f 59//45 66//45 68//45 60//45
f 52//46 48//46 3//46 5//46
f 65//47 64//47 70//47 71//47
f 70//48 61//48 63//48 67//48
f 54//49 58//49 8//49 6//49
f 60//50 68//50 69//50 71//50
f 83//51 82//51 84//51 85//51
f 89//3 83//3 75//3 78//3
f 89//52 72//52 84//52 82//52 88//52
f 80//53 81//53 85//53 84//53
f 87//54 91//54 79//54 77//54
f 88//5 82//5 83//5 89//5
f 91//55 90//55 89//55
f 91//56 87//56 86//56 90//56
f 78//57 79//57 91//57 89//57
f 86//38 80//38 84//38 72//38
f 75//58 83//58 85//58 76//58
f 85//59 81//59 74//59 76//59
f 87//60 73//60 74//60 81//60
f 87//61 81//61 80//61 86//61
f 70//62 67//62 66//62 59//62
f 7//63 8//63 58//63 56//63
f 93//64 96//64 100//64 102//64
f 98//65 92//65 93//65 99//65
f 97//66 95//66 94//66 96//66
f 100//67 96//67 94//67 101//67
f 103//68 104//68 93//68 92//68
f 92//69 98//69 101//69 94//69
f 103//70 92//70 94//70 95//70
f 93//71 104//71 97//71 96//71
f 104//72 103//72 95//72 97//72
f 107//73 116//73 115//73 105//73
f 109//74 117//74 119//74 113//74
f 108//75 106//75 110//75 114//75
f 107//76 113//76 119//76 116//76
f 105//30 115//30 118//30 111//30
f 111//32 109//32 110//32 112//32
f 114//77 110//77 109//77 113//77
f 106//34 105//34 111//34 112//34
f 107//78 108//78 114//78 113//78
f 118//36 117//36 109//36 111//36
f 121//64 124//64 128//64 130//64
f 126//65 120//65 121//65 127//65
f 125//79 123//79 122//79 124//79
f 128//80 124//80 122//80 129//80
f 131//81 132//81 121//81 120//81
f 120//69 126//69 129//69 122//69
f 131//70 120//70 122//70 123//70
f 121//71 132//71 125//71 124//71
f 132//72 131//72 123//72 125//72
usemtl Highlights
f 6//82 2//82 54//82
f 53//83 1//83 57//83
f 24//84 47//84 10//84
f 15//85 25//85 11//85
f 47//86 27//86 10//86
f 57//87 1//87 56//87
f 64//88 61//88 70//88
f 77//89 73//89 87//89
f 86//90 72//90 90//90
f 90//91 72//91 89//91
f 99//92 93//92 102//92
f 105//93 106//93 108//93 107//93
f 127//92 121//92 130//92
f 133//94 134//94 136//94 135//94
f 135//95 136//95 140//95 139//95
f 139//96 140//96 138//96 137//96
f 137//97 138//97 134//97 133//97
f 140//98 136//98 134//98 138//98
f 145//97 146//97 144//97 143//97
f 143//94 144//94 142//94 141//94
f 144//98 146//98 148//98 142//98
f 141//95 142//95 148//95 147//95
f 153//95 154//95 152//95 151//95
f 151//96 152//96 150//96 149//96
f 152//98 154//98 156//98 150//98
f 149//97 150//97 156//97 155//97
